<svg viewBox="0 0 330.0000305175781 200.00001525878906" xmlns="http://www.w3.org/2000/svg"><g><g><g><g><g><line x1="40" y1="178" x2="35" y2="178" style="visibility: inherit;" fill="rgb(0, 0, 0)" stroke="rgb(204, 204, 204)" stroke-width="1px"></line><line x1="40" y1="165.28571428571428" x2="35" y2="165.28571428571428" style="visibility: inherit;" fill="rgb(0, 0, 0)" stroke="rgb(204, 204, 204)" stroke-width="1px"></line><line x1="40" y1="152.57142857142858" x2="35" y2="152.57142857142858" style="visibility: inherit;" fill="rgb(0, 0, 0)" stroke="rgb(204, 204, 204)" stroke-width="1px"></line><line x1="40" y1="139.85714285714286" x2="35" y2="139.85714285714286" style="visibility: inherit;" fill="rgb(0, 0, 0)" stroke="rgb(204, 204, 204)" stroke-width="1px"></line><line x1="40" y1="127.14285714285714" x2="35" y2="127.14285714285714" style="visibility: inherit;" fill="rgb(0, 0, 0)" stroke="rgb(204, 204, 204)" stroke-width="1px"></line><line x1="40" y1="114.42857142857143" x2="35" y2="114.42857142857143" style="visibility: inherit;" fill="rgb(0, 0, 0)" stroke="rgb(204, 204, 204)" stroke-width="1px"></line><line x1="40" y1="101.71428571428572" x2="35" y2="101.71428571428572" style="visibility: inherit;" fill="rgb(0, 0, 0)" stroke="rgb(204, 204, 204)" stroke-width="1px"></line><line x1="40" y1="89" x2="35" y2="89" style="visibility: inherit;" fill="rgb(0, 0, 0)" stroke="rgb(204, 204, 204)" stroke-width="1px"></line><line x1="40" y1="76.28571428571429" x2="35" y2="76.28571428571429" style="visibility: inherit;" fill="rgb(0, 0, 0)" stroke="rgb(204, 204, 204)" stroke-width="1px"></line><line x1="40" y1="63.57142857142857" x2="35" y2="63.57142857142857" style="visibility: inherit;" fill="rgb(0, 0, 0)" stroke="rgb(204, 204, 204)" stroke-width="1px"></line><line x1="40" y1="50.85714285714286" x2="35" y2="50.85714285714286" style="visibility: inherit;" fill="rgb(0, 0, 0)" stroke="rgb(204, 204, 204)" stroke-width="1px"></line><line x1="40" y1="38.14285714285714" x2="35" y2="38.14285714285714" style="visibility: inherit;" fill="rgb(0, 0, 0)" stroke="rgb(204, 204, 204)" stroke-width="1px"></line><line x1="40" y1="25.428571428571445" x2="35" y2="25.428571428571445" style="visibility: inherit;" fill="rgb(0, 0, 0)" stroke="rgb(204, 204, 204)" stroke-width="1px"></line><line x1="40" y1="12.714285714285722" x2="35" y2="12.714285714285722" style="visibility: inherit;" fill="rgb(0, 0, 0)" stroke="rgb(204, 204, 204)" stroke-width="1px"></line><line x1="40" y1="0" x2="35" y2="0" style="visibility: inherit;" fill="rgb(0, 0, 0)" stroke="rgb(204, 204, 204)" stroke-width="1px"></line></g><g transform="translate(30, 0)"><text x="0" y="178" dx="0em" dy="0.3em" style="text-anchor: end; visibility: hidden; font-family: &quot;Helvetica Neue&quot;, sans-serif; font-size: 12px; font-weight: 200;" fill="rgb(50, 49, 63)" stroke="none" stroke-width="1px">40</text><text x="0" y="165.28571428571428" dx="0em" dy="0.3em" style="text-anchor: end; visibility: inherit; font-family: &quot;Helvetica Neue&quot;, sans-serif; font-size: 12px; font-weight: 200;" fill="rgb(50, 49, 63)" stroke="none" stroke-width="1px">45</text><text x="0" y="152.57142857142858" dx="0em" dy="0.3em" style="text-anchor: end; visibility: hidden; font-family: &quot;Helvetica Neue&quot;, sans-serif; font-size: 12px; font-weight: 200;" fill="rgb(50, 49, 63)" stroke="none" stroke-width="1px">50</text><text x="0" y="139.85714285714286" dx="0em" dy="0.3em" style="text-anchor: end; visibility: inherit; font-family: &quot;Helvetica Neue&quot;, sans-serif; font-size: 12px; font-weight: 200;" fill="rgb(50, 49, 63)" stroke="none" stroke-width="1px">55</text><text x="0" y="127.14285714285714" dx="0em" dy="0.3em" style="text-anchor: end; visibility: hidden; font-family: &quot;Helvetica Neue&quot;, sans-serif; font-size: 12px; font-weight: 200;" fill="rgb(50, 49, 63)" stroke="none" stroke-width="1px">60</text><text x="0" y="114.42857142857143" dx="0em" dy="0.3em" style="text-anchor: end; visibility: inherit; font-family: &quot;Helvetica Neue&quot;, sans-serif; font-size: 12px; font-weight: 200;" fill="rgb(50, 49, 63)" stroke="none" stroke-width="1px">65</text><text x="0" y="101.71428571428572" dx="0em" dy="0.3em" style="text-anchor: end; visibility: hidden; font-family: &quot;Helvetica Neue&quot;, sans-serif; font-size: 12px; font-weight: 200;" fill="rgb(50, 49, 63)" stroke="none" stroke-width="1px">70</text><text x="0" y="89" dx="0em" dy="0.3em" style="text-anchor: end; visibility: inherit; font-family: &quot;Helvetica Neue&quot;, sans-serif; font-size: 12px; font-weight: 200;" fill="rgb(50, 49, 63)" stroke="none" stroke-width="1px">75</text><text x="0" y="76.28571428571429" dx="0em" dy="0.3em" style="text-anchor: end; visibility: hidden; font-family: &quot;Helvetica Neue&quot;, sans-serif; font-size: 12px; font-weight: 200;" fill="rgb(50, 49, 63)" stroke="none" stroke-width="1px">80</text><text x="0" y="63.57142857142857" dx="0em" dy="0.3em" style="text-anchor: end; visibility: inherit; font-family: &quot;Helvetica Neue&quot;, sans-serif; font-size: 12px; font-weight: 200;" fill="rgb(50, 49, 63)" stroke="none" stroke-width="1px">85</text><text x="0" y="50.85714285714286" dx="0em" dy="0.3em" style="text-anchor: end; visibility: hidden; font-family: &quot;Helvetica Neue&quot;, sans-serif; font-size: 12px; font-weight: 200;" fill="rgb(50, 49, 63)" stroke="none" stroke-width="1px">90</text><text x="0" y="38.14285714285714" dx="0em" dy="0.3em" style="text-anchor: end; visibility: inherit; font-family: &quot;Helvetica Neue&quot;, sans-serif; font-size: 12px; font-weight: 200;" fill="rgb(50, 49, 63)" stroke="none" stroke-width="1px">95</text><text x="0" y="25.428571428571445" dx="0em" dy="0.3em" style="text-anchor: end; visibility: hidden; font-family: &quot;Helvetica Neue&quot;, sans-serif; font-size: 12px; font-weight: 200;" fill="rgb(50, 49, 63)" stroke="none" stroke-width="1px">100</text><text x="0" y="12.714285714285722" dx="0em" dy="0.3em" style="text-anchor: end; visibility: inherit; font-family: &quot;Helvetica Neue&quot;, sans-serif; font-size: 12px; font-weight: 200;" fill="rgb(50, 49, 63)" stroke="none" stroke-width="1px">105</text><text x="0" y="0" dx="0em" dy="0.3em" style="text-anchor: end; visibility: hidden; font-family: &quot;Helvetica Neue&quot;, sans-serif; font-size: 12px; font-weight: 200;" fill="rgb(50, 49, 63)" stroke="none" stroke-width="1px">110</text></g><line x1="40" y1="0" x2="40" y2="178" fill="rgb(0, 0, 0)" stroke="rgb(204, 204, 204)" stroke-width="1px"></line></g></g><g transform="translate(40, 0)" clip-path="url(#clip_0)"><clipPath id="clip_0"><rect width="290" height="177"></rect></clipPath><g><g><g><line x1="0" y1="0" x2="0" y2="178" fill="rgb(0, 0, 0)" stroke="rgb(60, 60, 60)" stroke-width="1px" opacity="0.25"></line><line x1="24.166666666666664" y1="0" x2="24.166666666666664" y2="178" fill="rgb(0, 0, 0)" stroke="rgb(60, 60, 60)" stroke-width="1px" opacity="0.25"></line><line x1="48.33333333333333" y1="0" x2="48.33333333333333" y2="178" fill="rgb(0, 0, 0)" stroke="rgb(60, 60, 60)" stroke-width="1px" opacity="0.25"></line><line x1="72.5" y1="0" x2="72.5" y2="178" fill="rgb(0, 0, 0)" stroke="rgb(60, 60, 60)" stroke-width="1px" opacity="0.25"></line><line x1="96.66666666666666" y1="0" x2="96.66666666666666" y2="178" fill="rgb(0, 0, 0)" stroke="rgb(60, 60, 60)" stroke-width="1px" opacity="0.25"></line><line x1="120.83333333333334" y1="0" x2="120.83333333333334" y2="178" fill="rgb(0, 0, 0)" stroke="rgb(60, 60, 60)" stroke-width="1px" opacity="0.25"></line><line x1="145" y1="0" x2="145" y2="178" fill="rgb(0, 0, 0)" stroke="rgb(60, 60, 60)" stroke-width="1px" opacity="0.25"></line><line x1="169.16666666666669" y1="0" x2="169.16666666666669" y2="178" fill="rgb(0, 0, 0)" stroke="rgb(60, 60, 60)" stroke-width="1px" opacity="0.25"></line><line x1="193.33333333333331" y1="0" x2="193.33333333333331" y2="178" fill="rgb(0, 0, 0)" stroke="rgb(60, 60, 60)" stroke-width="1px" opacity="0.25"></line><line x1="217.5" y1="0" x2="217.5" y2="178" fill="rgb(0, 0, 0)" stroke="rgb(60, 60, 60)" stroke-width="1px" opacity="0.25"></line><line x1="241.66666666666669" y1="0" x2="241.66666666666669" y2="178" fill="rgb(0, 0, 0)" stroke="rgb(60, 60, 60)" stroke-width="1px" opacity="0.25"></line><line x1="265.8333333333333" y1="0" x2="265.8333333333333" y2="178" fill="rgb(0, 0, 0)" stroke="rgb(60, 60, 60)" stroke-width="1px" opacity="0.25"></line><line x1="290" y1="0" x2="290" y2="178" fill="rgb(0, 0, 0)" stroke="rgb(60, 60, 60)" stroke-width="1px" opacity="0.25"></line></g><g><line x1="0" y1="178" x2="290" y2="178" fill="rgb(0, 0, 0)" stroke="rgb(60, 60, 60)" stroke-width="1px" opacity="0.25"></line><line x1="0" y1="165.28571428571428" x2="290" y2="165.28571428571428" fill="rgb(0, 0, 0)" stroke="rgb(60, 60, 60)" stroke-width="1px" opacity="0.25"></line><line x1="0" y1="152.57142857142858" x2="290" y2="152.57142857142858" fill="rgb(0, 0, 0)" stroke="rgb(60, 60, 60)" stroke-width="1px" opacity="0.25"></line><line x1="0" y1="139.85714285714286" x2="290" y2="139.85714285714286" fill="rgb(0, 0, 0)" stroke="rgb(60, 60, 60)" stroke-width="1px" opacity="0.25"></line><line x1="0" y1="127.14285714285714" x2="290" y2="127.14285714285714" fill="rgb(0, 0, 0)" stroke="rgb(60, 60, 60)" stroke-width="1px" opacity="0.25"></line><line x1="0" y1="114.42857142857143" x2="290" y2="114.42857142857143" fill="rgb(0, 0, 0)" stroke="rgb(60, 60, 60)" stroke-width="1px" opacity="0.25"></line><line x1="0" y1="101.71428571428572" x2="290" y2="101.71428571428572" fill="rgb(0, 0, 0)" stroke="rgb(60, 60, 60)" stroke-width="1px" opacity="0.25"></line><line x1="0" y1="89" x2="290" y2="89" fill="rgb(0, 0, 0)" stroke="rgb(60, 60, 60)" stroke-width="1px" opacity="0.25"></line><line x1="0" y1="76.28571428571429" x2="290" y2="76.28571428571429" fill="rgb(0, 0, 0)" stroke="rgb(60, 60, 60)" stroke-width="1px" opacity="0.25"></line><line x1="0" y1="63.57142857142857" x2="290" y2="63.57142857142857" fill="rgb(0, 0, 0)" stroke="rgb(60, 60, 60)" stroke-width="1px" opacity="0.25"></line><line x1="0" y1="50.85714285714286" x2="290" y2="50.85714285714286" fill="rgb(0, 0, 0)" stroke="rgb(60, 60, 60)" stroke-width="1px" opacity="0.25"></line><line x1="0" y1="38.14285714285714" x2="290" y2="38.14285714285714" fill="rgb(0, 0, 0)" stroke="rgb(60, 60, 60)" stroke-width="1px" opacity="0.25"></line><line x1="0" y1="25.428571428571445" x2="290" y2="25.428571428571445" fill="rgb(0, 0, 0)" stroke="rgb(60, 60, 60)" stroke-width="1px" opacity="0.25"></line><line x1="0" y1="12.714285714285722" x2="290" y2="12.714285714285722" fill="rgb(0, 0, 0)" stroke="rgb(60, 60, 60)" stroke-width="1px" opacity="0.25"></line><line x1="0" y1="0" x2="290" y2="0" fill="rgb(0, 0, 0)" stroke="rgb(60, 60, 60)" stroke-width="1px" opacity="0.25"></line></g></g></g><g><g><line x1="0" y1="279.7142857142857" x2="290" y2="279.7142857142857" fill="rgb(0, 0, 0)" stroke="rgb(153, 153, 153)" stroke-width="1.5px"></line></g></g><g><g><line x1="24.166666666666664" y1="0" x2="24.166666666666664" y2="178" fill="rgb(0, 0, 0)" stroke="rgb(153, 153, 153)" stroke-width="1.5px"></line></g></g><g><g><g><g><g><path stroke="rgb(238, 51, 119)" stroke-width="2px" d="M24.166666666666664,167.26462914603098L26.583333333333332,151.36115631375992L29,138.27689874721338L31.416666666666668,129.8503092180781L33.833333333333336,122.51684033358029L36.25,115.57748847608462L38.666666666666664,107.209229855654L41.083333333333336,101.87083421639907L43.5,95.22528015598807L45.916666666666664,90.5838078590053L48.33333333333333,85.70297418461914L50.75,80.42979394740867L53.166666666666664,76.76978629511053L55.583333333333336,73.8016531939315L58,72.06305383013651L60.41666666666667,70.23203202042156L62.833333333333336,70.45210985763366L65.25,67.45833125132033L67.66666666666667,64.16736212491097L70.08333333333333,60.65729089430599L72.5,60.481020014046024L74.91666666666667,61.70700269161648L77.33333333333333,56.680770459241316L79.75,56.46441653776586L82.16666666666667,54.70391390815276L84.58333333333334,51.39182703519943L87,51.429352328164796L89.41666666666667,49.94348075856877L91.83333333333333,47.31255128319117L94.25,45.611693689100264L96.66666666666666,45.81420007821214L99.08333333333333,44.780623672118224L101.5,43.019001298977L103.91666666666667,42.451237712058855L106.33333333333333,41.47188536291071L108.75,40.63967295720951L111.16666666666667,38.36017478421422L113.58333333333333,37.79423483843263L116,37.29160612236387L118.41666666666667,39.35452596691255L120.83333333333334,42.14143567515626L123.25,38.90791900328654L125.66666666666667,36.89986082870797L128.08333333333334,35.83091450903737L130.5,38.51887524378776L132.91666666666666,36.95180758548861L135.33333333333334,33.87807508200959L137.75,33.37915662494791L140.16666666666666,32.50906728689898L142.58333333333331,31.33473916537767L145,31.377541148501393L147.41666666666666,31.715771515273673L149.83333333333334,31.809989555369725L152.25,33.374913934116364L154.66666666666666,32.357045005279474L157.08333333333331,31.732727805343757L159.5,33.16549213451796L161.91666666666666,32.01396708595615L164.33333333333334,31.14639146460371L166.75,30.15022440512942L169.16666666666669,29.742772844109965L171.58333333333334,28.764491133921325L174,29.183110050749008L176.41666666666666,29.393517153496305L178.83333333333334,30.769958122733982L181.25,29.965136407541053L183.66666666666666,30.28399456425123L186.08333333333334,29.388185260453668L188.5,28.945824015507696L190.91666666666666,28.897832108104836L193.33333333333331,28.78750070878027L195.75,28.218504017623076L198.16666666666666,28.230427187359567L200.58333333333334,31.675622035071996L203,29.77472398136686L205.41666666666669,29.28645966783799L207.83333333333334,28.36840272592599L210.25,27.736032305896003L212.66666666666666,27.940944160323312L215.08333333333334,27.99594310054664L217.5,27.403844110885984L219.91666666666666,27.714447318233624L222.33333333333334,27.52031965349599L224.75,28.069705655797378L227.16666666666666,27.35297730670385L229.58333333333331,27.792647415690823L232,27.22750660998929L234.41666666666666,26.99714230653487L236.83333333333334,27.280185321141943L239.25,27.02874953322646L241.66666666666669,27.122489064941448L244.08333333333334,26.78464735219032L246.5,27.709838529896786L248.91666666666666,27.762155384958135L251.33333333333334,27.38587198376507L253.75,27.11933769569987L256.1666666666667,27.12248187244225L258.58333333333337,27.205904633370466L261,26.834696693247707L263.4166666666667,26.734272431406225" style="fill: none;" fill="none"></path></g><g><path stroke="rgb(51, 187, 238)" stroke-width="2px" d="M24.166666666666664,178.39732142857142L26.583333333333332,177.15569196428572L29,172.21451348396502L31.416666666666668,167.7521746980042L33.833333333333336,160.7370594577179L36.25,153.1432982967623L38.666666666666664,147.18526356557797L41.083333333333336,143.31490090890733L43.5,139.02788011013152L45.916666666666664,137.28296293345358L48.33333333333333,125.0772816218948L50.75,124.15328620766921L53.166666666666664,116.83688027639927L55.583333333333336,110.06735900136482L58,104.0215013007378L60.41666666666667,107.94704393344973L62.833333333333336,103.94344154107021L65.25,98.36281958548959L67.66666666666667,96.60419173044961L70.08333333333333,101.50912294175481L72.5,92.13473240522475L74.91666666666667,90.4834962807122L77.33333333333333,92.67136504668821L79.75,82.85902253339226L82.16666666666667,83.328807712791L84.58333333333334,80.4321011149939L87,77.8994366482672L89.41666666666667,77.9691263174706L91.83333333333333,71.6537948921287L94.25,70.64584814101788L96.66666666666666,71.63036615805862L99.08333333333333,71.82375542451209L101.5,70.35050318435657L103.91666666666667,67.87726612546707L106.33333333333333,66.79064537088618L108.75,63.357422901405755L111.16666666666667,60.90016801135059L113.58333333333333,58.233850796909806L116,57.826024762951604L118.41666666666667,55.59472199764541L120.83333333333334,56.63986891371124L123.25,54.48570706147581L125.66666666666667,55.57713852291491L128.08333333333334,57.4239616854975L130.5,53.36687701087676L132.91666666666666,54.50851906374014L135.33333333333334,52.01493286672219L137.75,50.518781148571136L140.16666666666666,51.210375832009134L142.58333333333331,48.04943978489419L145,45.75555672806823L147.41666666666666,46.76315546541531L149.83333333333334,45.38110756496101L152.25,46.935807396121106L154.66666666666666,45.48469872338606L157.08333333333331,45.01135494831718L159.5,44.330027254704476L161.91666666666666,44.71587349567989L164.33333333333334,43.35809552597922L166.75,44.5300358870162L169.16666666666669,42.84927153220971L171.58333333333334,45.81402720504016L174,46.003594894452675L176.41666666666666,46.5146569366716L178.83333333333334,42.84807987628864L181.25,41.04545506863033L183.66666666666666,40.361201612606806L186.08333333333334,39.95064953899268L188.5,38.11503258053847L190.91666666666666,38.20562669118024L193.33333333333331,37.46534030042244L195.75,37.81581132311061L198.16666666666666,37.62877250815208L200.58333333333334,41.09244207631983L203,38.80010810293476L205.41666666666669,42.58988629033229L207.83333333333334,40.4932174884851L210.25,39.235216207376794L212.66666666666666,38.08309401014034L215.08333333333334,38.981106406084194L217.5,36.73866384365053L219.91666666666666,35.790519734761716L222.33333333333334,34.42699041228562L224.75,35.19815853308566L227.16666666666666,37.250145119851425L229.58333333333331,37.68669421476801L232,38.34594510028941L234.41666666666666,37.152209917316526L236.83333333333334,36.833290236104204L239.25,38.23122414166255L241.66666666666669,36.28873448499752L244.08333333333334,35.1232406909985L246.5,34.82126584317052L248.91666666666666,35.832045220188036L251.33333333333334,36.83583427496998L253.75,38.63007199355346L256.1666666666667,35.3360789104178L258.58333333333337,34.55164734625069L261,34.47830983632187L263.4166666666667,34.036985901793145" style="fill: none;" fill="none"></path></g></g></g></g><g opacity="0.2"><g><g><g><path stroke="rgb(238, 51, 119)" stroke-width="2px" d="M24.166666666666664,167.26462914603098L26.583333333333332,141.81907261439733L29,125.71601148332869L31.416666666666668,119.94063993181501L33.833333333333336,112.94226335797991L36.25,105.97786669049944L38.666666666666664,95.24248613630022L41.083333333333336,94.0874021257673L43.5,85.42437874930245L45.916666666666664,83.69176243373326L48.33333333333333,78.42599247523717L50.75,72.54872000558036L53.166666666666664,71.2917253766741L55.583333333333336,69.35526842389788L58,69.45719844273158L60.41666666666667,67.48679068429131L62.833333333333336,70.78213348388672L65.25,62.96842346191406L67.66666666666667,59.231409781319755L70.08333333333333,55.3925048828125L72.5,60.216623360770086L74.91666666666667,63.54593636648997L77.33333333333333,49.14152134486608L79.75,56.139888218470986L82.16666666666667,52.06317247663226L84.58333333333334,46.42371085030692L87,51.48564017159599L89.41666666666667,47.714675685337625L91.83333333333333,43.366159493582586L94.25,43.060408238002225L96.66666666666666,46.11795959472656L99.08333333333333,43.23025926862445L101.5,40.376567949567516L103.91666666666667,41.59959237234932L106.33333333333333,40.00285688127789L108.75,39.39135437011717L111.16666666666667,34.940927559988836L113.58333333333333,36.94532492501395L116,36.537663051060264L118.41666666666667,42.44890572684153L120.83333333333334,46.321800231933594L123.25,34.0576439993722L125.66666666666667,33.88777356828962L128.08333333333334,34.22749502999443L130.5,42.55081634521483L132.91666666666666,34.601206098284024L135.33333333333334,29.267476327078697L137.75,32.63077893938336L140.16666666666666,31.20393327985491L142.58333333333331,29.573246983119418L145,31.441744123186368L147.41666666666666,32.223117065429705L149.83333333333334,31.951316615513406L152.25,35.722300502232144L154.66666666666666,30.830241612025674L157.08333333333331,30.796252005440834L159.5,35.31463862827846L161.91666666666666,30.286679513113853L164.33333333333334,29.84502803257533L166.75,28.655973815917974L169.16666666666669,29.13159550258092L171.58333333333334,27.297068568638394L174,29.811038425990517L176.41666666666666,29.709127807617193L178.83333333333334,32.8346195765904L181.25,28.757903834751687L183.66666666666666,30.762281799316412L186.08333333333334,28.044471304757252L188.5,28.28228214808871L190.91666666666666,28.82584424700056L193.33333333333331,28.622003609793524L195.75,27.365008980887268L198.16666666666666,28.24831194196429L200.58333333333334,36.843414306640625L203,26.92337690080916L205.41666666666669,28.55406319754465L207.83333333333334,26.991317313058033L210.25,26.787476675850996L212.66666666666666,28.24831194196429L215.08333333333334,28.078441510881703L217.5,26.515695626395086L219.91666666666666,28.180352129255027L222.33333333333334,27.229128156389493L224.75,28.893784659249434L227.16666666666666,26.277884783063627L229.58333333333331,28.452152579171326L232,26.37979540143695L234.41666666666666,26.65159585135325L236.83333333333334,27.70474984305247L239.25,26.65159585135325L241.66666666666669,27.263098362513944L244.08333333333334,26.277884783063627L246.5,29.09762529645647L248.91666666666666,27.840630667550215L251.33333333333334,26.821446881975447L253.75,26.719536263602123L256.1666666666667,27.12719813755581L258.58333333333337,27.331038774762845L261,26.277884783063627L263.4166666666667,26.58363603864396" style="fill: none;" fill="none"></path></g><g><path stroke="rgb(51, 187, 238)" stroke-width="2px" d="M24.166666666666664,178.39732142857142L26.583333333333332,176.41071428571428L29,167.47098214285714L31.416666666666668,162.50446428571428L33.833333333333336,151.578125L36.25,142.63839285714286L38.666666666666664,138.66517857142856L41.083333333333336,137.671875L43.5,132.70535714285714L45.916666666666664,134.69196428571428L48.33333333333333,106.87946428571428L50.75,122.77232142857143L53.166666666666664,105.88616071428572L55.583333333333336,99.92633928571428L58,94.95982142857143L60.41666666666667,113.83258928571428L62.833333333333336,97.93973214285714L65.25,89.99330357142857L67.66666666666667,93.96651785714286L70.08333333333333,108.86607142857143L72.5,78.07366071428571L74.91666666666667,88.00669642857143L77.33333333333333,95.953125L79.75,68.140625L82.16666666666667,84.03348214285714L84.58333333333334,76.08705357142857L87,74.10044642857143L89.41666666666667,78.07366071428571L91.83333333333333,62.18080357142857L94.25,69.13392857142857L96.66666666666666,73.10714285714286L99.08333333333333,72.11383928571429L101.5,68.140625L103.91666666666667,64.16741071428571L106.33333333333333,65.16071428571429L108.75,58.20758928571429L111.16666666666667,57.21428571428571L113.58333333333333,54.234375L116,57.21428571428571L118.41666666666667,52.24776785714286L120.83333333333334,58.20758928571429L123.25,51.25446428571429L125.66666666666667,57.21428571428571L128.08333333333334,60.19419642857143L130.5,47.28125L132.91666666666666,56.22098214285714L135.33333333333334,48.274553571428555L137.75,48.274553571428555L140.16666666666666,52.24776785714286L142.58333333333331,43.30803571428572L145,42.31473214285714L147.41666666666666,48.274553571428555L149.83333333333334,43.30803571428572L152.25,49.26785714285714L154.66666666666666,43.30803571428572L157.08333333333331,44.30133928571428L159.5,43.30803571428572L161.91666666666666,45.29464285714286L164.33333333333334,41.321428571428555L166.75,46.287946428571445L169.16666666666669,40.328125L171.58333333333334,50.26116071428571L174,46.287946428571445L176.41666666666666,47.28125L178.83333333333334,37.34821428571428L181.25,38.34151785714286L183.66666666666666,39.334821428571445L186.08333333333334,39.334821428571445L188.5,35.36160714285714L190.91666666666666,38.34151785714286L193.33333333333331,36.35491071428572L195.75,38.34151785714286L198.16666666666666,37.34821428571428L200.58333333333334,46.287946428571445L203,35.36160714285714L205.41666666666669,48.274553571428555L207.83333333333334,37.34821428571428L210.25,37.34821428571428L212.66666666666666,36.35491071428572L215.08333333333334,40.328125L217.5,33.375L219.91666666666666,34.368303571428555L222.33333333333334,32.381696428571445L224.75,36.35491071428572L227.16666666666666,40.328125L229.58333333333331,38.34151785714286L232,39.334821428571445L234.41666666666666,35.36160714285714L236.83333333333334,36.35491071428572L239.25,40.328125L241.66666666666669,33.375L244.08333333333334,33.375L246.5,34.368303571428555L248.91666666666666,37.34821428571428L251.33333333333334,38.34151785714286L253.75,41.321428571428555L256.1666666666667,30.395089285714278L258.58333333333337,33.375L261,34.368303571428555L263.4166666666667,33.375" style="fill: none;" fill="none"></path></g></g></g></g></g></g><g transform="translate(40, 178)" clip-path="url(#clip_1)"><clipPath id="clip_1"><rect width="290" height="21"></rect></clipPath><g><g><line x1="0" y1="0" x2="0" y2="5" style="visibility: inherit;" fill="rgb(0, 0, 0)" stroke="rgb(204, 204, 204)" stroke-width="1px"></line><line x1="24.166666666666664" y1="0" x2="24.166666666666664" y2="5" style="visibility: inherit;" fill="rgb(0, 0, 0)" stroke="rgb(204, 204, 204)" stroke-width="1px"></line><line x1="48.33333333333333" y1="0" x2="48.33333333333333" y2="5" style="visibility: inherit;" fill="rgb(0, 0, 0)" stroke="rgb(204, 204, 204)" stroke-width="1px"></line><line x1="72.5" y1="0" x2="72.5" y2="5" style="visibility: inherit;" fill="rgb(0, 0, 0)" stroke="rgb(204, 204, 204)" stroke-width="1px"></line><line x1="96.66666666666666" y1="0" x2="96.66666666666666" y2="5" style="visibility: inherit;" fill="rgb(0, 0, 0)" stroke="rgb(204, 204, 204)" stroke-width="1px"></line><line x1="120.83333333333334" y1="0" x2="120.83333333333334" y2="5" style="visibility: inherit;" fill="rgb(0, 0, 0)" stroke="rgb(204, 204, 204)" stroke-width="1px"></line><line x1="145" y1="0" x2="145" y2="5" style="visibility: inherit;" fill="rgb(0, 0, 0)" stroke="rgb(204, 204, 204)" stroke-width="1px"></line><line x1="169.16666666666669" y1="0" x2="169.16666666666669" y2="5" style="visibility: inherit;" fill="rgb(0, 0, 0)" stroke="rgb(204, 204, 204)" stroke-width="1px"></line><line x1="193.33333333333331" y1="0" x2="193.33333333333331" y2="5" style="visibility: inherit;" fill="rgb(0, 0, 0)" stroke="rgb(204, 204, 204)" stroke-width="1px"></line><line x1="217.5" y1="0" x2="217.5" y2="5" style="visibility: inherit;" fill="rgb(0, 0, 0)" stroke="rgb(204, 204, 204)" stroke-width="1px"></line><line x1="241.66666666666669" y1="0" x2="241.66666666666669" y2="5" style="visibility: inherit;" fill="rgb(0, 0, 0)" stroke="rgb(204, 204, 204)" stroke-width="1px"></line><line x1="265.8333333333333" y1="0" x2="265.8333333333333" y2="5" style="visibility: inherit;" fill="rgb(0, 0, 0)" stroke="rgb(204, 204, 204)" stroke-width="1px"></line><line x1="290" y1="0" x2="290" y2="5" style="visibility: inherit;" fill="rgb(0, 0, 0)" stroke="rgb(204, 204, 204)" stroke-width="1px"></line></g><g transform="translate(0, 8)"><text x="0" y="0" dx="0em" dy="0.95em" style="text-anchor: middle; visibility: hidden; font-family: &quot;Helvetica Neue&quot;, sans-serif; font-size: 12px; font-weight: 200;" fill="rgb(50, 49, 63)" stroke="none" stroke-width="1px">-10</text><text x="24.166666666666664" y="0" dx="0em" dy="0.95em" style="text-anchor: middle; visibility: inherit; font-family: &quot;Helvetica Neue&quot;, sans-serif; font-size: 12px; font-weight: 200;" fill="rgb(50, 49, 63)" stroke="none" stroke-width="1px">0</text><text x="48.33333333333333" y="0" dx="0em" dy="0.95em" style="text-anchor: middle; visibility: inherit; font-family: &quot;Helvetica Neue&quot;, sans-serif; font-size: 12px; font-weight: 200;" fill="rgb(50, 49, 63)" stroke="none" stroke-width="1px">10</text><text x="72.5" y="0" dx="0em" dy="0.95em" style="text-anchor: middle; visibility: inherit; font-family: &quot;Helvetica Neue&quot;, sans-serif; font-size: 12px; font-weight: 200;" fill="rgb(50, 49, 63)" stroke="none" stroke-width="1px">20</text><text x="96.66666666666666" y="0" dx="0em" dy="0.95em" style="text-anchor: middle; visibility: inherit; font-family: &quot;Helvetica Neue&quot;, sans-serif; font-size: 12px; font-weight: 200;" fill="rgb(50, 49, 63)" stroke="none" stroke-width="1px">30</text><text x="120.83333333333334" y="0" dx="0em" dy="0.95em" style="text-anchor: middle; visibility: inherit; font-family: &quot;Helvetica Neue&quot;, sans-serif; font-size: 12px; font-weight: 200;" fill="rgb(50, 49, 63)" stroke="none" stroke-width="1px">40</text><text x="145" y="0" dx="0em" dy="0.95em" style="text-anchor: middle; visibility: inherit; font-family: &quot;Helvetica Neue&quot;, sans-serif; font-size: 12px; font-weight: 200;" fill="rgb(50, 49, 63)" stroke="none" stroke-width="1px">50</text><text x="169.16666666666669" y="0" dx="0em" dy="0.95em" style="text-anchor: middle; visibility: inherit; font-family: &quot;Helvetica Neue&quot;, sans-serif; font-size: 12px; font-weight: 200;" fill="rgb(50, 49, 63)" stroke="none" stroke-width="1px">60</text><text x="193.33333333333331" y="0" dx="0em" dy="0.95em" style="text-anchor: middle; visibility: inherit; font-family: &quot;Helvetica Neue&quot;, sans-serif; font-size: 12px; font-weight: 200;" fill="rgb(50, 49, 63)" stroke="none" stroke-width="1px">70</text><text x="217.5" y="0" dx="0em" dy="0.95em" style="text-anchor: middle; visibility: inherit; font-family: &quot;Helvetica Neue&quot;, sans-serif; font-size: 12px; font-weight: 200;" fill="rgb(50, 49, 63)" stroke="none" stroke-width="1px">80</text><text x="241.66666666666669" y="0" dx="0em" dy="0.95em" style="text-anchor: middle; visibility: inherit; font-family: &quot;Helvetica Neue&quot;, sans-serif; font-size: 12px; font-weight: 200;" fill="rgb(50, 49, 63)" stroke="none" stroke-width="1px">90</text><text x="265.8333333333333" y="0" dx="0em" dy="0.95em" style="text-anchor: middle; visibility: inherit; font-family: &quot;Helvetica Neue&quot;, sans-serif; font-size: 12px; font-weight: 200;" fill="rgb(50, 49, 63)" stroke="none" stroke-width="1px">100</text><text x="290" y="0" dx="0em" dy="0.95em" style="text-anchor: middle; visibility: hidden; font-family: &quot;Helvetica Neue&quot;, sans-serif; font-size: 12px; font-weight: 200;" fill="rgb(50, 49, 63)" stroke="none" stroke-width="1px">110</text></g><line x1="0" y1="0" x2="290" y2="0" fill="rgb(0, 0, 0)" stroke="rgb(204, 204, 204)" stroke-width="1px"></line></g></g></g></g></svg>