<svg viewBox="0 0 330.0000305175781 200.00001525878906" xmlns="http://www.w3.org/2000/svg"><g><g><g><g><g><line x1="40" y1="178" x2="35" y2="178" style="visibility: inherit;" fill="rgb(0, 0, 0)" stroke="rgb(204, 204, 204)" stroke-width="1px"></line><line x1="40" y1="165.28571428571428" x2="35" y2="165.28571428571428" style="visibility: inherit;" fill="rgb(0, 0, 0)" stroke="rgb(204, 204, 204)" stroke-width="1px"></line><line x1="40" y1="152.57142857142858" x2="35" y2="152.57142857142858" style="visibility: inherit;" fill="rgb(0, 0, 0)" stroke="rgb(204, 204, 204)" stroke-width="1px"></line><line x1="40" y1="139.85714285714286" x2="35" y2="139.85714285714286" style="visibility: inherit;" fill="rgb(0, 0, 0)" stroke="rgb(204, 204, 204)" stroke-width="1px"></line><line x1="40" y1="127.14285714285714" x2="35" y2="127.14285714285714" style="visibility: inherit;" fill="rgb(0, 0, 0)" stroke="rgb(204, 204, 204)" stroke-width="1px"></line><line x1="40" y1="114.42857142857143" x2="35" y2="114.42857142857143" style="visibility: inherit;" fill="rgb(0, 0, 0)" stroke="rgb(204, 204, 204)" stroke-width="1px"></line><line x1="40" y1="101.71428571428572" x2="35" y2="101.71428571428572" style="visibility: inherit;" fill="rgb(0, 0, 0)" stroke="rgb(204, 204, 204)" stroke-width="1px"></line><line x1="40" y1="89" x2="35" y2="89" style="visibility: inherit;" fill="rgb(0, 0, 0)" stroke="rgb(204, 204, 204)" stroke-width="1px"></line><line x1="40" y1="76.28571428571429" x2="35" y2="76.28571428571429" style="visibility: inherit;" fill="rgb(0, 0, 0)" stroke="rgb(204, 204, 204)" stroke-width="1px"></line><line x1="40" y1="63.57142857142857" x2="35" y2="63.57142857142857" style="visibility: inherit;" fill="rgb(0, 0, 0)" stroke="rgb(204, 204, 204)" stroke-width="1px"></line><line x1="40" y1="50.85714285714286" x2="35" y2="50.85714285714286" style="visibility: inherit;" fill="rgb(0, 0, 0)" stroke="rgb(204, 204, 204)" stroke-width="1px"></line><line x1="40" y1="38.14285714285714" x2="35" y2="38.14285714285714" style="visibility: inherit;" fill="rgb(0, 0, 0)" stroke="rgb(204, 204, 204)" stroke-width="1px"></line><line x1="40" y1="25.428571428571445" x2="35" y2="25.428571428571445" style="visibility: inherit;" fill="rgb(0, 0, 0)" stroke="rgb(204, 204, 204)" stroke-width="1px"></line><line x1="40" y1="12.714285714285722" x2="35" y2="12.714285714285722" style="visibility: inherit;" fill="rgb(0, 0, 0)" stroke="rgb(204, 204, 204)" stroke-width="1px"></line><line x1="40" y1="0" x2="35" y2="0" style="visibility: inherit;" fill="rgb(0, 0, 0)" stroke="rgb(204, 204, 204)" stroke-width="1px"></line></g><g transform="translate(30, 0)"><text x="0" y="178" dx="0em" dy="0.3em" style="text-anchor: end; visibility: hidden; font-family: &quot;Helvetica Neue&quot;, sans-serif; font-size: 12px; font-weight: 200;" fill="rgb(50, 49, 63)" stroke="none" stroke-width="1px">40</text><text x="0" y="165.28571428571428" dx="0em" dy="0.3em" style="text-anchor: end; visibility: inherit; font-family: &quot;Helvetica Neue&quot;, sans-serif; font-size: 12px; font-weight: 200;" fill="rgb(50, 49, 63)" stroke="none" stroke-width="1px">45</text><text x="0" y="152.57142857142858" dx="0em" dy="0.3em" style="text-anchor: end; visibility: hidden; font-family: &quot;Helvetica Neue&quot;, sans-serif; font-size: 12px; font-weight: 200;" fill="rgb(50, 49, 63)" stroke="none" stroke-width="1px">50</text><text x="0" y="139.85714285714286" dx="0em" dy="0.3em" style="text-anchor: end; visibility: inherit; font-family: &quot;Helvetica Neue&quot;, sans-serif; font-size: 12px; font-weight: 200;" fill="rgb(50, 49, 63)" stroke="none" stroke-width="1px">55</text><text x="0" y="127.14285714285714" dx="0em" dy="0.3em" style="text-anchor: end; visibility: hidden; font-family: &quot;Helvetica Neue&quot;, sans-serif; font-size: 12px; font-weight: 200;" fill="rgb(50, 49, 63)" stroke="none" stroke-width="1px">60</text><text x="0" y="114.42857142857143" dx="0em" dy="0.3em" style="text-anchor: end; visibility: inherit; font-family: &quot;Helvetica Neue&quot;, sans-serif; font-size: 12px; font-weight: 200;" fill="rgb(50, 49, 63)" stroke="none" stroke-width="1px">65</text><text x="0" y="101.71428571428572" dx="0em" dy="0.3em" style="text-anchor: end; visibility: hidden; font-family: &quot;Helvetica Neue&quot;, sans-serif; font-size: 12px; font-weight: 200;" fill="rgb(50, 49, 63)" stroke="none" stroke-width="1px">70</text><text x="0" y="89" dx="0em" dy="0.3em" style="text-anchor: end; visibility: inherit; font-family: &quot;Helvetica Neue&quot;, sans-serif; font-size: 12px; font-weight: 200;" fill="rgb(50, 49, 63)" stroke="none" stroke-width="1px">75</text><text x="0" y="76.28571428571429" dx="0em" dy="0.3em" style="text-anchor: end; visibility: hidden; font-family: &quot;Helvetica Neue&quot;, sans-serif; font-size: 12px; font-weight: 200;" fill="rgb(50, 49, 63)" stroke="none" stroke-width="1px">80</text><text x="0" y="63.57142857142857" dx="0em" dy="0.3em" style="text-anchor: end; visibility: inherit; font-family: &quot;Helvetica Neue&quot;, sans-serif; font-size: 12px; font-weight: 200;" fill="rgb(50, 49, 63)" stroke="none" stroke-width="1px">85</text><text x="0" y="50.85714285714286" dx="0em" dy="0.3em" style="text-anchor: end; visibility: hidden; font-family: &quot;Helvetica Neue&quot;, sans-serif; font-size: 12px; font-weight: 200;" fill="rgb(50, 49, 63)" stroke="none" stroke-width="1px">90</text><text x="0" y="38.14285714285714" dx="0em" dy="0.3em" style="text-anchor: end; visibility: inherit; font-family: &quot;Helvetica Neue&quot;, sans-serif; font-size: 12px; font-weight: 200;" fill="rgb(50, 49, 63)" stroke="none" stroke-width="1px">95</text><text x="0" y="25.428571428571445" dx="0em" dy="0.3em" style="text-anchor: end; visibility: hidden; font-family: &quot;Helvetica Neue&quot;, sans-serif; font-size: 12px; font-weight: 200;" fill="rgb(50, 49, 63)" stroke="none" stroke-width="1px">100</text><text x="0" y="12.714285714285722" dx="0em" dy="0.3em" style="text-anchor: end; visibility: inherit; font-family: &quot;Helvetica Neue&quot;, sans-serif; font-size: 12px; font-weight: 200;" fill="rgb(50, 49, 63)" stroke="none" stroke-width="1px">105</text><text x="0" y="0" dx="0em" dy="0.3em" style="text-anchor: end; visibility: hidden; font-family: &quot;Helvetica Neue&quot;, sans-serif; font-size: 12px; font-weight: 200;" fill="rgb(50, 49, 63)" stroke="none" stroke-width="1px">110</text></g><line x1="40" y1="0" x2="40" y2="178" fill="rgb(0, 0, 0)" stroke="rgb(204, 204, 204)" stroke-width="1px"></line></g></g><g transform="translate(40, 0)" clip-path="url(#clip_0)"><clipPath id="clip_0"><rect width="290" height="177"></rect></clipPath><g><g><g><line x1="0" y1="0" x2="0" y2="178" fill="rgb(0, 0, 0)" stroke="rgb(60, 60, 60)" stroke-width="1px" opacity="0.25"></line><line x1="24.166666666666664" y1="0" x2="24.166666666666664" y2="178" fill="rgb(0, 0, 0)" stroke="rgb(60, 60, 60)" stroke-width="1px" opacity="0.25"></line><line x1="48.33333333333333" y1="0" x2="48.33333333333333" y2="178" fill="rgb(0, 0, 0)" stroke="rgb(60, 60, 60)" stroke-width="1px" opacity="0.25"></line><line x1="72.5" y1="0" x2="72.5" y2="178" fill="rgb(0, 0, 0)" stroke="rgb(60, 60, 60)" stroke-width="1px" opacity="0.25"></line><line x1="96.66666666666666" y1="0" x2="96.66666666666666" y2="178" fill="rgb(0, 0, 0)" stroke="rgb(60, 60, 60)" stroke-width="1px" opacity="0.25"></line><line x1="120.83333333333334" y1="0" x2="120.83333333333334" y2="178" fill="rgb(0, 0, 0)" stroke="rgb(60, 60, 60)" stroke-width="1px" opacity="0.25"></line><line x1="145" y1="0" x2="145" y2="178" fill="rgb(0, 0, 0)" stroke="rgb(60, 60, 60)" stroke-width="1px" opacity="0.25"></line><line x1="169.16666666666669" y1="0" x2="169.16666666666669" y2="178" fill="rgb(0, 0, 0)" stroke="rgb(60, 60, 60)" stroke-width="1px" opacity="0.25"></line><line x1="193.33333333333331" y1="0" x2="193.33333333333331" y2="178" fill="rgb(0, 0, 0)" stroke="rgb(60, 60, 60)" stroke-width="1px" opacity="0.25"></line><line x1="217.5" y1="0" x2="217.5" y2="178" fill="rgb(0, 0, 0)" stroke="rgb(60, 60, 60)" stroke-width="1px" opacity="0.25"></line><line x1="241.66666666666669" y1="0" x2="241.66666666666669" y2="178" fill="rgb(0, 0, 0)" stroke="rgb(60, 60, 60)" stroke-width="1px" opacity="0.25"></line><line x1="265.8333333333333" y1="0" x2="265.8333333333333" y2="178" fill="rgb(0, 0, 0)" stroke="rgb(60, 60, 60)" stroke-width="1px" opacity="0.25"></line><line x1="290" y1="0" x2="290" y2="178" fill="rgb(0, 0, 0)" stroke="rgb(60, 60, 60)" stroke-width="1px" opacity="0.25"></line></g><g><line x1="0" y1="178" x2="290" y2="178" fill="rgb(0, 0, 0)" stroke="rgb(60, 60, 60)" stroke-width="1px" opacity="0.25"></line><line x1="0" y1="165.28571428571428" x2="290" y2="165.28571428571428" fill="rgb(0, 0, 0)" stroke="rgb(60, 60, 60)" stroke-width="1px" opacity="0.25"></line><line x1="0" y1="152.57142857142858" x2="290" y2="152.57142857142858" fill="rgb(0, 0, 0)" stroke="rgb(60, 60, 60)" stroke-width="1px" opacity="0.25"></line><line x1="0" y1="139.85714285714286" x2="290" y2="139.85714285714286" fill="rgb(0, 0, 0)" stroke="rgb(60, 60, 60)" stroke-width="1px" opacity="0.25"></line><line x1="0" y1="127.14285714285714" x2="290" y2="127.14285714285714" fill="rgb(0, 0, 0)" stroke="rgb(60, 60, 60)" stroke-width="1px" opacity="0.25"></line><line x1="0" y1="114.42857142857143" x2="290" y2="114.42857142857143" fill="rgb(0, 0, 0)" stroke="rgb(60, 60, 60)" stroke-width="1px" opacity="0.25"></line><line x1="0" y1="101.71428571428572" x2="290" y2="101.71428571428572" fill="rgb(0, 0, 0)" stroke="rgb(60, 60, 60)" stroke-width="1px" opacity="0.25"></line><line x1="0" y1="89" x2="290" y2="89" fill="rgb(0, 0, 0)" stroke="rgb(60, 60, 60)" stroke-width="1px" opacity="0.25"></line><line x1="0" y1="76.28571428571429" x2="290" y2="76.28571428571429" fill="rgb(0, 0, 0)" stroke="rgb(60, 60, 60)" stroke-width="1px" opacity="0.25"></line><line x1="0" y1="63.57142857142857" x2="290" y2="63.57142857142857" fill="rgb(0, 0, 0)" stroke="rgb(60, 60, 60)" stroke-width="1px" opacity="0.25"></line><line x1="0" y1="50.85714285714286" x2="290" y2="50.85714285714286" fill="rgb(0, 0, 0)" stroke="rgb(60, 60, 60)" stroke-width="1px" opacity="0.25"></line><line x1="0" y1="38.14285714285714" x2="290" y2="38.14285714285714" fill="rgb(0, 0, 0)" stroke="rgb(60, 60, 60)" stroke-width="1px" opacity="0.25"></line><line x1="0" y1="25.428571428571445" x2="290" y2="25.428571428571445" fill="rgb(0, 0, 0)" stroke="rgb(60, 60, 60)" stroke-width="1px" opacity="0.25"></line><line x1="0" y1="12.714285714285722" x2="290" y2="12.714285714285722" fill="rgb(0, 0, 0)" stroke="rgb(60, 60, 60)" stroke-width="1px" opacity="0.25"></line><line x1="0" y1="0" x2="290" y2="0" fill="rgb(0, 0, 0)" stroke="rgb(60, 60, 60)" stroke-width="1px" opacity="0.25"></line></g></g></g><g><g><line x1="0" y1="279.7142857142857" x2="290" y2="279.7142857142857" fill="rgb(0, 0, 0)" stroke="rgb(153, 153, 153)" stroke-width="1.5px"></line></g></g><g><g><line x1="24.166666666666664" y1="0" x2="24.166666666666664" y2="178" fill="rgb(0, 0, 0)" stroke="rgb(153, 153, 153)" stroke-width="1.5px"></line></g></g><g><g><g><g><g><path stroke="rgb(0, 153, 136)" stroke-width="2px" d="M24.166666666666664,176.3986957005092L26.583333333333332,162.87239765439716L29,148.4390174732264L31.416666666666668,139.43627508267636L33.833333333333336,132.6909691030896L36.25,124.85907704426646L38.666666666666664,118.3862225634425L41.083333333333336,112.87089531484888L43.5,108.5478957872155L45.916666666666664,106.44646128653686L48.33333333333333,107.00441902281486L50.75,100.18988832490989L53.166666666666664,98.61730756212698L55.583333333333336,92.58047132590465L58,90.19267295830282L60.41666666666667,87.2358952109563L62.833333333333336,82.51098306688652L65.25,82.09623260230029L67.66666666666667,80.22502840463835L70.08333333333333,75.55001692820072L72.5,70.35359550410045L74.91666666666667,67.45958346181769L77.33333333333333,65.33161087020173L79.75,74.33400342414663L82.16666666666667,68.53324357754856L84.58333333333334,63.4165295639973L87,62.58413485171266L89.41666666666667,61.70710329725223L91.83333333333333,56.55177795341953L94.25,53.58445417757726L96.66666666666666,53.81792926882132L99.08333333333333,52.699343374891086L101.5,50.16816878771564L103.91666666666667,49.57248372277775L106.33333333333333,54.40357846892081L108.75,50.799123275340904L111.16666666666667,47.92320389299795L113.58333333333333,46.61720663270722L116,44.70080763537149L118.41666666666667,45.704683190963294L120.83333333333334,44.46096159466302L123.25,42.679830478541135L125.66666666666667,43.40125556969906L128.08333333333334,43.02296961547043L130.5,40.46046973985855L132.91666666666666,37.496477243423385L135.33333333333334,37.564128673065454L137.75,35.45100458241902L140.16666666666666,34.616668336075236L142.58333333333331,36.983027822255735L145,40.30483360882718L147.41666666666666,37.83664153317412L149.83333333333334,35.43270670421947L152.25,34.49381103424949L154.66666666666666,34.29408482088439L157.08333333333331,34.495908725957065L159.5,35.60995743214258L161.91666666666666,33.439385365395765L164.33333333333334,33.04608561725641L166.75,32.418519115889495L169.16666666666669,31.49655467196115L171.58333333333334,31.251051786854134L174,30.712163403306647L176.41666666666666,30.62657913503645L178.83333333333334,30.29552825669157L181.25,30.418557362776056L183.66666666666666,30.296577620093075L186.08333333333334,30.74083885372437L188.5,31.398982246386396L190.91666666666666,33.5560043380662L193.33333333333331,35.213828781690125L195.75,37.07560762406436L198.16666666666666,38.98983208629684L200.58333333333334,36.16657259162187L203,34.33276285603338L205.41666666666669,32.99472825282206L207.83333333333334,32.12198047150352L210.25,31.556380247187803L212.66666666666666,30.96528749889862L215.08333333333334,30.904316019149462L217.5,29.41328061665152L219.91666666666666,31.427572164633744L222.33333333333334,30.8880026493662L224.75,29.72515222787308L227.16666666666666,30.34204045084215L229.58333333333331,28.75425564257563L232,29.521761497989587L234.41666666666666,32.779299225802674L236.83333333333334,30.46834352125171L239.25,36.78760968069187L241.66666666666669,33.153030111568L244.08333333333334,30.860396034993244L246.5,28.813536379366468L248.91666666666666,29.557329940064108L251.33333333333334,29.206448919674642L253.75,28.786147009449905L256.1666666666667,28.617876734548247L258.58333333333337,28.96443662945663L261,29.36816201255121L263.4166666666667,28.645426103317533" style="fill: none;" fill="none"></path></g><g><path stroke="rgb(238, 51, 119)" stroke-width="2px" d="M31.416666666666668,180.78198037027312L33.833333333333336,167.25384777436307L36.25,158.1760986290663L38.666666666666664,158.32225049429422L41.083333333333336,152.345644843233L43.5,143.2054534066891L45.916666666666664,138.58012588579126L48.33333333333333,135.02535750788064L50.75,131.70620371509608L53.166666666666664,126.13877220568912L55.583333333333336,120.01953946639969L58,125.09625353170718L60.41666666666667,122.17925062901683L62.833333333333336,114.07135655322031L65.25,108.41277496091661L67.66666666666667,106.21003075018601L70.08333333333333,105.68314204336853L72.5,99.00973883190424L74.91666666666667,92.62183064897809L77.33333333333333,91.57041151458361L79.75,92.5288585930951L82.16666666666667,89.13069835193247L84.58333333333334,91.46235155996241L87,90.08008809267265L89.41666666666667,82.49626248413435L91.83333333333333,77.94597009960998L94.25,79.18901090599847L96.66666666666666,75.56429891994436L99.08333333333333,73.78679349621527L101.5,69.93904019970566L103.91666666666667,68.82235265925758L106.33333333333333,71.72823307408014L108.75,65.92265407028117L111.16666666666667,63.631270999416685L113.58333333333333,60.66715544578652L116,60.875293267935646L118.41666666666667,64.1787473937487L120.83333333333334,64.96885557974007L123.25,67.42952763474248L125.66666666666667,64.13807372275224L128.08333333333334,63.355165662087146L130.5,58.51488511103487L132.91666666666666,56.40535963791798L135.33333333333334,55.139644354131974L137.75,50.407000898087205L140.16666666666666,49.951343395989085L142.58333333333331,52.856520323331196L145,54.59962647972145L147.41666666666666,53.26156160211467L149.83333333333334,56.431936961274346L152.25,50.78505503390156L154.66666666666666,50.1781758774834L157.08333333333331,51.00601266934751L159.5,50.70807188732273L161.91666666666666,47.74805741810752L164.33333333333334,45.9720487365787L166.75,44.11180067051856L169.16666666666669,45.77690183088262L171.58333333333334,43.20006966995814L174,46.02450608768922L176.41666666666666,45.73256079547065L178.83333333333334,45.160072191568105L181.25,41.638007600655186L183.66666666666666,42.30601884610738L186.08333333333334,44.69343273623588L188.5,44.53659535602725L190.91666666666666,45.2371357850449L193.33333333333331,45.65746004245551L195.75,43.52572602547329L198.16666666666666,49.00114990099826L200.58333333333334,45.92926136917043L203,44.88077110721656L205.41666666666669,45.44364123575849L207.83333333333334,43.79475617002652L210.25,41.216139416301644L212.66666666666666,40.46361222120953L215.08333333333334,44.779953047011446L217.5,44.19118611392116L219.91666666666666,40.65935452549553L222.33333333333334,40.129541286725896L224.75,40.20897477203553L227.16666666666666,35.091456291792724L229.58333333333331,38.378088060789935L232,39.952745693616805L234.41666666666666,38.5136117018844L236.83333333333334,38.04745273541633L239.25,35.78115021267837L241.66666666666669,37.59994012760703L244.08333333333334,39.08853550513567L246.5,40.37901416022427L248.91666666666666,37.57740849613458L251.33333333333334,37.48573081196645L253.75,38.22536705860844L256.1666666666667,37.07986309230793L258.58333333333337,36.78988214109907L261,39.79446499894513L263.4166666666667,39.61060757079565" style="fill: none;" fill="none"></path></g></g></g></g><g opacity="0.2"><g><g><g><path stroke="rgb(0, 153, 136)" stroke-width="2px" d="M24.166666666666664,176.3986957005092L26.583333333333332,154.75661882672992L29,134.58297249930246L31.416666666666668,128.8490500313895L33.833333333333336,123.88429761614118L36.25,114.02475084577287L38.666666666666664,109.12993709019253L41.083333333333336,104.82949523925781L43.5,102.17231118338448L45.916666666666664,103.32607596261161L48.33333333333333,107.83629499162947L50.75,90.0051766531808L53.166666666666664,96.26357116699218L55.583333333333336,83.53704376220703L58,86.61378217424665L60.41666666666667,82.80281393868583L62.833333333333336,75.4256142752511L65.25,81.47421221051897L67.66666666666667,77.4185071672712L70.08333333333333,68.53792702811104L72.5,62.55924835205079L74.91666666666667,63.11866062709264L77.33333333333333,62.1396939958845L79.75,87.83748561314174L82.16666666666667,59.83214503696986L84.58333333333334,55.7414803641183L87,61.3355449131557L89.41666666666667,60.39155731201171L91.83333333333333,48.818794686453685L94.25,49.13347015380859L96.66666666666666,54.16814182826451L99.08333333333333,51.021464756556924L101.5,46.37140720912387L103.91666666666667,48.678956168038496L106.33333333333333,61.6502203805106L108.75,45.39244057791575L111.16666666666667,43.6093248639788L113.58333333333333,44.65821075439453L116,41.82620915004185L118.41666666666667,47.21049652099609L120.83333333333334,42.59537920270648L123.25,40.00813380650112L125.66666666666667,44.48339320591518L128.08333333333334,42.45554068429129L130.5,36.6167199271066L132.91666666666666,33.0504884992327L135.33333333333334,37.665605817522305L137.75,32.28131844656809L140.16666666666666,33.3651639665876L142.58333333333331,40.53256705147879L145,45.28754228864398L147.41666666666666,34.134353419712625L149.83333333333334,31.826804460798L152.25,33.08546752929689L154.66666666666666,33.99449550083705L157.08333333333331,34.798644583565846L159.5,37.28103049142021L161.91666666666666,30.18352726527621L164.33333333333334,32.45613599504745L166.75,31.477169363839295L169.16666666666669,30.11360800606863L171.58333333333334,30.882797459193625L174,29.9038308279855L176.41666666666666,30.498202732631142L178.83333333333334,29.798951939174117L181.25,30.603101021902916L183.66666666666666,30.11360800606863L186.08333333333334,31.407230704171326L188.5,32.38619733537948L190.91666666666666,36.791537475585955L193.33333333333331,37.70056544712611L195.75,39.86827588762557L198.16666666666666,41.86116877964565L200.58333333333334,31.931683349609358L203,31.58204825265068L205.41666666666669,30.98767634800504L207.83333333333334,30.812858799525657L210.25,30.707979910714272L212.66666666666666,30.078648376464827L215.08333333333334,30.812858799525657L217.5,27.176727512904563L219.91666666666666,34.44900948660714L222.33333333333334,30.078648376464827L224.75,27.98087659563336L227.16666666666666,31.26737278529575L229.58333333333331,26.372578430175764L232,30.673020281110496L234.41666666666666,37.665605817522305L236.83333333333334,27.00190996442521L239.25,46.26650891985213L241.66666666666669,27.701160757882263L244.08333333333334,27.421444920131137L246.5,25.743246895926347L248.91666666666666,30.673020281110496L251.33333333333334,28.680127389090416L253.75,28.155694144112715L256.1666666666667,28.365471322195873L258.58333333333337,29.484276471819186L261,29.973750087193082L263.4166666666667,27.561322239467074" style="fill: none;" fill="none"></path></g><g><path stroke="rgb(238, 51, 119)" stroke-width="2px" d="M24.166666666666664,207.203125L26.583333333333332,174.42410714285714L29,172.4375L31.416666666666668,182.37053571428572L33.833333333333336,149.59151785714286L36.25,145.61830357142856L38.666666666666664,158.53125L41.083333333333336,143.63169642857144L43.5,129.72544642857144L45.916666666666664,131.71205357142856L48.33333333333333,129.72544642857144L50.75,126.74553571428572L53.166666666666664,117.80580357142857L55.583333333333336,110.85267857142857L58,132.70535714285714L60.41666666666667,117.80580357142857L62.833333333333336,101.91294642857143L65.25,99.92633928571428L67.66666666666667,102.90625L70.08333333333333,104.89285714285714L72.5,89L74.91666666666667,83.04017857142857L77.33333333333333,89.99330357142857L79.75,93.96651785714286L82.16666666666667,84.03348214285714L84.58333333333334,94.95982142857143L87,88.00669642857143L89.41666666666667,71.12053571428571L91.83333333333333,71.12053571428571L94.25,81.05357142857143L96.66666666666666,70.12723214285714L99.08333333333333,71.12053571428571L101.5,64.16741071428571L103.91666666666667,67.14732142857143L106.33333333333333,76.08705357142857L108.75,57.21428571428571L111.16666666666667,60.19419642857143L113.58333333333333,56.22098214285714L116,61.1875L118.41666666666667,69.13392857142857L120.83333333333334,66.15401785714286L123.25,71.12053571428571L125.66666666666667,59.20089285714286L128.08333333333334,62.18080357142857L130.5,51.25446428571429L132.91666666666666,53.24107142857143L135.33333333333334,53.24107142857143L137.75,43.30803571428572L140.16666666666666,49.26785714285714L142.58333333333331,57.21428571428571L145,57.21428571428571L147.41666666666666,51.25446428571429L149.83333333333334,61.1875L152.25,42.31473214285714L154.66666666666666,49.26785714285714L157.08333333333331,52.24776785714286L159.5,50.26116071428571L161.91666666666666,43.30803571428572L164.33333333333334,43.30803571428572L166.75,41.321428571428555L169.16666666666669,48.274553571428555L171.58333333333334,39.334821428571445L174,50.26116071428571L176.41666666666666,45.29464285714286L178.83333333333334,44.30133928571428L181.25,36.35491071428572L183.66666666666666,43.30803571428572L186.08333333333334,48.274553571428555L188.5,44.30133928571428L190.91666666666666,46.287946428571445L193.33333333333331,46.287946428571445L195.75,40.328125L198.16666666666666,57.21428571428571L200.58333333333334,41.321428571428555L203,43.30803571428572L205.41666666666669,46.287946428571445L207.83333333333334,41.321428571428555L210.25,37.34821428571428L212.66666666666666,39.334821428571445L215.08333333333334,51.25446428571429L217.5,43.30803571428572L219.91666666666666,35.36160714285714L222.33333333333334,39.334821428571445L224.75,40.328125L227.16666666666666,27.415178571428555L229.58333333333331,43.30803571428572L232,42.31473214285714L234.41666666666666,36.35491071428572L236.83333333333334,37.34821428571428L239.25,32.381696428571445L241.66666666666669,40.328125L244.08333333333334,41.321428571428555L246.5,42.31473214285714L248.91666666666666,33.375L251.33333333333334,37.34821428571428L253.75,39.334821428571445L256.1666666666667,35.36160714285714L258.58333333333337,36.35491071428572L261,44.30133928571428L263.4166666666667,39.334821428571445" style="fill: none;" fill="none"></path></g></g></g></g></g></g><g transform="translate(40, 178)" clip-path="url(#clip_1)"><clipPath id="clip_1"><rect width="290" height="21"></rect></clipPath><g><g><line x1="0" y1="0" x2="0" y2="5" style="visibility: inherit;" fill="rgb(0, 0, 0)" stroke="rgb(204, 204, 204)" stroke-width="1px"></line><line x1="24.166666666666664" y1="0" x2="24.166666666666664" y2="5" style="visibility: inherit;" fill="rgb(0, 0, 0)" stroke="rgb(204, 204, 204)" stroke-width="1px"></line><line x1="48.33333333333333" y1="0" x2="48.33333333333333" y2="5" style="visibility: inherit;" fill="rgb(0, 0, 0)" stroke="rgb(204, 204, 204)" stroke-width="1px"></line><line x1="72.5" y1="0" x2="72.5" y2="5" style="visibility: inherit;" fill="rgb(0, 0, 0)" stroke="rgb(204, 204, 204)" stroke-width="1px"></line><line x1="96.66666666666666" y1="0" x2="96.66666666666666" y2="5" style="visibility: inherit;" fill="rgb(0, 0, 0)" stroke="rgb(204, 204, 204)" stroke-width="1px"></line><line x1="120.83333333333334" y1="0" x2="120.83333333333334" y2="5" style="visibility: inherit;" fill="rgb(0, 0, 0)" stroke="rgb(204, 204, 204)" stroke-width="1px"></line><line x1="145" y1="0" x2="145" y2="5" style="visibility: inherit;" fill="rgb(0, 0, 0)" stroke="rgb(204, 204, 204)" stroke-width="1px"></line><line x1="169.16666666666669" y1="0" x2="169.16666666666669" y2="5" style="visibility: inherit;" fill="rgb(0, 0, 0)" stroke="rgb(204, 204, 204)" stroke-width="1px"></line><line x1="193.33333333333331" y1="0" x2="193.33333333333331" y2="5" style="visibility: inherit;" fill="rgb(0, 0, 0)" stroke="rgb(204, 204, 204)" stroke-width="1px"></line><line x1="217.5" y1="0" x2="217.5" y2="5" style="visibility: inherit;" fill="rgb(0, 0, 0)" stroke="rgb(204, 204, 204)" stroke-width="1px"></line><line x1="241.66666666666669" y1="0" x2="241.66666666666669" y2="5" style="visibility: inherit;" fill="rgb(0, 0, 0)" stroke="rgb(204, 204, 204)" stroke-width="1px"></line><line x1="265.8333333333333" y1="0" x2="265.8333333333333" y2="5" style="visibility: inherit;" fill="rgb(0, 0, 0)" stroke="rgb(204, 204, 204)" stroke-width="1px"></line><line x1="290" y1="0" x2="290" y2="5" style="visibility: inherit;" fill="rgb(0, 0, 0)" stroke="rgb(204, 204, 204)" stroke-width="1px"></line></g><g transform="translate(0, 8)"><text x="0" y="0" dx="0em" dy="0.95em" style="text-anchor: middle; visibility: hidden; font-family: &quot;Helvetica Neue&quot;, sans-serif; font-size: 12px; font-weight: 200;" fill="rgb(50, 49, 63)" stroke="none" stroke-width="1px">-10</text><text x="24.166666666666664" y="0" dx="0em" dy="0.95em" style="text-anchor: middle; visibility: inherit; font-family: &quot;Helvetica Neue&quot;, sans-serif; font-size: 12px; font-weight: 200;" fill="rgb(50, 49, 63)" stroke="none" stroke-width="1px">0</text><text x="48.33333333333333" y="0" dx="0em" dy="0.95em" style="text-anchor: middle; visibility: inherit; font-family: &quot;Helvetica Neue&quot;, sans-serif; font-size: 12px; font-weight: 200;" fill="rgb(50, 49, 63)" stroke="none" stroke-width="1px">10</text><text x="72.5" y="0" dx="0em" dy="0.95em" style="text-anchor: middle; visibility: inherit; font-family: &quot;Helvetica Neue&quot;, sans-serif; font-size: 12px; font-weight: 200;" fill="rgb(50, 49, 63)" stroke="none" stroke-width="1px">20</text><text x="96.66666666666666" y="0" dx="0em" dy="0.95em" style="text-anchor: middle; visibility: inherit; font-family: &quot;Helvetica Neue&quot;, sans-serif; font-size: 12px; font-weight: 200;" fill="rgb(50, 49, 63)" stroke="none" stroke-width="1px">30</text><text x="120.83333333333334" y="0" dx="0em" dy="0.95em" style="text-anchor: middle; visibility: inherit; font-family: &quot;Helvetica Neue&quot;, sans-serif; font-size: 12px; font-weight: 200;" fill="rgb(50, 49, 63)" stroke="none" stroke-width="1px">40</text><text x="145" y="0" dx="0em" dy="0.95em" style="text-anchor: middle; visibility: inherit; font-family: &quot;Helvetica Neue&quot;, sans-serif; font-size: 12px; font-weight: 200;" fill="rgb(50, 49, 63)" stroke="none" stroke-width="1px">50</text><text x="169.16666666666669" y="0" dx="0em" dy="0.95em" style="text-anchor: middle; visibility: inherit; font-family: &quot;Helvetica Neue&quot;, sans-serif; font-size: 12px; font-weight: 200;" fill="rgb(50, 49, 63)" stroke="none" stroke-width="1px">60</text><text x="193.33333333333331" y="0" dx="0em" dy="0.95em" style="text-anchor: middle; visibility: inherit; font-family: &quot;Helvetica Neue&quot;, sans-serif; font-size: 12px; font-weight: 200;" fill="rgb(50, 49, 63)" stroke="none" stroke-width="1px">70</text><text x="217.5" y="0" dx="0em" dy="0.95em" style="text-anchor: middle; visibility: inherit; font-family: &quot;Helvetica Neue&quot;, sans-serif; font-size: 12px; font-weight: 200;" fill="rgb(50, 49, 63)" stroke="none" stroke-width="1px">80</text><text x="241.66666666666669" y="0" dx="0em" dy="0.95em" style="text-anchor: middle; visibility: inherit; font-family: &quot;Helvetica Neue&quot;, sans-serif; font-size: 12px; font-weight: 200;" fill="rgb(50, 49, 63)" stroke="none" stroke-width="1px">90</text><text x="265.8333333333333" y="0" dx="0em" dy="0.95em" style="text-anchor: middle; visibility: inherit; font-family: &quot;Helvetica Neue&quot;, sans-serif; font-size: 12px; font-weight: 200;" fill="rgb(50, 49, 63)" stroke="none" stroke-width="1px">100</text><text x="290" y="0" dx="0em" dy="0.95em" style="text-anchor: middle; visibility: hidden; font-family: &quot;Helvetica Neue&quot;, sans-serif; font-size: 12px; font-weight: 200;" fill="rgb(50, 49, 63)" stroke="none" stroke-width="1px">110</text></g><line x1="0" y1="0" x2="290" y2="0" fill="rgb(0, 0, 0)" stroke="rgb(204, 204, 204)" stroke-width="1px"></line></g></g></g></g></svg>