<svg viewBox="0 0 330.0000305175781 200.00001525878906" xmlns="http://www.w3.org/2000/svg"><g><g><g><g><g><line x1="40" y1="178" x2="35" y2="178" style="visibility: inherit;" fill="rgb(0, 0, 0)" stroke="rgb(204, 204, 204)" stroke-width="1px"></line><line x1="40" y1="165.28571428571428" x2="35" y2="165.28571428571428" style="visibility: inherit;" fill="rgb(0, 0, 0)" stroke="rgb(204, 204, 204)" stroke-width="1px"></line><line x1="40" y1="152.57142857142858" x2="35" y2="152.57142857142858" style="visibility: inherit;" fill="rgb(0, 0, 0)" stroke="rgb(204, 204, 204)" stroke-width="1px"></line><line x1="40" y1="139.85714285714286" x2="35" y2="139.85714285714286" style="visibility: inherit;" fill="rgb(0, 0, 0)" stroke="rgb(204, 204, 204)" stroke-width="1px"></line><line x1="40" y1="127.14285714285714" x2="35" y2="127.14285714285714" style="visibility: inherit;" fill="rgb(0, 0, 0)" stroke="rgb(204, 204, 204)" stroke-width="1px"></line><line x1="40" y1="114.42857142857143" x2="35" y2="114.42857142857143" style="visibility: inherit;" fill="rgb(0, 0, 0)" stroke="rgb(204, 204, 204)" stroke-width="1px"></line><line x1="40" y1="101.71428571428572" x2="35" y2="101.71428571428572" style="visibility: inherit;" fill="rgb(0, 0, 0)" stroke="rgb(204, 204, 204)" stroke-width="1px"></line><line x1="40" y1="89" x2="35" y2="89" style="visibility: inherit;" fill="rgb(0, 0, 0)" stroke="rgb(204, 204, 204)" stroke-width="1px"></line><line x1="40" y1="76.28571428571429" x2="35" y2="76.28571428571429" style="visibility: inherit;" fill="rgb(0, 0, 0)" stroke="rgb(204, 204, 204)" stroke-width="1px"></line><line x1="40" y1="63.57142857142857" x2="35" y2="63.57142857142857" style="visibility: inherit;" fill="rgb(0, 0, 0)" stroke="rgb(204, 204, 204)" stroke-width="1px"></line><line x1="40" y1="50.85714285714286" x2="35" y2="50.85714285714286" style="visibility: inherit;" fill="rgb(0, 0, 0)" stroke="rgb(204, 204, 204)" stroke-width="1px"></line><line x1="40" y1="38.14285714285714" x2="35" y2="38.14285714285714" style="visibility: inherit;" fill="rgb(0, 0, 0)" stroke="rgb(204, 204, 204)" stroke-width="1px"></line><line x1="40" y1="25.428571428571445" x2="35" y2="25.428571428571445" style="visibility: inherit;" fill="rgb(0, 0, 0)" stroke="rgb(204, 204, 204)" stroke-width="1px"></line><line x1="40" y1="12.714285714285722" x2="35" y2="12.714285714285722" style="visibility: inherit;" fill="rgb(0, 0, 0)" stroke="rgb(204, 204, 204)" stroke-width="1px"></line><line x1="40" y1="0" x2="35" y2="0" style="visibility: inherit;" fill="rgb(0, 0, 0)" stroke="rgb(204, 204, 204)" stroke-width="1px"></line></g><g transform="translate(30, 0)"><text x="0" y="178" dx="0em" dy="0.3em" style="text-anchor: end; visibility: hidden; font-family: &quot;Helvetica Neue&quot;, sans-serif; font-size: 12px; font-weight: 200;" fill="rgb(50, 49, 63)" stroke="none" stroke-width="1px">40</text><text x="0" y="165.28571428571428" dx="0em" dy="0.3em" style="text-anchor: end; visibility: inherit; font-family: &quot;Helvetica Neue&quot;, sans-serif; font-size: 12px; font-weight: 200;" fill="rgb(50, 49, 63)" stroke="none" stroke-width="1px">45</text><text x="0" y="152.57142857142858" dx="0em" dy="0.3em" style="text-anchor: end; visibility: hidden; font-family: &quot;Helvetica Neue&quot;, sans-serif; font-size: 12px; font-weight: 200;" fill="rgb(50, 49, 63)" stroke="none" stroke-width="1px">50</text><text x="0" y="139.85714285714286" dx="0em" dy="0.3em" style="text-anchor: end; visibility: inherit; font-family: &quot;Helvetica Neue&quot;, sans-serif; font-size: 12px; font-weight: 200;" fill="rgb(50, 49, 63)" stroke="none" stroke-width="1px">55</text><text x="0" y="127.14285714285714" dx="0em" dy="0.3em" style="text-anchor: end; visibility: hidden; font-family: &quot;Helvetica Neue&quot;, sans-serif; font-size: 12px; font-weight: 200;" fill="rgb(50, 49, 63)" stroke="none" stroke-width="1px">60</text><text x="0" y="114.42857142857143" dx="0em" dy="0.3em" style="text-anchor: end; visibility: inherit; font-family: &quot;Helvetica Neue&quot;, sans-serif; font-size: 12px; font-weight: 200;" fill="rgb(50, 49, 63)" stroke="none" stroke-width="1px">65</text><text x="0" y="101.71428571428572" dx="0em" dy="0.3em" style="text-anchor: end; visibility: hidden; font-family: &quot;Helvetica Neue&quot;, sans-serif; font-size: 12px; font-weight: 200;" fill="rgb(50, 49, 63)" stroke="none" stroke-width="1px">70</text><text x="0" y="89" dx="0em" dy="0.3em" style="text-anchor: end; visibility: inherit; font-family: &quot;Helvetica Neue&quot;, sans-serif; font-size: 12px; font-weight: 200;" fill="rgb(50, 49, 63)" stroke="none" stroke-width="1px">75</text><text x="0" y="76.28571428571429" dx="0em" dy="0.3em" style="text-anchor: end; visibility: hidden; font-family: &quot;Helvetica Neue&quot;, sans-serif; font-size: 12px; font-weight: 200;" fill="rgb(50, 49, 63)" stroke="none" stroke-width="1px">80</text><text x="0" y="63.57142857142857" dx="0em" dy="0.3em" style="text-anchor: end; visibility: inherit; font-family: &quot;Helvetica Neue&quot;, sans-serif; font-size: 12px; font-weight: 200;" fill="rgb(50, 49, 63)" stroke="none" stroke-width="1px">85</text><text x="0" y="50.85714285714286" dx="0em" dy="0.3em" style="text-anchor: end; visibility: hidden; font-family: &quot;Helvetica Neue&quot;, sans-serif; font-size: 12px; font-weight: 200;" fill="rgb(50, 49, 63)" stroke="none" stroke-width="1px">90</text><text x="0" y="38.14285714285714" dx="0em" dy="0.3em" style="text-anchor: end; visibility: inherit; font-family: &quot;Helvetica Neue&quot;, sans-serif; font-size: 12px; font-weight: 200;" fill="rgb(50, 49, 63)" stroke="none" stroke-width="1px">95</text><text x="0" y="25.428571428571445" dx="0em" dy="0.3em" style="text-anchor: end; visibility: hidden; font-family: &quot;Helvetica Neue&quot;, sans-serif; font-size: 12px; font-weight: 200;" fill="rgb(50, 49, 63)" stroke="none" stroke-width="1px">100</text><text x="0" y="12.714285714285722" dx="0em" dy="0.3em" style="text-anchor: end; visibility: inherit; font-family: &quot;Helvetica Neue&quot;, sans-serif; font-size: 12px; font-weight: 200;" fill="rgb(50, 49, 63)" stroke="none" stroke-width="1px">105</text><text x="0" y="0" dx="0em" dy="0.3em" style="text-anchor: end; visibility: hidden; font-family: &quot;Helvetica Neue&quot;, sans-serif; font-size: 12px; font-weight: 200;" fill="rgb(50, 49, 63)" stroke="none" stroke-width="1px">110</text></g><line x1="40" y1="0" x2="40" y2="178" fill="rgb(0, 0, 0)" stroke="rgb(204, 204, 204)" stroke-width="1px"></line></g></g><g transform="translate(40, 0)" clip-path="url(#clip_0)"><clipPath id="clip_0"><rect width="290" height="177"></rect></clipPath><g><g><g><line x1="0" y1="0" x2="0" y2="178" fill="rgb(0, 0, 0)" stroke="rgb(60, 60, 60)" stroke-width="1px" opacity="0.25"></line><line x1="24.166666666666664" y1="0" x2="24.166666666666664" y2="178" fill="rgb(0, 0, 0)" stroke="rgb(60, 60, 60)" stroke-width="1px" opacity="0.25"></line><line x1="48.33333333333333" y1="0" x2="48.33333333333333" y2="178" fill="rgb(0, 0, 0)" stroke="rgb(60, 60, 60)" stroke-width="1px" opacity="0.25"></line><line x1="72.5" y1="0" x2="72.5" y2="178" fill="rgb(0, 0, 0)" stroke="rgb(60, 60, 60)" stroke-width="1px" opacity="0.25"></line><line x1="96.66666666666666" y1="0" x2="96.66666666666666" y2="178" fill="rgb(0, 0, 0)" stroke="rgb(60, 60, 60)" stroke-width="1px" opacity="0.25"></line><line x1="120.83333333333334" y1="0" x2="120.83333333333334" y2="178" fill="rgb(0, 0, 0)" stroke="rgb(60, 60, 60)" stroke-width="1px" opacity="0.25"></line><line x1="145" y1="0" x2="145" y2="178" fill="rgb(0, 0, 0)" stroke="rgb(60, 60, 60)" stroke-width="1px" opacity="0.25"></line><line x1="169.16666666666669" y1="0" x2="169.16666666666669" y2="178" fill="rgb(0, 0, 0)" stroke="rgb(60, 60, 60)" stroke-width="1px" opacity="0.25"></line><line x1="193.33333333333331" y1="0" x2="193.33333333333331" y2="178" fill="rgb(0, 0, 0)" stroke="rgb(60, 60, 60)" stroke-width="1px" opacity="0.25"></line><line x1="217.5" y1="0" x2="217.5" y2="178" fill="rgb(0, 0, 0)" stroke="rgb(60, 60, 60)" stroke-width="1px" opacity="0.25"></line><line x1="241.66666666666669" y1="0" x2="241.66666666666669" y2="178" fill="rgb(0, 0, 0)" stroke="rgb(60, 60, 60)" stroke-width="1px" opacity="0.25"></line><line x1="265.8333333333333" y1="0" x2="265.8333333333333" y2="178" fill="rgb(0, 0, 0)" stroke="rgb(60, 60, 60)" stroke-width="1px" opacity="0.25"></line><line x1="290" y1="0" x2="290" y2="178" fill="rgb(0, 0, 0)" stroke="rgb(60, 60, 60)" stroke-width="1px" opacity="0.25"></line></g><g><line x1="0" y1="178" x2="290" y2="178" fill="rgb(0, 0, 0)" stroke="rgb(60, 60, 60)" stroke-width="1px" opacity="0.25"></line><line x1="0" y1="165.28571428571428" x2="290" y2="165.28571428571428" fill="rgb(0, 0, 0)" stroke="rgb(60, 60, 60)" stroke-width="1px" opacity="0.25"></line><line x1="0" y1="152.57142857142858" x2="290" y2="152.57142857142858" fill="rgb(0, 0, 0)" stroke="rgb(60, 60, 60)" stroke-width="1px" opacity="0.25"></line><line x1="0" y1="139.85714285714286" x2="290" y2="139.85714285714286" fill="rgb(0, 0, 0)" stroke="rgb(60, 60, 60)" stroke-width="1px" opacity="0.25"></line><line x1="0" y1="127.14285714285714" x2="290" y2="127.14285714285714" fill="rgb(0, 0, 0)" stroke="rgb(60, 60, 60)" stroke-width="1px" opacity="0.25"></line><line x1="0" y1="114.42857142857143" x2="290" y2="114.42857142857143" fill="rgb(0, 0, 0)" stroke="rgb(60, 60, 60)" stroke-width="1px" opacity="0.25"></line><line x1="0" y1="101.71428571428572" x2="290" y2="101.71428571428572" fill="rgb(0, 0, 0)" stroke="rgb(60, 60, 60)" stroke-width="1px" opacity="0.25"></line><line x1="0" y1="89" x2="290" y2="89" fill="rgb(0, 0, 0)" stroke="rgb(60, 60, 60)" stroke-width="1px" opacity="0.25"></line><line x1="0" y1="76.28571428571429" x2="290" y2="76.28571428571429" fill="rgb(0, 0, 0)" stroke="rgb(60, 60, 60)" stroke-width="1px" opacity="0.25"></line><line x1="0" y1="63.57142857142857" x2="290" y2="63.57142857142857" fill="rgb(0, 0, 0)" stroke="rgb(60, 60, 60)" stroke-width="1px" opacity="0.25"></line><line x1="0" y1="50.85714285714286" x2="290" y2="50.85714285714286" fill="rgb(0, 0, 0)" stroke="rgb(60, 60, 60)" stroke-width="1px" opacity="0.25"></line><line x1="0" y1="38.14285714285714" x2="290" y2="38.14285714285714" fill="rgb(0, 0, 0)" stroke="rgb(60, 60, 60)" stroke-width="1px" opacity="0.25"></line><line x1="0" y1="25.428571428571445" x2="290" y2="25.428571428571445" fill="rgb(0, 0, 0)" stroke="rgb(60, 60, 60)" stroke-width="1px" opacity="0.25"></line><line x1="0" y1="12.714285714285722" x2="290" y2="12.714285714285722" fill="rgb(0, 0, 0)" stroke="rgb(60, 60, 60)" stroke-width="1px" opacity="0.25"></line><line x1="0" y1="0" x2="290" y2="0" fill="rgb(0, 0, 0)" stroke="rgb(60, 60, 60)" stroke-width="1px" opacity="0.25"></line></g></g></g><g><g><line x1="0" y1="279.7142857142857" x2="290" y2="279.7142857142857" fill="rgb(0, 0, 0)" stroke="rgb(153, 153, 153)" stroke-width="1.5px"></line></g></g><g><g><line x1="24.166666666666664" y1="0" x2="24.166666666666664" y2="178" fill="rgb(0, 0, 0)" stroke="rgb(153, 153, 153)" stroke-width="1.5px"></line></g></g><g><g><g><g><g><path stroke="rgb(204, 51, 17)" stroke-width="2px" d="M24.166666666666664,165.13996832711356L26.583333333333332,153.69453941072737L29,142.43982815533965L31.416666666666668,132.9829511622421L33.833333333333336,124.03927135458075L36.25,121.83062164260689L38.666666666666664,117.623783848697L41.083333333333336,108.10282992396341L43.5,99.2926709359037L45.916666666666664,94.79518769820461L48.33333333333333,92.12793561041569L50.75,90.83622734334853L53.166666666666664,86.07976075511998L55.583333333333336,80.92354160279659L58,77.9421857147584L60.41666666666667,73.28653036594478L62.833333333333336,73.29279731467113L65.25,73.25540036853275L67.66666666666667,69.59763228681601L70.08333333333333,67.32081433044517L72.5,63.320982397120176L74.91666666666667,60.93485181997981L77.33333333333333,60.902381346859016L79.75,63.29716603791246L82.16666666666667,58.03993602604001L84.58333333333334,55.22853846749389L87,53.857201371421496L89.41666666666667,53.91231794445076L91.83333333333333,51.47625932360887L94.25,50.8376622784625L96.66666666666666,49.384553089509325L99.08333333333333,48.97908256432066L101.5,47.39149574486902L103.91666666666667,46.809314021340555L106.33333333333333,46.25424371157703L108.75,43.79501193470006L111.16666666666667,43.307119288102L113.58333333333333,40.668712829805344L116,39.195413485616456L118.41666666666667,38.11938484355872L120.83333333333334,37.48748766483601L123.25,37.080917106936994L125.66666666666667,38.565361788028326L128.08333333333334,37.22009449655158L130.5,37.359436022722235L132.91666666666666,36.34565001689046L135.33333333333334,37.30115640246913L137.75,38.28598279937185L140.16666666666666,36.65466454357994L142.58333333333331,34.77052394585928L145,36.12288722606013L147.41666666666666,35.79576201615967L149.83333333333334,36.47739652331302L152.25,34.197776066189704L154.66666666666666,33.13178959339618L157.08333333333331,32.066955138570734L159.5,31.11255641880072L161.91666666666666,30.910279735767006L164.33333333333334,29.458337030913214L166.75,29.053558475523374L169.16666666666669,30.25102032178171L171.58333333333334,29.44686393693064L174,29.375892671589156L176.41666666666666,29.04524411648586L178.83333333333334,29.326962056526583L181.25,30.511079228893607L183.66666666666666,30.782594715768113L186.08333333333334,29.710936311185208L188.5,28.86217998565084L190.91666666666666,29.99901645260698L193.33333333333331,29.940377714756153L195.75,29.041004844534484L198.16666666666666,29.008920446480744L200.58333333333334,31.870312246264547L203,31.33750098126876L205.41666666666669,30.83949295064741L207.83333333333334,31.37744550880919L210.25,30.781155154057842L212.66666666666666,29.463159034817522L215.08333333333334,30.222427106855918L217.5,29.649181536155993L219.91666666666666,29.14063292769245L222.33333333333334,29.233306322603227L224.75,28.026910411865487L227.16666666666666,28.606225069663935L229.58333333333331,28.775492592719132L232,29.645218215369198L234.41666666666666,28.5346833322628L236.83333333333334,27.635168868637834L239.25,27.122900201623537L241.66666666666669,29.57273243054445L244.08333333333334,28.80669766842709L246.5,30.21264060161431L248.91666666666666,29.931383189093594L251.33333333333334,29.721468724840094L253.75,28.84106718286722L256.1666666666667,28.38141852540116L258.58333333333337,27.982164801066574L261,27.33109776108077L263.4166666666667,28.88831808047661" style="fill: none;" fill="none"></path></g><g><path stroke="rgb(0, 119, 187)" stroke-width="2px" d="M24.166666666666664,165.484375L26.583333333333332,176.03822544642858L29,168.11967018950438L31.416666666666668,157.3224871980042L33.833333333333336,159.13922623178348L36.25,160.13443236199555L38.666666666666664,154.97828456391116L41.083333333333336,144.7045907039117L43.5,139.45466873327464L45.916666666666664,135.53930510476684L48.33333333333333,133.6040620580602L50.75,126.47459651159804L53.166666666666664,121.8090214850329L55.583333333333336,119.80884546980496L58,112.64711851683461L60.41666666666667,112.72400708692577L62.833333333333336,106.41190725308424L65.25,98.65171336975318L67.66666666666667,93.20141018803324L70.08333333333333,94.69947231291616L72.5,92.8169635198187L74.91666666666667,90.8928313575644L77.33333333333333,86.957096304278L79.75,83.00638191971838L82.16666666666667,85.40383596786191L84.58333333333334,79.29318401420431L87,75.22947767792975L89.41666666666667,76.76447326367553L91.83333333333333,74.50689741210104L94.25,71.16574485147605L96.66666666666666,68.763732306558L99.08333333333333,67.3225249835197L101.5,66.0604792155609L103.91666666666667,66.49521611322085L106.33333333333333,68.34534398545179L108.75,71.04470641911347L111.16666666666667,67.49914525809724L113.58333333333333,66.96109429571757L116,64.2543351428287L118.41666666666667,61.83563679674974L120.83333333333334,61.57638207784191L123.25,61.02350781786764L125.66666666666667,60.69178326205339L128.08333333333334,59.30078424270535L130.5,55.68493483096165L132.91666666666666,53.515425184156L135.33333333333334,53.80300511050436L137.75,50.79698163766368L140.16666666666666,50.97997469688637L142.58333333333331,48.30852053239596L145,49.48689803372898L147.41666666666666,50.59124596309776L149.83333333333334,48.07528329213997L152.25,46.96302711813999L154.66666666666666,47.88495912802745L157.08333333333331,47.24615404824479L159.5,48.45215671466144L161.91666666666666,48.38111545736828L164.33333333333334,47.543847845849456L166.75,52.60398727893853L169.16666666666669,51.26953522450593L171.58333333333334,50.071542563274974L174,48.16078268082211L176.41666666666666,45.82236246563613L178.83333333333334,44.81663176509596L181.25,42.22658620191473L183.66666666666666,40.67255886400599L186.08333333333334,39.740142461260746L188.5,40.372656905327915L190.91666666666666,41.54680842891099L193.33333333333331,41.456656485918046L195.75,41.00524389155083L198.16666666666666,42.32368204921622L200.58333333333334,38.346887800958314L203,37.15277553771787L205.41666666666669,38.820236751202145L207.83333333333334,38.231427765007L210.25,36.686178087575655L212.66666666666666,37.34831399540255L215.08333333333334,42.116131254384385L217.5,41.0036073240592L219.91666666666666,39.938771537292666L222.33333333333334,41.683798636661294L224.75,42.333493467711065L227.16666666666666,40.7367032234838L229.58333333333331,41.765236219804564L232,40.79307030331134L234.41666666666666,40.20977075341534L236.83333333333334,42.24371959490634L239.25,41.47748175694383L241.66666666666669,39.82577476845202L244.08333333333334,36.848143432499796L246.5,38.24013605949989L248.91666666666666,37.0887244928428L251.33333333333334,37.98716326713429L253.75,41.70479796028056L256.1666666666667,40.75680734759692L258.58333333333337,38.598727265701L261,36.50923635942061L263.4166666666667,34.858220387080905" style="fill: none;" fill="none"></path></g></g></g></g><g opacity="0.2"><g><g><g><path stroke="rgb(204, 51, 17)" stroke-width="2px" d="M24.166666666666664,165.13996832711356L26.583333333333332,146.82728206089564L29,131.6353053501674L31.416666666666668,121.86166381835938L33.833333333333336,112.3624029976981L36.25,118.77526397705078L38.666666666666664,111.60793849400112L41.083333333333336,94.22118770054408L43.5,86.29939771379743L45.916666666666664,88.11694924490791L48.33333333333333,88.15124925885883L50.75,88.90569436209542L53.166666666666664,78.96059156145368L55.583333333333336,73.1993144444057L58,73.4736563546317L60.41666666666667,66.30633087158203L62.833333333333336,73.30219508579799L65.25,73.1993144444057L67.66666666666667,64.11153738839286L70.08333333333333,63.90579550606864L72.5,57.32145385742187L74.91666666666667,57.355734470912395L77.33333333333333,60.85367627825056L79.75,66.88931470598493L82.16666666666667,50.154128374372206L84.58333333333334,51.011454119001115L87,51.80019923618862L89.41666666666667,53.99499271937779L91.83333333333333,47.82217363630022L94.25,49.87976706368582L96.66666666666666,47.20488978794643L99.08333333333333,48.37087685721261L101.5,45.01011570521763L103.91666666666667,45.93604147774832L106.33333333333333,45.42163827078684L108.75,40.106164332798556L111.16666666666667,42.57528032575334L113.58333333333333,36.711103166852695L116,36.98546447753907L118.41666666666667,36.50534188406809L120.83333333333334,36.53964189801897L123.25,36.471061270577565L125.66666666666667,40.792028808593756L128.08333333333334,35.202193559919095L130.5,37.56844831194198L132.91666666666666,34.824971008300764L135.33333333333334,38.73441598074777L137.75,39.76322239467075L140.16666666666666,34.207687159947L142.58333333333331,31.944313049316406L145,38.15143214634486L147.41666666666666,35.305074201311385L149.83333333333334,37.49984828404018L152.25,30.778345380510586L154.66666666666666,31.53280988420758L157.08333333333331,30.46970345633372L159.5,29.6809583391462L161.91666666666666,30.60686471121653L164.33333333333334,27.280422973632795L166.75,28.446390642438615L169.16666666666669,32.047213091169084L171.58333333333334,28.240629359654008L174,29.269435773577015L176.41666666666666,28.549271283830905L178.83333333333334,29.749538966587608L181.25,32.287254987444186L183.66666666666666,31.1898679460798L186.08333333333334,28.103448704310836L188.5,27.589045497349332L190.91666666666666,31.704271153041304L193.33333333333331,29.852419607979897L195.75,27.69194553920201L198.16666666666666,28.96079384940012L200.58333333333334,36.16239994594028L203,30.538284083775125L205.41666666666669,30.092480904715416L207.83333333333334,32.1843743460519L210.25,29.88671962193081L212.66666666666666,27.486164855957014L215.08333333333334,31.361329214913496L217.5,28.789313180106035L219.91666666666666,28.37781001499721L222.33333333333334,29.372316414969305L224.75,26.217316545758933L227.16666666666666,29.475197056361594L229.58333333333331,29.029393877301914L232,30.94980664934431L234.41666666666666,26.86888100760325L236.83333333333334,26.28589717320034L239.25,26.354497201102134L241.66666666666669,33.24748077392579L244.08333333333334,27.657645525251127L246.5,32.3215550013951L248.91666666666666,29.509497070312506L251.33333333333334,29.406597028459828L253.75,27.520464869907926L256.1666666666667,27.69194553920201L258.58333333333337,27.383284214564725L261,26.354497201102134L263.4166666666667,31.224148559570295" style="fill: none;" fill="none"></path></g><g><path stroke="rgb(0, 119, 187)" stroke-width="2px" d="M24.166666666666664,165.484375L26.583333333333332,182.37053571428572L29,160.51785714285714L31.416666666666668,144.625L33.833333333333336,161.51116071428572L36.25,161.51116071428572L38.666666666666664,147.60491071428572L41.083333333333336,129.72544642857144L43.5,131.71205357142856L45.916666666666664,129.72544642857144L48.33333333333333,130.71875L50.75,115.81919642857143L53.166666666666664,114.82589285714286L55.583333333333336,116.8125L58,101.91294642857143L60.41666666666667,112.83928571428572L62.833333333333336,96.94642857142857L65.25,87.01339285714286L67.66666666666667,85.02678571428571L70.08333333333333,96.94642857142857L72.5,89.99330357142857L74.91666666666667,88.00669642857143L77.33333333333333,81.05357142857143L79.75,77.08035714285714L82.16666666666667,89L84.58333333333334,70.12723214285714L87,69.13392857142857L89.41666666666667,79.06696428571429L91.83333333333333,71.12053571428571L94.25,66.15401785714286L96.66666666666666,65.16071428571429L99.08333333333333,65.16071428571429L101.5,64.16741071428571L103.91666666666667,67.14732142857143L106.33333333333333,71.12053571428571L108.75,75.09375L111.16666666666667,62.18080357142857L113.58333333333333,66.15401785714286L116,60.19419642857143L118.41666666666667,58.20758928571429L120.83333333333334,61.1875L123.25,60.19419642857143L125.66666666666667,60.19419642857143L128.08333333333334,57.21428571428571L130.5,50.26116071428571L132.91666666666666,50.26116071428571L135.33333333333334,54.234375L137.75,46.287946428571445L140.16666666666666,51.25446428571429L142.58333333333331,44.30133928571428L145,51.25446428571429L147.41666666666666,52.24776785714286L149.83333333333334,44.30133928571428L152.25,45.29464285714286L154.66666666666666,49.26785714285714L157.08333333333331,46.287946428571445L159.5,50.26116071428571L161.91666666666666,48.274553571428555L164.33333333333334,46.287946428571445L166.75,60.19419642857143L169.16666666666669,49.26785714285714L171.58333333333334,48.274553571428555L174,45.29464285714286L176.41666666666666,42.31473214285714L178.83333333333334,43.30803571428572L181.25,38.34151785714286L183.66666666666666,38.34151785714286L186.08333333333334,38.34151785714286L188.5,41.321428571428555L190.91666666666666,43.30803571428572L193.33333333333331,41.321428571428555L195.75,40.328125L198.16666666666666,44.30133928571428L200.58333333333334,32.381696428571445L203,35.36160714285714L205.41666666666669,41.321428571428555L207.83333333333334,37.34821428571428L210.25,34.368303571428555L212.66666666666666,38.34151785714286L215.08333333333334,49.26785714285714L217.5,39.334821428571445L219.91666666666666,38.34151785714286L222.33333333333334,44.30133928571428L224.75,43.30803571428572L227.16666666666666,38.34151785714286L229.58333333333331,43.30803571428572L232,39.334821428571445L234.41666666666666,39.334821428571445L236.83333333333334,45.29464285714286L239.25,40.328125L241.66666666666669,37.34821428571428L244.08333333333334,32.381696428571445L246.5,40.328125L248.91666666666666,35.36160714285714L251.33333333333334,39.334821428571445L253.75,47.28125L256.1666666666667,39.334821428571445L258.58333333333337,35.36160714285714L261,33.375L263.4166666666667,32.381696428571445" style="fill: none;" fill="none"></path></g></g></g></g></g></g><g transform="translate(40, 178)" clip-path="url(#clip_1)"><clipPath id="clip_1"><rect width="290" height="21"></rect></clipPath><g><g><line x1="0" y1="0" x2="0" y2="5" style="visibility: inherit;" fill="rgb(0, 0, 0)" stroke="rgb(204, 204, 204)" stroke-width="1px"></line><line x1="24.166666666666664" y1="0" x2="24.166666666666664" y2="5" style="visibility: inherit;" fill="rgb(0, 0, 0)" stroke="rgb(204, 204, 204)" stroke-width="1px"></line><line x1="48.33333333333333" y1="0" x2="48.33333333333333" y2="5" style="visibility: inherit;" fill="rgb(0, 0, 0)" stroke="rgb(204, 204, 204)" stroke-width="1px"></line><line x1="72.5" y1="0" x2="72.5" y2="5" style="visibility: inherit;" fill="rgb(0, 0, 0)" stroke="rgb(204, 204, 204)" stroke-width="1px"></line><line x1="96.66666666666666" y1="0" x2="96.66666666666666" y2="5" style="visibility: inherit;" fill="rgb(0, 0, 0)" stroke="rgb(204, 204, 204)" stroke-width="1px"></line><line x1="120.83333333333334" y1="0" x2="120.83333333333334" y2="5" style="visibility: inherit;" fill="rgb(0, 0, 0)" stroke="rgb(204, 204, 204)" stroke-width="1px"></line><line x1="145" y1="0" x2="145" y2="5" style="visibility: inherit;" fill="rgb(0, 0, 0)" stroke="rgb(204, 204, 204)" stroke-width="1px"></line><line x1="169.16666666666669" y1="0" x2="169.16666666666669" y2="5" style="visibility: inherit;" fill="rgb(0, 0, 0)" stroke="rgb(204, 204, 204)" stroke-width="1px"></line><line x1="193.33333333333331" y1="0" x2="193.33333333333331" y2="5" style="visibility: inherit;" fill="rgb(0, 0, 0)" stroke="rgb(204, 204, 204)" stroke-width="1px"></line><line x1="217.5" y1="0" x2="217.5" y2="5" style="visibility: inherit;" fill="rgb(0, 0, 0)" stroke="rgb(204, 204, 204)" stroke-width="1px"></line><line x1="241.66666666666669" y1="0" x2="241.66666666666669" y2="5" style="visibility: inherit;" fill="rgb(0, 0, 0)" stroke="rgb(204, 204, 204)" stroke-width="1px"></line><line x1="265.8333333333333" y1="0" x2="265.8333333333333" y2="5" style="visibility: inherit;" fill="rgb(0, 0, 0)" stroke="rgb(204, 204, 204)" stroke-width="1px"></line><line x1="290" y1="0" x2="290" y2="5" style="visibility: inherit;" fill="rgb(0, 0, 0)" stroke="rgb(204, 204, 204)" stroke-width="1px"></line></g><g transform="translate(0, 8)"><text x="0" y="0" dx="0em" dy="0.95em" style="text-anchor: middle; visibility: hidden; font-family: &quot;Helvetica Neue&quot;, sans-serif; font-size: 12px; font-weight: 200;" fill="rgb(50, 49, 63)" stroke="none" stroke-width="1px">-10</text><text x="24.166666666666664" y="0" dx="0em" dy="0.95em" style="text-anchor: middle; visibility: inherit; font-family: &quot;Helvetica Neue&quot;, sans-serif; font-size: 12px; font-weight: 200;" fill="rgb(50, 49, 63)" stroke="none" stroke-width="1px">0</text><text x="48.33333333333333" y="0" dx="0em" dy="0.95em" style="text-anchor: middle; visibility: inherit; font-family: &quot;Helvetica Neue&quot;, sans-serif; font-size: 12px; font-weight: 200;" fill="rgb(50, 49, 63)" stroke="none" stroke-width="1px">10</text><text x="72.5" y="0" dx="0em" dy="0.95em" style="text-anchor: middle; visibility: inherit; font-family: &quot;Helvetica Neue&quot;, sans-serif; font-size: 12px; font-weight: 200;" fill="rgb(50, 49, 63)" stroke="none" stroke-width="1px">20</text><text x="96.66666666666666" y="0" dx="0em" dy="0.95em" style="text-anchor: middle; visibility: inherit; font-family: &quot;Helvetica Neue&quot;, sans-serif; font-size: 12px; font-weight: 200;" fill="rgb(50, 49, 63)" stroke="none" stroke-width="1px">30</text><text x="120.83333333333334" y="0" dx="0em" dy="0.95em" style="text-anchor: middle; visibility: inherit; font-family: &quot;Helvetica Neue&quot;, sans-serif; font-size: 12px; font-weight: 200;" fill="rgb(50, 49, 63)" stroke="none" stroke-width="1px">40</text><text x="145" y="0" dx="0em" dy="0.95em" style="text-anchor: middle; visibility: inherit; font-family: &quot;Helvetica Neue&quot;, sans-serif; font-size: 12px; font-weight: 200;" fill="rgb(50, 49, 63)" stroke="none" stroke-width="1px">50</text><text x="169.16666666666669" y="0" dx="0em" dy="0.95em" style="text-anchor: middle; visibility: inherit; font-family: &quot;Helvetica Neue&quot;, sans-serif; font-size: 12px; font-weight: 200;" fill="rgb(50, 49, 63)" stroke="none" stroke-width="1px">60</text><text x="193.33333333333331" y="0" dx="0em" dy="0.95em" style="text-anchor: middle; visibility: inherit; font-family: &quot;Helvetica Neue&quot;, sans-serif; font-size: 12px; font-weight: 200;" fill="rgb(50, 49, 63)" stroke="none" stroke-width="1px">70</text><text x="217.5" y="0" dx="0em" dy="0.95em" style="text-anchor: middle; visibility: inherit; font-family: &quot;Helvetica Neue&quot;, sans-serif; font-size: 12px; font-weight: 200;" fill="rgb(50, 49, 63)" stroke="none" stroke-width="1px">80</text><text x="241.66666666666669" y="0" dx="0em" dy="0.95em" style="text-anchor: middle; visibility: inherit; font-family: &quot;Helvetica Neue&quot;, sans-serif; font-size: 12px; font-weight: 200;" fill="rgb(50, 49, 63)" stroke="none" stroke-width="1px">90</text><text x="265.8333333333333" y="0" dx="0em" dy="0.95em" style="text-anchor: middle; visibility: inherit; font-family: &quot;Helvetica Neue&quot;, sans-serif; font-size: 12px; font-weight: 200;" fill="rgb(50, 49, 63)" stroke="none" stroke-width="1px">100</text><text x="290" y="0" dx="0em" dy="0.95em" style="text-anchor: middle; visibility: hidden; font-family: &quot;Helvetica Neue&quot;, sans-serif; font-size: 12px; font-weight: 200;" fill="rgb(50, 49, 63)" stroke="none" stroke-width="1px">110</text></g><line x1="0" y1="0" x2="290" y2="0" fill="rgb(0, 0, 0)" stroke="rgb(204, 204, 204)" stroke-width="1px"></line></g></g></g></g></svg>