<svg viewBox="0 0 330.0000305175781 200.00001525878906" xmlns="http://www.w3.org/2000/svg"><g><g><g><g><g><line x1="40" y1="178" x2="35" y2="178" style="visibility: inherit;" fill="rgb(0, 0, 0)" stroke="rgb(204, 204, 204)" stroke-width="1px"></line><line x1="40" y1="165.28571428571428" x2="35" y2="165.28571428571428" style="visibility: inherit;" fill="rgb(0, 0, 0)" stroke="rgb(204, 204, 204)" stroke-width="1px"></line><line x1="40" y1="152.57142857142858" x2="35" y2="152.57142857142858" style="visibility: inherit;" fill="rgb(0, 0, 0)" stroke="rgb(204, 204, 204)" stroke-width="1px"></line><line x1="40" y1="139.85714285714286" x2="35" y2="139.85714285714286" style="visibility: inherit;" fill="rgb(0, 0, 0)" stroke="rgb(204, 204, 204)" stroke-width="1px"></line><line x1="40" y1="127.14285714285714" x2="35" y2="127.14285714285714" style="visibility: inherit;" fill="rgb(0, 0, 0)" stroke="rgb(204, 204, 204)" stroke-width="1px"></line><line x1="40" y1="114.42857142857143" x2="35" y2="114.42857142857143" style="visibility: inherit;" fill="rgb(0, 0, 0)" stroke="rgb(204, 204, 204)" stroke-width="1px"></line><line x1="40" y1="101.71428571428572" x2="35" y2="101.71428571428572" style="visibility: inherit;" fill="rgb(0, 0, 0)" stroke="rgb(204, 204, 204)" stroke-width="1px"></line><line x1="40" y1="89" x2="35" y2="89" style="visibility: inherit;" fill="rgb(0, 0, 0)" stroke="rgb(204, 204, 204)" stroke-width="1px"></line><line x1="40" y1="76.28571428571429" x2="35" y2="76.28571428571429" style="visibility: inherit;" fill="rgb(0, 0, 0)" stroke="rgb(204, 204, 204)" stroke-width="1px"></line><line x1="40" y1="63.57142857142857" x2="35" y2="63.57142857142857" style="visibility: inherit;" fill="rgb(0, 0, 0)" stroke="rgb(204, 204, 204)" stroke-width="1px"></line><line x1="40" y1="50.85714285714286" x2="35" y2="50.85714285714286" style="visibility: inherit;" fill="rgb(0, 0, 0)" stroke="rgb(204, 204, 204)" stroke-width="1px"></line><line x1="40" y1="38.14285714285714" x2="35" y2="38.14285714285714" style="visibility: inherit;" fill="rgb(0, 0, 0)" stroke="rgb(204, 204, 204)" stroke-width="1px"></line><line x1="40" y1="25.428571428571445" x2="35" y2="25.428571428571445" style="visibility: inherit;" fill="rgb(0, 0, 0)" stroke="rgb(204, 204, 204)" stroke-width="1px"></line><line x1="40" y1="12.714285714285722" x2="35" y2="12.714285714285722" style="visibility: inherit;" fill="rgb(0, 0, 0)" stroke="rgb(204, 204, 204)" stroke-width="1px"></line><line x1="40" y1="0" x2="35" y2="0" style="visibility: inherit;" fill="rgb(0, 0, 0)" stroke="rgb(204, 204, 204)" stroke-width="1px"></line></g><g transform="translate(30, 0)"><text x="0" y="178" dx="0em" dy="0.3em" style="text-anchor: end; visibility: hidden; font-family: &quot;Helvetica Neue&quot;, sans-serif; font-size: 12px; font-weight: 200;" fill="rgb(50, 49, 63)" stroke="none" stroke-width="1px">40</text><text x="0" y="165.28571428571428" dx="0em" dy="0.3em" style="text-anchor: end; visibility: inherit; font-family: &quot;Helvetica Neue&quot;, sans-serif; font-size: 12px; font-weight: 200;" fill="rgb(50, 49, 63)" stroke="none" stroke-width="1px">45</text><text x="0" y="152.57142857142858" dx="0em" dy="0.3em" style="text-anchor: end; visibility: hidden; font-family: &quot;Helvetica Neue&quot;, sans-serif; font-size: 12px; font-weight: 200;" fill="rgb(50, 49, 63)" stroke="none" stroke-width="1px">50</text><text x="0" y="139.85714285714286" dx="0em" dy="0.3em" style="text-anchor: end; visibility: inherit; font-family: &quot;Helvetica Neue&quot;, sans-serif; font-size: 12px; font-weight: 200;" fill="rgb(50, 49, 63)" stroke="none" stroke-width="1px">55</text><text x="0" y="127.14285714285714" dx="0em" dy="0.3em" style="text-anchor: end; visibility: hidden; font-family: &quot;Helvetica Neue&quot;, sans-serif; font-size: 12px; font-weight: 200;" fill="rgb(50, 49, 63)" stroke="none" stroke-width="1px">60</text><text x="0" y="114.42857142857143" dx="0em" dy="0.3em" style="text-anchor: end; visibility: inherit; font-family: &quot;Helvetica Neue&quot;, sans-serif; font-size: 12px; font-weight: 200;" fill="rgb(50, 49, 63)" stroke="none" stroke-width="1px">65</text><text x="0" y="101.71428571428572" dx="0em" dy="0.3em" style="text-anchor: end; visibility: hidden; font-family: &quot;Helvetica Neue&quot;, sans-serif; font-size: 12px; font-weight: 200;" fill="rgb(50, 49, 63)" stroke="none" stroke-width="1px">70</text><text x="0" y="89" dx="0em" dy="0.3em" style="text-anchor: end; visibility: inherit; font-family: &quot;Helvetica Neue&quot;, sans-serif; font-size: 12px; font-weight: 200;" fill="rgb(50, 49, 63)" stroke="none" stroke-width="1px">75</text><text x="0" y="76.28571428571429" dx="0em" dy="0.3em" style="text-anchor: end; visibility: hidden; font-family: &quot;Helvetica Neue&quot;, sans-serif; font-size: 12px; font-weight: 200;" fill="rgb(50, 49, 63)" stroke="none" stroke-width="1px">80</text><text x="0" y="63.57142857142857" dx="0em" dy="0.3em" style="text-anchor: end; visibility: inherit; font-family: &quot;Helvetica Neue&quot;, sans-serif; font-size: 12px; font-weight: 200;" fill="rgb(50, 49, 63)" stroke="none" stroke-width="1px">85</text><text x="0" y="50.85714285714286" dx="0em" dy="0.3em" style="text-anchor: end; visibility: hidden; font-family: &quot;Helvetica Neue&quot;, sans-serif; font-size: 12px; font-weight: 200;" fill="rgb(50, 49, 63)" stroke="none" stroke-width="1px">90</text><text x="0" y="38.14285714285714" dx="0em" dy="0.3em" style="text-anchor: end; visibility: inherit; font-family: &quot;Helvetica Neue&quot;, sans-serif; font-size: 12px; font-weight: 200;" fill="rgb(50, 49, 63)" stroke="none" stroke-width="1px">95</text><text x="0" y="25.428571428571445" dx="0em" dy="0.3em" style="text-anchor: end; visibility: hidden; font-family: &quot;Helvetica Neue&quot;, sans-serif; font-size: 12px; font-weight: 200;" fill="rgb(50, 49, 63)" stroke="none" stroke-width="1px">100</text><text x="0" y="12.714285714285722" dx="0em" dy="0.3em" style="text-anchor: end; visibility: inherit; font-family: &quot;Helvetica Neue&quot;, sans-serif; font-size: 12px; font-weight: 200;" fill="rgb(50, 49, 63)" stroke="none" stroke-width="1px">105</text><text x="0" y="0" dx="0em" dy="0.3em" style="text-anchor: end; visibility: hidden; font-family: &quot;Helvetica Neue&quot;, sans-serif; font-size: 12px; font-weight: 200;" fill="rgb(50, 49, 63)" stroke="none" stroke-width="1px">110</text></g><line x1="40" y1="0" x2="40" y2="178" fill="rgb(0, 0, 0)" stroke="rgb(204, 204, 204)" stroke-width="1px"></line></g></g><g transform="translate(40, 0)" clip-path="url(#clip_0)"><clipPath id="clip_0"><rect width="290" height="177"></rect></clipPath><g><g><g><line x1="0" y1="0" x2="0" y2="178" fill="rgb(0, 0, 0)" stroke="rgb(60, 60, 60)" stroke-width="1px" opacity="0.25"></line><line x1="24.166666666666664" y1="0" x2="24.166666666666664" y2="178" fill="rgb(0, 0, 0)" stroke="rgb(60, 60, 60)" stroke-width="1px" opacity="0.25"></line><line x1="48.33333333333333" y1="0" x2="48.33333333333333" y2="178" fill="rgb(0, 0, 0)" stroke="rgb(60, 60, 60)" stroke-width="1px" opacity="0.25"></line><line x1="72.5" y1="0" x2="72.5" y2="178" fill="rgb(0, 0, 0)" stroke="rgb(60, 60, 60)" stroke-width="1px" opacity="0.25"></line><line x1="96.66666666666666" y1="0" x2="96.66666666666666" y2="178" fill="rgb(0, 0, 0)" stroke="rgb(60, 60, 60)" stroke-width="1px" opacity="0.25"></line><line x1="120.83333333333334" y1="0" x2="120.83333333333334" y2="178" fill="rgb(0, 0, 0)" stroke="rgb(60, 60, 60)" stroke-width="1px" opacity="0.25"></line><line x1="145" y1="0" x2="145" y2="178" fill="rgb(0, 0, 0)" stroke="rgb(60, 60, 60)" stroke-width="1px" opacity="0.25"></line><line x1="169.16666666666669" y1="0" x2="169.16666666666669" y2="178" fill="rgb(0, 0, 0)" stroke="rgb(60, 60, 60)" stroke-width="1px" opacity="0.25"></line><line x1="193.33333333333331" y1="0" x2="193.33333333333331" y2="178" fill="rgb(0, 0, 0)" stroke="rgb(60, 60, 60)" stroke-width="1px" opacity="0.25"></line><line x1="217.5" y1="0" x2="217.5" y2="178" fill="rgb(0, 0, 0)" stroke="rgb(60, 60, 60)" stroke-width="1px" opacity="0.25"></line><line x1="241.66666666666669" y1="0" x2="241.66666666666669" y2="178" fill="rgb(0, 0, 0)" stroke="rgb(60, 60, 60)" stroke-width="1px" opacity="0.25"></line><line x1="265.8333333333333" y1="0" x2="265.8333333333333" y2="178" fill="rgb(0, 0, 0)" stroke="rgb(60, 60, 60)" stroke-width="1px" opacity="0.25"></line><line x1="290" y1="0" x2="290" y2="178" fill="rgb(0, 0, 0)" stroke="rgb(60, 60, 60)" stroke-width="1px" opacity="0.25"></line></g><g><line x1="0" y1="178" x2="290" y2="178" fill="rgb(0, 0, 0)" stroke="rgb(60, 60, 60)" stroke-width="1px" opacity="0.25"></line><line x1="0" y1="165.28571428571428" x2="290" y2="165.28571428571428" fill="rgb(0, 0, 0)" stroke="rgb(60, 60, 60)" stroke-width="1px" opacity="0.25"></line><line x1="0" y1="152.57142857142858" x2="290" y2="152.57142857142858" fill="rgb(0, 0, 0)" stroke="rgb(60, 60, 60)" stroke-width="1px" opacity="0.25"></line><line x1="0" y1="139.85714285714286" x2="290" y2="139.85714285714286" fill="rgb(0, 0, 0)" stroke="rgb(60, 60, 60)" stroke-width="1px" opacity="0.25"></line><line x1="0" y1="127.14285714285714" x2="290" y2="127.14285714285714" fill="rgb(0, 0, 0)" stroke="rgb(60, 60, 60)" stroke-width="1px" opacity="0.25"></line><line x1="0" y1="114.42857142857143" x2="290" y2="114.42857142857143" fill="rgb(0, 0, 0)" stroke="rgb(60, 60, 60)" stroke-width="1px" opacity="0.25"></line><line x1="0" y1="101.71428571428572" x2="290" y2="101.71428571428572" fill="rgb(0, 0, 0)" stroke="rgb(60, 60, 60)" stroke-width="1px" opacity="0.25"></line><line x1="0" y1="89" x2="290" y2="89" fill="rgb(0, 0, 0)" stroke="rgb(60, 60, 60)" stroke-width="1px" opacity="0.25"></line><line x1="0" y1="76.28571428571429" x2="290" y2="76.28571428571429" fill="rgb(0, 0, 0)" stroke="rgb(60, 60, 60)" stroke-width="1px" opacity="0.25"></line><line x1="0" y1="63.57142857142857" x2="290" y2="63.57142857142857" fill="rgb(0, 0, 0)" stroke="rgb(60, 60, 60)" stroke-width="1px" opacity="0.25"></line><line x1="0" y1="50.85714285714286" x2="290" y2="50.85714285714286" fill="rgb(0, 0, 0)" stroke="rgb(60, 60, 60)" stroke-width="1px" opacity="0.25"></line><line x1="0" y1="38.14285714285714" x2="290" y2="38.14285714285714" fill="rgb(0, 0, 0)" stroke="rgb(60, 60, 60)" stroke-width="1px" opacity="0.25"></line><line x1="0" y1="25.428571428571445" x2="290" y2="25.428571428571445" fill="rgb(0, 0, 0)" stroke="rgb(60, 60, 60)" stroke-width="1px" opacity="0.25"></line><line x1="0" y1="12.714285714285722" x2="290" y2="12.714285714285722" fill="rgb(0, 0, 0)" stroke="rgb(60, 60, 60)" stroke-width="1px" opacity="0.25"></line><line x1="0" y1="0" x2="290" y2="0" fill="rgb(0, 0, 0)" stroke="rgb(60, 60, 60)" stroke-width="1px" opacity="0.25"></line></g></g></g><g><g><line x1="0" y1="279.7142857142857" x2="290" y2="279.7142857142857" fill="rgb(0, 0, 0)" stroke="rgb(153, 153, 153)" stroke-width="1.5px"></line></g></g><g><g><line x1="24.166666666666664" y1="0" x2="24.166666666666664" y2="178" fill="rgb(0, 0, 0)" stroke="rgb(153, 153, 153)" stroke-width="1.5px"></line></g></g><g><g><g><g><g><path stroke="rgb(51, 187, 238)" stroke-width="2px" d="M24.166666666666664,168.6916106087821L26.583333333333332,156.31014585494995L29,143.29539340717105L31.416666666666668,131.4842468750577L33.833333333333336,126.07246703360329L36.25,118.41113815319322L38.666666666666664,115.066919406619L41.083333333333336,110.36299896356019L43.5,103.0399663554298L45.916666666666664,97.28678916070939L48.33333333333333,92.39705095532665L50.75,87.79004023095641L53.166666666666664,86.14959540120974L55.583333333333336,83.39968795722609L58,79.17915899859166L60.41666666666667,78.41423839919712L62.833333333333336,75.35598209624385L65.25,73.39422716276479L67.66666666666667,69.08135213657688L70.08333333333333,71.56486530508114L72.5,66.260623938844L74.91666666666667,63.78441724538233L77.33333333333333,60.50482471236295L79.75,57.15282532062203L82.16666666666667,56.56826440098537L84.58333333333334,55.97740512502028L87,54.26688975832843L89.41666666666667,55.345206974635204L91.83333333333333,53.25194292382798L94.25,49.73598605680951L96.66666666666666,49.43441141830232L99.08333333333333,45.905831593870204L101.5,45.78031971623267L103.91666666666667,44.53263497898081L106.33333333333333,44.81514312603409L108.75,43.176649248089774L111.16666666666667,42.92805436665134L113.58333333333333,44.94002337104422L116,43.477577251790194L118.41666666666667,41.48423390072534L120.83333333333334,41.02272932234743L123.25,40.067827046073916L125.66666666666667,39.410128949273656L128.08333333333334,41.346141718392914L130.5,40.07824524644519L132.91666666666666,40.41925950837947L135.33333333333334,39.14074167038163L137.75,39.88501219323339L140.16666666666666,42.91644528682352L142.58333333333331,38.53442135383881L145,38.73020891233219L147.41666666666666,38.84768144742759L149.83333333333334,37.463293403889395L152.25,35.38965756088618L154.66666666666666,35.190734059411L157.08333333333331,34.054376784697524L159.5,33.132431281476784L161.91666666666666,34.71214283347891L164.33333333333334,32.53834256741416L166.75,34.7935657559899L169.16666666666669,33.378191891512415L171.58333333333334,33.461221775532465L174,31.420539217663247L176.41666666666666,30.86000567694282L178.83333333333334,30.83443436668466L181.25,30.5507133718244L183.66666666666666,30.126233861543284L186.08333333333334,31.05804727144607L188.5,30.261136259072998L190.91666666666666,30.75761445982434L193.33333333333331,30.12325493775282L195.75,32.11564145665281L198.16666666666666,31.19231804921489L200.58333333333334,29.847320673976498L203,30.198576294592357L205.41666666666669,30.32458069584024L207.83333333333334,29.835179848865778L210.25,29.555662875837328L212.66666666666666,28.752331528515782L215.08333333333334,28.84945198281818L217.5,29.4586042079666L219.91666666666666,28.369216218278837L222.33333333333334,28.591335726363496L224.75,30.49023557016517L227.16666666666666,28.70569329173634L229.58333333333331,28.058720540471484L232,29.53503753494138L234.41666666666666,30.011206411171287L236.83333333333334,30.04266082354428L239.25,29.086900902608704L241.66666666666669,28.866572129874413L244.08333333333334,28.1411243081981L246.5,28.708727493680016L248.91666666666666,28.484293677430117L251.33333333333334,28.321378557183493L253.75,28.011760937323487L256.1666666666667,27.727110098945445L258.58333333333337,28.17782498445098L261,27.8408798225623L263.4166666666667,30.901590794625548" style="fill: none;" fill="none"></path></g><g><path stroke="rgb(204, 51, 17)" stroke-width="2px" d="M29,185.53288994169097L31.416666666666668,174.94997373949582L33.833333333333336,168.2595590239913L36.25,161.67720031504143L38.666666666666664,157.11246539705326L41.083333333333336,150.81982271927893L43.5,140.28934207749705L45.916666666666664,135.6383395556491L48.33333333333333,128.47935256793002L50.75,128.5806892715616L53.166666666666664,116.30827779897162L55.583333333333336,113.32906061216654L58,114.32558348882192L60.41666666666667,102.20532369193664L62.833333333333336,104.47268514657094L65.25,105.8328563697302L67.66666666666667,103.07275991838682L70.08333333333333,99.0327939577614L72.5,95.81424862672965L74.91666666666667,95.47247324896057L77.33333333333333,89.70486697227503L79.75,89.42291884738732L82.16666666666667,90.44571850199554L84.58333333333334,87.08617537043061L87,87.45438417054507L89.41666666666667,82.11280579352321L91.83333333333333,84.07304134123268L94.25,79.68668097788688L96.66666666666666,78.24682982431545L99.08333333333333,76.58827633401921L101.5,70.03064405870029L103.91666666666667,74.4398151329767L106.33333333333333,71.52281760106933L108.75,68.58065481600917L111.16666666666667,66.81535716439494L113.58333333333333,63.37225000013778L116,70.84210001672486L118.41666666666667,65.78829571756494L120.83333333333334,60.37208456905208L123.25,58.71164359777508L125.66666666666667,65.66180758924322L128.08333333333334,61.48815598139436L130.5,61.3678935888241L132.91666666666666,57.71984329592408L135.33333333333334,55.133691691743394L137.75,53.97932215787729L140.16666666666666,50.505450437536666L142.58333333333331,55.1755916911312L145,60.3616050147039L147.41666666666666,55.52678443737972L149.83333333333334,51.43392780527783L152.25,53.348749540311545L154.66666666666666,51.31907115275712L157.08333333333331,49.70394269165365L159.5,47.94022275784894L161.91666666666666,53.23913365471009L164.33333333333334,53.239908764254594L166.75,50.06180240140979L169.16666666666669,51.33351001227447L171.58333333333334,47.32867743593607L174,46.117742175847326L176.41666666666666,43.801895305508395L178.83333333333334,46.38560146901935L181.25,43.1679680242687L183.66666666666666,42.429352243132655L186.08333333333334,43.97278991730818L188.5,44.50153109324208L190.91666666666666,41.24288294165953L193.33333333333331,43.658229764995724L195.75,41.92886643042601L198.16666666666666,41.685891286827L200.58333333333334,41.54010620066765L203,41.05531372040062L205.41666666666669,37.983188232240394L207.83333333333334,40.51044865362991L210.25,45.20537633503511L212.66666666666666,41.267868658163906L215.08333333333334,41.289292623469805L217.5,41.30214700265333L219.91666666666666,40.912538201591985L222.33333333333334,44.25466577809809L224.75,40.3001208954303L227.16666666666666,39.51667968011532L229.58333333333331,38.25197209378345L232,42.6583261134129L234.41666666666666,40.931602810904906L236.83333333333334,38.306283115114354L239.25,35.93644844049717L241.66666666666669,38.48776192144115L244.08333333333334,40.813192867150406L246.5,38.2352371488617L248.91666666666666,38.277749432174176L251.33333333333334,40.289863945018794L253.75,37.52391836701128L256.1666666666667,36.658993877349616L258.58333333333337,35.742717754981214L261,37.97420208156015L263.4166666666667,40.50505696322185" style="fill: none;" fill="none"></path></g></g></g></g><g opacity="0.2"><g><g><g><path stroke="rgb(51, 187, 238)" stroke-width="2px" d="M24.166666666666664,168.6916106087821L26.583333333333332,148.88126700265067L29,130.80123105730328L31.416666666666668,117.5943385532924L33.833333333333336,119.00684727260045L36.25,107.81276223318918L38.666666666666664,110.28463309151786L41.083333333333336,103.50463779994419L43.5,92.23991568429129L45.916666666666664,88.74399152483258L48.33333333333333,85.10679321289062L50.75,80.90459529331751L53.166666666666664,83.69428449358259L55.583333333333336,79.28021414620537L58,72.85332663399834L60.41666666666667,77.26739698137555L62.833333333333336,70.76989179338727L65.25,70.45209285191127L67.66666666666667,62.61269662039619L70.08333333333333,75.28990805489677L72.5,58.30455278669085L74.91666666666667,60.07018868582588L77.33333333333333,55.585500662667414L79.75,52.124865940638955L82.16666666666667,55.69142717633929L84.58333333333334,55.09111873081751L87,51.70112108503069L89.41666666666667,56.96268114362445L91.83333333333333,50.11204877580914L94.25,44.462052699497775L96.66666666666666,48.98204956054687L99.08333333333333,40.612962559291304L101.5,45.59205191476005L103.91666666666667,42.6611079624721L106.33333333333333,45.23890533447266L108.75,40.71890847342354L111.16666666666667,42.55516204833984L113.58333333333333,47.95797685895647L116,41.283908081054705L118.41666666666667,38.49421888078962L120.83333333333334,40.330472455705916L123.25,38.635473632812506L125.66666666666667,38.42358180454801L128.08333333333334,44.25016087123325L130.5,38.176400538853244L132.91666666666666,40.93078090122768L135.33333333333334,37.222964913504455L137.75,41.001417977469316L140.16666666666666,47.463594927106584L142.58333333333331,31.96138545445035L145,39.02389025006974L147.41666666666666,39.02389025006974L149.83333333333334,35.38671133858816L152.25,32.279203796386724L154.66666666666666,34.89234880719866L157.08333333333331,32.349840872628334L159.5,31.749513026646213L161.91666666666666,37.081710161481595L164.33333333333334,29.277642168317527L166.75,38.176400538853244L169.16666666666669,31.255131094796326L171.58333333333334,33.58576660156248L174,28.359515380859392L176.41666666666666,30.01920536586215L178.83333333333334,30.796077401297424L181.25,30.125131879534024L183.66666666666666,29.489514596121666L186.08333333333334,32.45576738630021L188.5,29.06576974051339L190.91666666666666,31.50233176095145L193.33333333333331,29.171715654645652L195.75,35.1042212350028L198.16666666666666,29.80733293805804L200.58333333333334,27.829824611118852L203,30.725459725516174L205.41666666666669,30.513587297712064L207.83333333333334,29.101078578404014L210.25,29.13638741629464L212.66666666666666,27.547334507533492L215.08333333333334,28.99513266427175L217.5,30.372332545689176L219.91666666666666,26.735134233747203L222.33333333333334,28.9245149884905L224.75,33.33858533586775L227.16666666666666,26.028879874093178L229.58333333333331,27.0882614135742L232,31.749513026646213L234.41666666666666,30.725459725516174L236.83333333333334,30.089842442103787L239.25,27.653261021205367L241.66666666666669,28.536078970772877L244.08333333333334,27.052952575683577L246.5,29.560132271902916L248.91666666666666,28.147642953055254L251.33333333333334,28.077005876813615L253.75,27.547334507533492L256.1666666666667,27.30013384137834L258.58333333333337,28.85389731270925L261,27.335462079729353L263.4166666666667,35.49265725272042" style="fill: none;" fill="none"></path></g><g><path stroke="rgb(204, 51, 17)" stroke-width="2px" d="M29,185.35044642857142L31.416666666666668,162.50446428571428L33.833333333333336,159.52455357142856L36.25,152.57142857142858L38.666666666666664,150.58482142857142L41.083333333333336,141.64508928571428L43.5,124.75892857142857L45.916666666666664,128.73214285714286L48.33333333333333,117.80580357142857L50.75,128.73214285714286L53.166666666666664,97.93973214285714L55.583333333333336,108.86607142857143L58,115.81919642857143L60.41666666666667,84.03348214285714L62.833333333333336,107.87276785714286L65.25,107.87276785714286L67.66666666666667,98.93303571428572L70.08333333333333,92.97321428571428L72.5,90.98660714285714L74.91666666666667,94.95982142857143L77.33333333333333,81.05357142857143L79.75,89L82.16666666666667,91.97991071428572L84.58333333333334,82.046875L87,88.00669642857143L89.41666666666667,74.10044642857143L91.83333333333333,87.01339285714286L94.25,73.10714285714286L96.66666666666666,76.08705357142857L99.08333333333333,74.10044642857143L101.5,60.19419642857143L103.91666666666667,81.05357142857143L106.33333333333333,67.14732142857143L108.75,64.16741071428571L111.16666666666667,64.16741071428571L113.58333333333333,58.20758928571429L116,82.046875L118.41666666666667,58.20758928571429L120.83333333333334,52.24776785714286L123.25,56.22098214285714L125.66666666666667,76.08705357142857L128.08333333333334,55.22767857142857L130.5,61.1875L132.91666666666666,52.24776785714286L135.33333333333334,51.25446428571429L137.75,52.24776785714286L140.16666666666666,45.29464285714286L142.58333333333331,62.18080357142857L145,68.140625L147.41666666666666,48.274553571428555L149.83333333333334,45.29464285714286L152.25,56.22098214285714L154.66666666666666,48.274553571428555L157.08333333333331,47.28125L159.5,45.29464285714286L161.91666666666666,61.1875L164.33333333333334,53.24107142857143L166.75,45.29464285714286L169.16666666666669,53.24107142857143L171.58333333333334,41.321428571428555L174,44.30133928571428L176.41666666666666,40.328125L178.83333333333334,50.26116071428571L181.25,38.34151785714286L183.66666666666666,41.321428571428555L186.08333333333334,46.287946428571445L188.5,45.29464285714286L190.91666666666666,36.35491071428572L193.33333333333331,47.28125L195.75,39.334821428571445L198.16666666666666,41.321428571428555L200.58333333333334,41.321428571428555L203,40.328125L205.41666666666669,33.375L207.83333333333334,44.30133928571428L210.25,52.24776785714286L212.66666666666666,35.36160714285714L215.08333333333334,41.321428571428555L217.5,41.321428571428555L219.91666666666666,40.328125L222.33333333333334,49.26785714285714L224.75,34.368303571428555L227.16666666666666,38.34151785714286L229.58333333333331,36.35491071428572L232,49.26785714285714L234.41666666666666,38.34151785714286L236.83333333333334,34.368303571428555L239.25,32.381696428571445L241.66666666666669,42.31473214285714L244.08333333333334,44.30133928571428L246.5,34.368303571428555L248.91666666666666,38.34151785714286L251.33333333333334,43.30803571428572L253.75,33.375L256.1666666666667,35.36160714285714L258.58333333333337,34.368303571428555L261,41.321428571428555L263.4166666666667,44.30133928571428" style="fill: none;" fill="none"></path></g></g></g></g></g></g><g transform="translate(40, 178)" clip-path="url(#clip_1)"><clipPath id="clip_1"><rect width="290" height="21"></rect></clipPath><g><g><line x1="0" y1="0" x2="0" y2="5" style="visibility: inherit;" fill="rgb(0, 0, 0)" stroke="rgb(204, 204, 204)" stroke-width="1px"></line><line x1="24.166666666666664" y1="0" x2="24.166666666666664" y2="5" style="visibility: inherit;" fill="rgb(0, 0, 0)" stroke="rgb(204, 204, 204)" stroke-width="1px"></line><line x1="48.33333333333333" y1="0" x2="48.33333333333333" y2="5" style="visibility: inherit;" fill="rgb(0, 0, 0)" stroke="rgb(204, 204, 204)" stroke-width="1px"></line><line x1="72.5" y1="0" x2="72.5" y2="5" style="visibility: inherit;" fill="rgb(0, 0, 0)" stroke="rgb(204, 204, 204)" stroke-width="1px"></line><line x1="96.66666666666666" y1="0" x2="96.66666666666666" y2="5" style="visibility: inherit;" fill="rgb(0, 0, 0)" stroke="rgb(204, 204, 204)" stroke-width="1px"></line><line x1="120.83333333333334" y1="0" x2="120.83333333333334" y2="5" style="visibility: inherit;" fill="rgb(0, 0, 0)" stroke="rgb(204, 204, 204)" stroke-width="1px"></line><line x1="145" y1="0" x2="145" y2="5" style="visibility: inherit;" fill="rgb(0, 0, 0)" stroke="rgb(204, 204, 204)" stroke-width="1px"></line><line x1="169.16666666666669" y1="0" x2="169.16666666666669" y2="5" style="visibility: inherit;" fill="rgb(0, 0, 0)" stroke="rgb(204, 204, 204)" stroke-width="1px"></line><line x1="193.33333333333331" y1="0" x2="193.33333333333331" y2="5" style="visibility: inherit;" fill="rgb(0, 0, 0)" stroke="rgb(204, 204, 204)" stroke-width="1px"></line><line x1="217.5" y1="0" x2="217.5" y2="5" style="visibility: inherit;" fill="rgb(0, 0, 0)" stroke="rgb(204, 204, 204)" stroke-width="1px"></line><line x1="241.66666666666669" y1="0" x2="241.66666666666669" y2="5" style="visibility: inherit;" fill="rgb(0, 0, 0)" stroke="rgb(204, 204, 204)" stroke-width="1px"></line><line x1="265.8333333333333" y1="0" x2="265.8333333333333" y2="5" style="visibility: inherit;" fill="rgb(0, 0, 0)" stroke="rgb(204, 204, 204)" stroke-width="1px"></line><line x1="290" y1="0" x2="290" y2="5" style="visibility: inherit;" fill="rgb(0, 0, 0)" stroke="rgb(204, 204, 204)" stroke-width="1px"></line></g><g transform="translate(0, 8)"><text x="0" y="0" dx="0em" dy="0.95em" style="text-anchor: middle; visibility: hidden; font-family: &quot;Helvetica Neue&quot;, sans-serif; font-size: 12px; font-weight: 200;" fill="rgb(50, 49, 63)" stroke="none" stroke-width="1px">-10</text><text x="24.166666666666664" y="0" dx="0em" dy="0.95em" style="text-anchor: middle; visibility: inherit; font-family: &quot;Helvetica Neue&quot;, sans-serif; font-size: 12px; font-weight: 200;" fill="rgb(50, 49, 63)" stroke="none" stroke-width="1px">0</text><text x="48.33333333333333" y="0" dx="0em" dy="0.95em" style="text-anchor: middle; visibility: inherit; font-family: &quot;Helvetica Neue&quot;, sans-serif; font-size: 12px; font-weight: 200;" fill="rgb(50, 49, 63)" stroke="none" stroke-width="1px">10</text><text x="72.5" y="0" dx="0em" dy="0.95em" style="text-anchor: middle; visibility: inherit; font-family: &quot;Helvetica Neue&quot;, sans-serif; font-size: 12px; font-weight: 200;" fill="rgb(50, 49, 63)" stroke="none" stroke-width="1px">20</text><text x="96.66666666666666" y="0" dx="0em" dy="0.95em" style="text-anchor: middle; visibility: inherit; font-family: &quot;Helvetica Neue&quot;, sans-serif; font-size: 12px; font-weight: 200;" fill="rgb(50, 49, 63)" stroke="none" stroke-width="1px">30</text><text x="120.83333333333334" y="0" dx="0em" dy="0.95em" style="text-anchor: middle; visibility: inherit; font-family: &quot;Helvetica Neue&quot;, sans-serif; font-size: 12px; font-weight: 200;" fill="rgb(50, 49, 63)" stroke="none" stroke-width="1px">40</text><text x="145" y="0" dx="0em" dy="0.95em" style="text-anchor: middle; visibility: inherit; font-family: &quot;Helvetica Neue&quot;, sans-serif; font-size: 12px; font-weight: 200;" fill="rgb(50, 49, 63)" stroke="none" stroke-width="1px">50</text><text x="169.16666666666669" y="0" dx="0em" dy="0.95em" style="text-anchor: middle; visibility: inherit; font-family: &quot;Helvetica Neue&quot;, sans-serif; font-size: 12px; font-weight: 200;" fill="rgb(50, 49, 63)" stroke="none" stroke-width="1px">60</text><text x="193.33333333333331" y="0" dx="0em" dy="0.95em" style="text-anchor: middle; visibility: inherit; font-family: &quot;Helvetica Neue&quot;, sans-serif; font-size: 12px; font-weight: 200;" fill="rgb(50, 49, 63)" stroke="none" stroke-width="1px">70</text><text x="217.5" y="0" dx="0em" dy="0.95em" style="text-anchor: middle; visibility: inherit; font-family: &quot;Helvetica Neue&quot;, sans-serif; font-size: 12px; font-weight: 200;" fill="rgb(50, 49, 63)" stroke="none" stroke-width="1px">80</text><text x="241.66666666666669" y="0" dx="0em" dy="0.95em" style="text-anchor: middle; visibility: inherit; font-family: &quot;Helvetica Neue&quot;, sans-serif; font-size: 12px; font-weight: 200;" fill="rgb(50, 49, 63)" stroke="none" stroke-width="1px">90</text><text x="265.8333333333333" y="0" dx="0em" dy="0.95em" style="text-anchor: middle; visibility: inherit; font-family: &quot;Helvetica Neue&quot;, sans-serif; font-size: 12px; font-weight: 200;" fill="rgb(50, 49, 63)" stroke="none" stroke-width="1px">100</text><text x="290" y="0" dx="0em" dy="0.95em" style="text-anchor: middle; visibility: hidden; font-family: &quot;Helvetica Neue&quot;, sans-serif; font-size: 12px; font-weight: 200;" fill="rgb(50, 49, 63)" stroke="none" stroke-width="1px">110</text></g><line x1="0" y1="0" x2="290" y2="0" fill="rgb(0, 0, 0)" stroke="rgb(204, 204, 204)" stroke-width="1px"></line></g></g></g></g></svg>