<svg viewBox="0 0 330.0000305175781 200.00001525878906" xmlns="http://www.w3.org/2000/svg"><g><g><g><g><g><line x1="40" y1="178" x2="35" y2="178" style="visibility: inherit;" fill="rgb(0, 0, 0)" stroke="rgb(204, 204, 204)" stroke-width="1px"></line><line x1="40" y1="165.28571428571428" x2="35" y2="165.28571428571428" style="visibility: inherit;" fill="rgb(0, 0, 0)" stroke="rgb(204, 204, 204)" stroke-width="1px"></line><line x1="40" y1="152.57142857142858" x2="35" y2="152.57142857142858" style="visibility: inherit;" fill="rgb(0, 0, 0)" stroke="rgb(204, 204, 204)" stroke-width="1px"></line><line x1="40" y1="139.85714285714286" x2="35" y2="139.85714285714286" style="visibility: inherit;" fill="rgb(0, 0, 0)" stroke="rgb(204, 204, 204)" stroke-width="1px"></line><line x1="40" y1="127.14285714285714" x2="35" y2="127.14285714285714" style="visibility: inherit;" fill="rgb(0, 0, 0)" stroke="rgb(204, 204, 204)" stroke-width="1px"></line><line x1="40" y1="114.42857142857143" x2="35" y2="114.42857142857143" style="visibility: inherit;" fill="rgb(0, 0, 0)" stroke="rgb(204, 204, 204)" stroke-width="1px"></line><line x1="40" y1="101.71428571428572" x2="35" y2="101.71428571428572" style="visibility: inherit;" fill="rgb(0, 0, 0)" stroke="rgb(204, 204, 204)" stroke-width="1px"></line><line x1="40" y1="89" x2="35" y2="89" style="visibility: inherit;" fill="rgb(0, 0, 0)" stroke="rgb(204, 204, 204)" stroke-width="1px"></line><line x1="40" y1="76.28571428571429" x2="35" y2="76.28571428571429" style="visibility: inherit;" fill="rgb(0, 0, 0)" stroke="rgb(204, 204, 204)" stroke-width="1px"></line><line x1="40" y1="63.57142857142857" x2="35" y2="63.57142857142857" style="visibility: inherit;" fill="rgb(0, 0, 0)" stroke="rgb(204, 204, 204)" stroke-width="1px"></line><line x1="40" y1="50.85714285714286" x2="35" y2="50.85714285714286" style="visibility: inherit;" fill="rgb(0, 0, 0)" stroke="rgb(204, 204, 204)" stroke-width="1px"></line><line x1="40" y1="38.14285714285714" x2="35" y2="38.14285714285714" style="visibility: inherit;" fill="rgb(0, 0, 0)" stroke="rgb(204, 204, 204)" stroke-width="1px"></line><line x1="40" y1="25.428571428571445" x2="35" y2="25.428571428571445" style="visibility: inherit;" fill="rgb(0, 0, 0)" stroke="rgb(204, 204, 204)" stroke-width="1px"></line><line x1="40" y1="12.714285714285722" x2="35" y2="12.714285714285722" style="visibility: inherit;" fill="rgb(0, 0, 0)" stroke="rgb(204, 204, 204)" stroke-width="1px"></line><line x1="40" y1="0" x2="35" y2="0" style="visibility: inherit;" fill="rgb(0, 0, 0)" stroke="rgb(204, 204, 204)" stroke-width="1px"></line></g><g transform="translate(30, 0)"><text x="0" y="178" dx="0em" dy="0.3em" style="text-anchor: end; visibility: hidden; font-family: &quot;Helvetica Neue&quot;, sans-serif; font-size: 12px; font-weight: 200;" fill="rgb(50, 49, 63)" stroke="none" stroke-width="1px">40</text><text x="0" y="165.28571428571428" dx="0em" dy="0.3em" style="text-anchor: end; visibility: inherit; font-family: &quot;Helvetica Neue&quot;, sans-serif; font-size: 12px; font-weight: 200;" fill="rgb(50, 49, 63)" stroke="none" stroke-width="1px">45</text><text x="0" y="152.57142857142858" dx="0em" dy="0.3em" style="text-anchor: end; visibility: hidden; font-family: &quot;Helvetica Neue&quot;, sans-serif; font-size: 12px; font-weight: 200;" fill="rgb(50, 49, 63)" stroke="none" stroke-width="1px">50</text><text x="0" y="139.85714285714286" dx="0em" dy="0.3em" style="text-anchor: end; visibility: inherit; font-family: &quot;Helvetica Neue&quot;, sans-serif; font-size: 12px; font-weight: 200;" fill="rgb(50, 49, 63)" stroke="none" stroke-width="1px">55</text><text x="0" y="127.14285714285714" dx="0em" dy="0.3em" style="text-anchor: end; visibility: hidden; font-family: &quot;Helvetica Neue&quot;, sans-serif; font-size: 12px; font-weight: 200;" fill="rgb(50, 49, 63)" stroke="none" stroke-width="1px">60</text><text x="0" y="114.42857142857143" dx="0em" dy="0.3em" style="text-anchor: end; visibility: inherit; font-family: &quot;Helvetica Neue&quot;, sans-serif; font-size: 12px; font-weight: 200;" fill="rgb(50, 49, 63)" stroke="none" stroke-width="1px">65</text><text x="0" y="101.71428571428572" dx="0em" dy="0.3em" style="text-anchor: end; visibility: hidden; font-family: &quot;Helvetica Neue&quot;, sans-serif; font-size: 12px; font-weight: 200;" fill="rgb(50, 49, 63)" stroke="none" stroke-width="1px">70</text><text x="0" y="89" dx="0em" dy="0.3em" style="text-anchor: end; visibility: inherit; font-family: &quot;Helvetica Neue&quot;, sans-serif; font-size: 12px; font-weight: 200;" fill="rgb(50, 49, 63)" stroke="none" stroke-width="1px">75</text><text x="0" y="76.28571428571429" dx="0em" dy="0.3em" style="text-anchor: end; visibility: hidden; font-family: &quot;Helvetica Neue&quot;, sans-serif; font-size: 12px; font-weight: 200;" fill="rgb(50, 49, 63)" stroke="none" stroke-width="1px">80</text><text x="0" y="63.57142857142857" dx="0em" dy="0.3em" style="text-anchor: end; visibility: inherit; font-family: &quot;Helvetica Neue&quot;, sans-serif; font-size: 12px; font-weight: 200;" fill="rgb(50, 49, 63)" stroke="none" stroke-width="1px">85</text><text x="0" y="50.85714285714286" dx="0em" dy="0.3em" style="text-anchor: end; visibility: hidden; font-family: &quot;Helvetica Neue&quot;, sans-serif; font-size: 12px; font-weight: 200;" fill="rgb(50, 49, 63)" stroke="none" stroke-width="1px">90</text><text x="0" y="38.14285714285714" dx="0em" dy="0.3em" style="text-anchor: end; visibility: inherit; font-family: &quot;Helvetica Neue&quot;, sans-serif; font-size: 12px; font-weight: 200;" fill="rgb(50, 49, 63)" stroke="none" stroke-width="1px">95</text><text x="0" y="25.428571428571445" dx="0em" dy="0.3em" style="text-anchor: end; visibility: hidden; font-family: &quot;Helvetica Neue&quot;, sans-serif; font-size: 12px; font-weight: 200;" fill="rgb(50, 49, 63)" stroke="none" stroke-width="1px">100</text><text x="0" y="12.714285714285722" dx="0em" dy="0.3em" style="text-anchor: end; visibility: inherit; font-family: &quot;Helvetica Neue&quot;, sans-serif; font-size: 12px; font-weight: 200;" fill="rgb(50, 49, 63)" stroke="none" stroke-width="1px">105</text><text x="0" y="0" dx="0em" dy="0.3em" style="text-anchor: end; visibility: hidden; font-family: &quot;Helvetica Neue&quot;, sans-serif; font-size: 12px; font-weight: 200;" fill="rgb(50, 49, 63)" stroke="none" stroke-width="1px">110</text></g><line x1="40" y1="0" x2="40" y2="178" fill="rgb(0, 0, 0)" stroke="rgb(204, 204, 204)" stroke-width="1px"></line></g></g><g transform="translate(40, 0)" clip-path="url(#clip_0)"><clipPath id="clip_0"><rect width="290" height="177"></rect></clipPath><g><g><g><line x1="0" y1="0" x2="0" y2="178" fill="rgb(0, 0, 0)" stroke="rgb(60, 60, 60)" stroke-width="1px" opacity="0.25"></line><line x1="24.166666666666664" y1="0" x2="24.166666666666664" y2="178" fill="rgb(0, 0, 0)" stroke="rgb(60, 60, 60)" stroke-width="1px" opacity="0.25"></line><line x1="48.33333333333333" y1="0" x2="48.33333333333333" y2="178" fill="rgb(0, 0, 0)" stroke="rgb(60, 60, 60)" stroke-width="1px" opacity="0.25"></line><line x1="72.5" y1="0" x2="72.5" y2="178" fill="rgb(0, 0, 0)" stroke="rgb(60, 60, 60)" stroke-width="1px" opacity="0.25"></line><line x1="96.66666666666666" y1="0" x2="96.66666666666666" y2="178" fill="rgb(0, 0, 0)" stroke="rgb(60, 60, 60)" stroke-width="1px" opacity="0.25"></line><line x1="120.83333333333334" y1="0" x2="120.83333333333334" y2="178" fill="rgb(0, 0, 0)" stroke="rgb(60, 60, 60)" stroke-width="1px" opacity="0.25"></line><line x1="145" y1="0" x2="145" y2="178" fill="rgb(0, 0, 0)" stroke="rgb(60, 60, 60)" stroke-width="1px" opacity="0.25"></line><line x1="169.16666666666669" y1="0" x2="169.16666666666669" y2="178" fill="rgb(0, 0, 0)" stroke="rgb(60, 60, 60)" stroke-width="1px" opacity="0.25"></line><line x1="193.33333333333331" y1="0" x2="193.33333333333331" y2="178" fill="rgb(0, 0, 0)" stroke="rgb(60, 60, 60)" stroke-width="1px" opacity="0.25"></line><line x1="217.5" y1="0" x2="217.5" y2="178" fill="rgb(0, 0, 0)" stroke="rgb(60, 60, 60)" stroke-width="1px" opacity="0.25"></line><line x1="241.66666666666669" y1="0" x2="241.66666666666669" y2="178" fill="rgb(0, 0, 0)" stroke="rgb(60, 60, 60)" stroke-width="1px" opacity="0.25"></line><line x1="265.8333333333333" y1="0" x2="265.8333333333333" y2="178" fill="rgb(0, 0, 0)" stroke="rgb(60, 60, 60)" stroke-width="1px" opacity="0.25"></line><line x1="290" y1="0" x2="290" y2="178" fill="rgb(0, 0, 0)" stroke="rgb(60, 60, 60)" stroke-width="1px" opacity="0.25"></line></g><g><line x1="0" y1="178" x2="290" y2="178" fill="rgb(0, 0, 0)" stroke="rgb(60, 60, 60)" stroke-width="1px" opacity="0.25"></line><line x1="0" y1="165.28571428571428" x2="290" y2="165.28571428571428" fill="rgb(0, 0, 0)" stroke="rgb(60, 60, 60)" stroke-width="1px" opacity="0.25"></line><line x1="0" y1="152.57142857142858" x2="290" y2="152.57142857142858" fill="rgb(0, 0, 0)" stroke="rgb(60, 60, 60)" stroke-width="1px" opacity="0.25"></line><line x1="0" y1="139.85714285714286" x2="290" y2="139.85714285714286" fill="rgb(0, 0, 0)" stroke="rgb(60, 60, 60)" stroke-width="1px" opacity="0.25"></line><line x1="0" y1="127.14285714285714" x2="290" y2="127.14285714285714" fill="rgb(0, 0, 0)" stroke="rgb(60, 60, 60)" stroke-width="1px" opacity="0.25"></line><line x1="0" y1="114.42857142857143" x2="290" y2="114.42857142857143" fill="rgb(0, 0, 0)" stroke="rgb(60, 60, 60)" stroke-width="1px" opacity="0.25"></line><line x1="0" y1="101.71428571428572" x2="290" y2="101.71428571428572" fill="rgb(0, 0, 0)" stroke="rgb(60, 60, 60)" stroke-width="1px" opacity="0.25"></line><line x1="0" y1="89" x2="290" y2="89" fill="rgb(0, 0, 0)" stroke="rgb(60, 60, 60)" stroke-width="1px" opacity="0.25"></line><line x1="0" y1="76.28571428571429" x2="290" y2="76.28571428571429" fill="rgb(0, 0, 0)" stroke="rgb(60, 60, 60)" stroke-width="1px" opacity="0.25"></line><line x1="0" y1="63.57142857142857" x2="290" y2="63.57142857142857" fill="rgb(0, 0, 0)" stroke="rgb(60, 60, 60)" stroke-width="1px" opacity="0.25"></line><line x1="0" y1="50.85714285714286" x2="290" y2="50.85714285714286" fill="rgb(0, 0, 0)" stroke="rgb(60, 60, 60)" stroke-width="1px" opacity="0.25"></line><line x1="0" y1="38.14285714285714" x2="290" y2="38.14285714285714" fill="rgb(0, 0, 0)" stroke="rgb(60, 60, 60)" stroke-width="1px" opacity="0.25"></line><line x1="0" y1="25.428571428571445" x2="290" y2="25.428571428571445" fill="rgb(0, 0, 0)" stroke="rgb(60, 60, 60)" stroke-width="1px" opacity="0.25"></line><line x1="0" y1="12.714285714285722" x2="290" y2="12.714285714285722" fill="rgb(0, 0, 0)" stroke="rgb(60, 60, 60)" stroke-width="1px" opacity="0.25"></line><line x1="0" y1="0" x2="290" y2="0" fill="rgb(0, 0, 0)" stroke="rgb(60, 60, 60)" stroke-width="1px" opacity="0.25"></line></g></g></g><g><g><line x1="0" y1="279.7142857142857" x2="290" y2="279.7142857142857" fill="rgb(0, 0, 0)" stroke="rgb(153, 153, 153)" stroke-width="1.5px"></line></g></g><g><g><line x1="24.166666666666664" y1="0" x2="24.166666666666664" y2="178" fill="rgb(0, 0, 0)" stroke="rgb(153, 153, 153)" stroke-width="1.5px"></line></g></g><g><g><g><g><g><path stroke="rgb(255, 112, 67)" stroke-width="2px" d="M24.166666666666664,155.4488951546805L26.583333333333332,146.59679852894374L29,136.7662617074505L31.416666666666668,131.1306463097324L33.833333333333336,121.12663378306607L36.25,114.24394771057311L38.666666666666664,109.0494524462344L41.083333333333336,102.77482184211264L43.5,98.47942258579009L45.916666666666664,93.86370437823342L48.33333333333333,88.24846112849836L50.75,84.11877665369013L53.166666666666664,80.58394723330106L55.583333333333336,79.01780786575802L58,76.27232011931098L60.41666666666667,72.83338975472626L62.833333333333336,70.64657723786985L65.25,68.53515247361817L67.66666666666667,66.04156034943817L70.08333333333333,63.09809746057863L72.5,63.46870041623477L74.91666666666667,61.99556635605359L77.33333333333333,60.45005204322733L79.75,58.833535005994364L82.16666666666667,57.68443100395996L84.58333333333334,55.21679130360829L87,54.26001538355018L89.41666666666667,52.07318143631517L91.83333333333333,49.98916060507872L94.25,48.87660053952226L96.66666666666666,46.69278655469006L99.08333333333333,44.982755711339024L101.5,44.35647991754482L103.91666666666667,44.35289290299113L106.33333333333333,44.10262432217428L108.75,43.166760043333596L111.16666666666667,45.58264567543782L113.58333333333333,42.524712864750626L116,41.723772680793644L118.41666666666667,41.20186231034546L120.83333333333334,42.68067453373823L123.25,40.687040060382856L125.66666666666667,38.99462664107031L128.08333333333334,37.78619833027548L130.5,38.02604264146589L132.91666666666666,38.40428350901027L135.33333333333334,37.62497271070623L137.75,37.83280937977659L140.16666666666666,36.70314745472015L142.58333333333331,36.25968458052938L145,34.53247282280702L147.41666666666666,33.840752265808334L149.83333333333334,33.742762255132135L152.25,32.705277104054744L154.66666666666666,32.23441225155088L157.08333333333331,31.9381112529951L159.5,34.17258389744492L161.91666666666666,32.61856359181496L164.33333333333334,32.92674100804655L166.75,32.84974124266276L169.16666666666669,31.659449673750515L171.58333333333334,30.834994755422173L174,33.62098621569751L176.41666666666666,33.62467695193527L178.83333333333334,31.945212926881027L181.25,31.130514771335072L183.66666666666666,30.53142366121068L186.08333333333334,30.158179147898323L188.5,31.105903844068223L190.91666666666666,31.59183061908047L193.33333333333331,30.46359891204537L195.75,29.99342999454862L198.16666666666666,28.484528891678934L200.58333333333334,28.805987982328787L203,28.750739308649514L205.41666666666669,29.6962812491127L207.83333333333334,28.96788070538281L210.25,28.72382063863148L212.66666666666666,28.839290813703457L215.08333333333334,28.61909476933255L217.5,28.376704925913145L219.91666666666666,27.762602458198558L222.33333333333334,28.910418879355518L224.75,28.165538872953732L227.16666666666666,27.773754737695242L229.58333333333331,27.345703997053533L232,29.85950762074887L234.41666666666666,29.341504830540828L236.83333333333334,28.520688333592346L239.25,28.869037668821704L241.66666666666669,28.3750444274649L244.08333333333334,27.87188613611059L246.5,29.100043389953214L248.91666666666666,27.79687069077997L251.33333333333334,27.207947330762636L253.75,26.620259033920746L256.1666666666667,27.425527612735266L258.58333333333337,27.35731215567128L261,27.040694579256552L263.4166666666667,26.72666196937311" style="fill: none;" fill="none"></path></g><g><path stroke="rgb(187, 187, 187)" stroke-width="2px" d="M26.583333333333332,180.88058035714286L29,172.01179846938777L31.416666666666668,171.75095194327733L33.833333333333336,161.27817209031429L36.25,156.79150173344715L38.666666666666664,152.19350807331548L41.083333333333336,147.49795181550846L43.5,139.91521168225228L45.916666666666664,136.6139871958417L48.33333333333333,133.05100162503416L50.75,133.70881861370748L53.166666666666664,128.53281666474203L55.583333333333336,122.25048118487499L58,113.31662385964205L60.41666666666667,115.11280246608287L62.833333333333336,114.99801919353322L65.25,112.94235274272424L67.66666666666667,104.15951931226783L70.08333333333333,99.68483370005069L72.5,96.60279689525551L74.91666666666667,96.74025137492399L77.33333333333333,91.65750354210148L79.75,91.38914371081252L82.16666666666667,86.06293536963805L84.58333333333334,84.05918637518172L87,83.25426100127571L89.41666666666667,81.97666295905698L91.83333333333333,76.44224573624203L94.25,75.50552580608944L96.66666666666666,75.34081546180575L99.08333333333333,76.43395364979692L101.5,74.70590782164624L103.91666666666667,70.88783029788102L106.33333333333333,68.59698385363308L108.75,68.41444031029702L111.16666666666667,68.3049141855004L113.58333333333333,70.22580566129005L116,68.99441196545918L118.41666666666667,62.69307574228074L120.83333333333334,60.898881158215175L123.25,61.80897155250989L125.66666666666667,61.9577043601203L128.08333333333334,62.04694404465907L130.5,58.12727356924515L132.91666666666666,54.98082842706519L135.33333333333334,54.682247056227936L137.75,54.50309823373273L140.16666666666666,55.58757322596851L142.58333333333331,53.85432964985277L145,53.2117049327657L147.41666666666666,50.83952295965251L149.83333333333334,48.22424949007265L152.25,47.84704969404325L154.66666666666666,50.00465838785591L157.08333333333331,46.92868788985524L159.5,46.27506987677015L161.91666666666666,47.86950621177661L164.33333333333334,46.442239441351546L166.75,45.188557950525166L169.16666666666669,44.43634905602937L171.58333333333334,48.355559433617714L174,46.73387137445633L176.41666666666666,42.58228711038805L178.83333333333334,43.26990798051855L181.25,46.46373050259686L183.66666666666666,42.817524015843816L186.08333333333334,41.424442980934856L188.5,41.78055864570379L190.91666666666666,38.815656615993674L193.33333333333331,40.21528682673909L195.75,39.068457810329164L198.16666666666666,39.17500325762609L200.58333333333334,38.046966240289976L203,38.16478688703114L205.41666666666669,38.235479275075846L207.83333333333334,38.67521613647406L210.25,38.54173682474158L212.66666666666666,40.05093495198781L215.08333333333334,38.175203828335555L217.5,39.03637229700132L219.91666666666666,39.95039480677224L222.33333333333334,39.7041654554919L224.75,39.159106416152326L227.16666666666666,40.81867813540569L229.58333333333331,40.62245688124344L232,39.312759843031785L234.41666666666666,39.321584477247654L236.83333333333334,36.545629257777165L239.25,38.45594898323773L241.66666666666669,37.21821224708549L244.08333333333334,37.27021306253698L246.5,37.69873498037933L248.91666666666666,40.33977670251332L251.33333333333334,39.540473164365125L253.75,36.279641041476225L256.1666666666667,35.515106053457146L258.58333333333337,34.26174220350288L261,33.50972389353032L263.4166666666667,35.442441478975354" style="fill: none;" fill="none"></path></g></g></g></g><g opacity="0.2"><g><g><g><path stroke="rgb(255, 112, 67)" stroke-width="2px" d="M24.166666666666664,155.4488951546805L26.583333333333332,141.28554055350168L29,127.32894635881696L31.416666666666668,124.5031626020159L33.833333333333336,108.06539502825056L36.25,104.72271510532924L38.666666666666664,101.6212411063058L41.083333333333336,93.62635018484933L43.5,92.14454302106584L45.916666666666664,87.00990077427456L48.33333333333333,79.87652609688894L50.75,77.94672350202288L53.166666666666664,75.29324493408203L55.583333333333336,76.67166704450335L58,72.15731571742467L60.41666666666667,67.67741960797991L62.833333333333336,67.36728384835381L65.25,65.36855141775948L67.66666666666667,62.301552036830344L70.08333333333333,58.68317217145648L72.5,64.0245845249721L74.91666666666667,59.7859137398856L77.33333333333333,58.1318110874721L79.75,56.40877859933036L82.16666666666667,55.96078316824776L84.58333333333334,51.51534227643694L87,52.8248539515904L89.41666666666667,48.79293387276786L91.83333333333333,46.86313127790177L94.25,47.2077610560826L96.66666666666666,43.41706630161832L99.08333333333333,42.41770978655134L101.5,43.41706630161832L103.91666666666667,44.3475123814174L106.33333333333333,43.7272214617048L108.75,41.762963649204806L111.16666666666667,49.20647408621653L113.58333333333333,37.93781367710659L116,40.522362409319186L118.41666666666667,40.418996756417414L120.83333333333334,44.898892865862166L123.25,37.696588352748336L125.66666666666667,36.4560065133231L128.08333333333334,35.973555864606595L130.5,38.385809108189164L132.91666666666666,38.97164481026786L135.33333333333334,36.4560065133231L137.75,38.14456438337052L140.16666666666666,35.00865456717355L142.58333333333331,35.59449026925222L145,31.941655186244418L147.41666666666666,32.803171430315274L149.83333333333334,33.59577723911832L152.25,31.1490493774414L154.66666666666666,31.52811497279575L157.08333333333331,31.493659755161843L159.5,37.52429286411831L161.91666666666666,30.287533133370545L164.33333333333334,33.38900713239397L166.75,32.73424159458705L169.16666666666669,29.874012320382263L171.58333333333334,29.598312377929688L174,37.799973406110496L176.41666666666666,33.630213056291836L178.83333333333334,29.42601688929966L181.25,29.908467538016197L183.66666666666666,29.63278699602401L186.08333333333334,29.598312377929688L188.5,32.527490888323086L190.91666666666666,32.320720781598766L193.33333333333331,28.771251351492737L195.75,29.288176618303567L198.16666666666666,26.221177237374434L200.58333333333334,29.288176618303567L203,28.667866298130576L205.41666666666669,31.114594159807467L207.83333333333334,27.875279889787947L210.25,28.357730538504455L212.66666666666666,29.01249607631138L215.08333333333334,28.28880070277623L217.5,28.01312016078404L219.91666666666666,26.841448756626676L222.33333333333334,30.63214351109096L224.75,27.048218863350996L227.16666666666666,27.18607853480748L229.58333333333331,26.70362788609097L232,33.630213056291836L234.41666666666666,28.564500645228804L236.83333333333334,27.28946358816964L239.25,29.391561671665727L241.66666666666669,27.634054565429693L244.08333333333334,27.11714869907925L246.5,30.94227927071708L248.91666666666666,25.842111642020086L251.33333333333334,26.324562290736594L253.75,25.738726588657926L256.1666666666667,28.63343048095703L258.58333333333337,27.254988970075345L261,26.56576821463449L263.4166666666667,26.255613054548007" style="fill: none;" fill="none"></path></g><g><path stroke="rgb(187, 187, 187)" stroke-width="2px" d="M24.166666666666664,193.296875L26.583333333333332,173.43080357142858L29,163.49776785714286L31.416666666666668,171.44419642857142L33.833333333333336,147.60491071428572L36.25,150.58482142857142L38.666666666666664,145.61830357142856L41.083333333333336,140.65178571428572L43.5,128.73214285714286L45.916666666666664,131.71205357142856L48.33333333333333,127.73883928571428L50.75,134.69196428571428L53.166666666666664,120.78571428571428L55.583333333333336,112.83928571428572L58,99.92633928571428L60.41666666666667,117.80580357142857L62.833333333333336,114.82589285714286L65.25,109.859375L67.66666666666667,90.98660714285714L70.08333333333333,92.97321428571428L72.5,91.97991071428572L74.91666666666667,96.94642857142857L77.33333333333333,84.03348214285714L79.75,90.98660714285714L82.16666666666667,78.07366071428571L84.58333333333334,81.05357142857143L87,82.046875L89.41666666666667,80.06026785714286L91.83333333333333,68.140625L94.25,74.10044642857143L96.66666666666666,75.09375L99.08333333333333,78.07366071428571L101.5,72.11383928571429L103.91666666666667,65.16071428571429L106.33333333333333,65.16071428571429L108.75,68.140625L111.16666666666667,68.140625L113.58333333333333,73.10714285714286L116,67.14732142857143L118.41666666666667,53.24107142857143L120.83333333333334,58.20758928571429L123.25,63.17410714285714L125.66666666666667,62.18080357142857L128.08333333333334,62.18080357142857L130.5,52.24776785714286L132.91666666666666,50.26116071428571L135.33333333333334,54.234375L137.75,54.234375L140.16666666666666,57.21428571428571L142.58333333333331,51.25446428571429L145,52.24776785714286L147.41666666666666,47.28125L149.83333333333334,44.30133928571428L152.25,47.28125L154.66666666666666,53.24107142857143L157.08333333333331,42.31473214285714L159.5,45.29464285714286L161.91666666666666,50.26116071428571L164.33333333333334,44.30133928571428L166.75,43.30803571428572L169.16666666666669,43.30803571428572L171.58333333333334,54.234375L174,44.30133928571428L176.41666666666666,36.35491071428572L178.83333333333334,44.30133928571428L181.25,51.25446428571429L183.66666666666666,37.34821428571428L186.08333333333334,39.334821428571445L188.5,42.31473214285714L190.91666666666666,34.368303571428555L193.33333333333331,42.31473214285714L195.75,37.34821428571428L198.16666666666666,39.334821428571445L200.58333333333334,36.35491071428572L203,38.34151785714286L205.41666666666669,38.34151785714286L207.83333333333334,39.334821428571445L210.25,38.34151785714286L212.66666666666666,42.31473214285714L215.08333333333334,35.36160714285714L217.5,40.328125L219.91666666666666,41.321428571428555L222.33333333333334,39.334821428571445L224.75,38.34151785714286L227.16666666666666,43.30803571428572L229.58333333333331,40.328125L232,37.34821428571428L234.41666666666666,39.334821428571445L236.83333333333334,32.381696428571445L239.25,41.321428571428555L241.66666666666669,35.36160714285714L244.08333333333334,37.34821428571428L246.5,38.34151785714286L248.91666666666666,44.30133928571428L251.33333333333334,38.34151785714286L253.75,31.38839285714286L256.1666666666667,34.368303571428555L258.58333333333337,32.381696428571445L261,32.381696428571445L263.4166666666667,38.34151785714286" style="fill: none;" fill="none"></path></g></g></g></g></g></g><g transform="translate(40, 178)" clip-path="url(#clip_1)"><clipPath id="clip_1"><rect width="290" height="21"></rect></clipPath><g><g><line x1="0" y1="0" x2="0" y2="5" style="visibility: inherit;" fill="rgb(0, 0, 0)" stroke="rgb(204, 204, 204)" stroke-width="1px"></line><line x1="24.166666666666664" y1="0" x2="24.166666666666664" y2="5" style="visibility: inherit;" fill="rgb(0, 0, 0)" stroke="rgb(204, 204, 204)" stroke-width="1px"></line><line x1="48.33333333333333" y1="0" x2="48.33333333333333" y2="5" style="visibility: inherit;" fill="rgb(0, 0, 0)" stroke="rgb(204, 204, 204)" stroke-width="1px"></line><line x1="72.5" y1="0" x2="72.5" y2="5" style="visibility: inherit;" fill="rgb(0, 0, 0)" stroke="rgb(204, 204, 204)" stroke-width="1px"></line><line x1="96.66666666666666" y1="0" x2="96.66666666666666" y2="5" style="visibility: inherit;" fill="rgb(0, 0, 0)" stroke="rgb(204, 204, 204)" stroke-width="1px"></line><line x1="120.83333333333334" y1="0" x2="120.83333333333334" y2="5" style="visibility: inherit;" fill="rgb(0, 0, 0)" stroke="rgb(204, 204, 204)" stroke-width="1px"></line><line x1="145" y1="0" x2="145" y2="5" style="visibility: inherit;" fill="rgb(0, 0, 0)" stroke="rgb(204, 204, 204)" stroke-width="1px"></line><line x1="169.16666666666669" y1="0" x2="169.16666666666669" y2="5" style="visibility: inherit;" fill="rgb(0, 0, 0)" stroke="rgb(204, 204, 204)" stroke-width="1px"></line><line x1="193.33333333333331" y1="0" x2="193.33333333333331" y2="5" style="visibility: inherit;" fill="rgb(0, 0, 0)" stroke="rgb(204, 204, 204)" stroke-width="1px"></line><line x1="217.5" y1="0" x2="217.5" y2="5" style="visibility: inherit;" fill="rgb(0, 0, 0)" stroke="rgb(204, 204, 204)" stroke-width="1px"></line><line x1="241.66666666666669" y1="0" x2="241.66666666666669" y2="5" style="visibility: inherit;" fill="rgb(0, 0, 0)" stroke="rgb(204, 204, 204)" stroke-width="1px"></line><line x1="265.8333333333333" y1="0" x2="265.8333333333333" y2="5" style="visibility: inherit;" fill="rgb(0, 0, 0)" stroke="rgb(204, 204, 204)" stroke-width="1px"></line><line x1="290" y1="0" x2="290" y2="5" style="visibility: inherit;" fill="rgb(0, 0, 0)" stroke="rgb(204, 204, 204)" stroke-width="1px"></line></g><g transform="translate(0, 8)"><text x="0" y="0" dx="0em" dy="0.95em" style="text-anchor: middle; visibility: hidden; font-family: &quot;Helvetica Neue&quot;, sans-serif; font-size: 12px; font-weight: 200;" fill="rgb(50, 49, 63)" stroke="none" stroke-width="1px">-10</text><text x="24.166666666666664" y="0" dx="0em" dy="0.95em" style="text-anchor: middle; visibility: inherit; font-family: &quot;Helvetica Neue&quot;, sans-serif; font-size: 12px; font-weight: 200;" fill="rgb(50, 49, 63)" stroke="none" stroke-width="1px">0</text><text x="48.33333333333333" y="0" dx="0em" dy="0.95em" style="text-anchor: middle; visibility: inherit; font-family: &quot;Helvetica Neue&quot;, sans-serif; font-size: 12px; font-weight: 200;" fill="rgb(50, 49, 63)" stroke="none" stroke-width="1px">10</text><text x="72.5" y="0" dx="0em" dy="0.95em" style="text-anchor: middle; visibility: inherit; font-family: &quot;Helvetica Neue&quot;, sans-serif; font-size: 12px; font-weight: 200;" fill="rgb(50, 49, 63)" stroke="none" stroke-width="1px">20</text><text x="96.66666666666666" y="0" dx="0em" dy="0.95em" style="text-anchor: middle; visibility: inherit; font-family: &quot;Helvetica Neue&quot;, sans-serif; font-size: 12px; font-weight: 200;" fill="rgb(50, 49, 63)" stroke="none" stroke-width="1px">30</text><text x="120.83333333333334" y="0" dx="0em" dy="0.95em" style="text-anchor: middle; visibility: inherit; font-family: &quot;Helvetica Neue&quot;, sans-serif; font-size: 12px; font-weight: 200;" fill="rgb(50, 49, 63)" stroke="none" stroke-width="1px">40</text><text x="145" y="0" dx="0em" dy="0.95em" style="text-anchor: middle; visibility: inherit; font-family: &quot;Helvetica Neue&quot;, sans-serif; font-size: 12px; font-weight: 200;" fill="rgb(50, 49, 63)" stroke="none" stroke-width="1px">50</text><text x="169.16666666666669" y="0" dx="0em" dy="0.95em" style="text-anchor: middle; visibility: inherit; font-family: &quot;Helvetica Neue&quot;, sans-serif; font-size: 12px; font-weight: 200;" fill="rgb(50, 49, 63)" stroke="none" stroke-width="1px">60</text><text x="193.33333333333331" y="0" dx="0em" dy="0.95em" style="text-anchor: middle; visibility: inherit; font-family: &quot;Helvetica Neue&quot;, sans-serif; font-size: 12px; font-weight: 200;" fill="rgb(50, 49, 63)" stroke="none" stroke-width="1px">70</text><text x="217.5" y="0" dx="0em" dy="0.95em" style="text-anchor: middle; visibility: inherit; font-family: &quot;Helvetica Neue&quot;, sans-serif; font-size: 12px; font-weight: 200;" fill="rgb(50, 49, 63)" stroke="none" stroke-width="1px">80</text><text x="241.66666666666669" y="0" dx="0em" dy="0.95em" style="text-anchor: middle; visibility: inherit; font-family: &quot;Helvetica Neue&quot;, sans-serif; font-size: 12px; font-weight: 200;" fill="rgb(50, 49, 63)" stroke="none" stroke-width="1px">90</text><text x="265.8333333333333" y="0" dx="0em" dy="0.95em" style="text-anchor: middle; visibility: inherit; font-family: &quot;Helvetica Neue&quot;, sans-serif; font-size: 12px; font-weight: 200;" fill="rgb(50, 49, 63)" stroke="none" stroke-width="1px">100</text><text x="290" y="0" dx="0em" dy="0.95em" style="text-anchor: middle; visibility: hidden; font-family: &quot;Helvetica Neue&quot;, sans-serif; font-size: 12px; font-weight: 200;" fill="rgb(50, 49, 63)" stroke="none" stroke-width="1px">110</text></g><line x1="0" y1="0" x2="290" y2="0" fill="rgb(0, 0, 0)" stroke="rgb(204, 204, 204)" stroke-width="1px"></line></g></g></g></g></svg>