<svg viewBox="0 0 330.0000305175781 200.00001525878906" xmlns="http://www.w3.org/2000/svg"><g><g><g><g><g><line x1="50" y1="178" x2="45" y2="178" style="visibility: inherit;" fill="rgb(0, 0, 0)" stroke="rgb(204, 204, 204)" stroke-width="1px"></line><line x1="50" y1="163.16666666666666" x2="45" y2="163.16666666666666" style="visibility: inherit;" fill="rgb(0, 0, 0)" stroke="rgb(204, 204, 204)" stroke-width="1px"></line><line x1="50" y1="148.33333333333334" x2="45" y2="148.33333333333334" style="visibility: inherit;" fill="rgb(0, 0, 0)" stroke="rgb(204, 204, 204)" stroke-width="1px"></line><line x1="50" y1="133.5" x2="45" y2="133.5" style="visibility: inherit;" fill="rgb(0, 0, 0)" stroke="rgb(204, 204, 204)" stroke-width="1px"></line><line x1="50" y1="118.66666666666667" x2="45" y2="118.66666666666667" style="visibility: inherit;" fill="rgb(0, 0, 0)" stroke="rgb(204, 204, 204)" stroke-width="1px"></line><line x1="50" y1="103.83333333333334" x2="45" y2="103.83333333333334" style="visibility: inherit;" fill="rgb(0, 0, 0)" stroke="rgb(204, 204, 204)" stroke-width="1px"></line><line x1="50" y1="89.00000000000001" x2="45" y2="89.00000000000001" style="visibility: inherit;" fill="rgb(0, 0, 0)" stroke="rgb(204, 204, 204)" stroke-width="1px"></line><line x1="50" y1="74.16666666666669" x2="45" y2="74.16666666666669" style="visibility: inherit;" fill="rgb(0, 0, 0)" stroke="rgb(204, 204, 204)" stroke-width="1px"></line><line x1="50" y1="59.33333333333336" x2="45" y2="59.33333333333336" style="visibility: inherit;" fill="rgb(0, 0, 0)" stroke="rgb(204, 204, 204)" stroke-width="1px"></line><line x1="50" y1="44.50000000000003" x2="45" y2="44.50000000000003" style="visibility: inherit;" fill="rgb(0, 0, 0)" stroke="rgb(204, 204, 204)" stroke-width="1px"></line><line x1="50" y1="29.666666666666686" x2="45" y2="29.666666666666686" style="visibility: inherit;" fill="rgb(0, 0, 0)" stroke="rgb(204, 204, 204)" stroke-width="1px"></line><line x1="50" y1="14.833333333333343" x2="45" y2="14.833333333333343" style="visibility: inherit;" fill="rgb(0, 0, 0)" stroke="rgb(204, 204, 204)" stroke-width="1px"></line><line x1="50" y1="0" x2="45" y2="0" style="visibility: inherit;" fill="rgb(0, 0, 0)" stroke="rgb(204, 204, 204)" stroke-width="1px"></line></g><g transform="translate(40, 0)"><text x="0" y="178" dx="0em" dy="0.3em" style="text-anchor: end; visibility: hidden; font-family: &quot;Helvetica Neue&quot;, sans-serif; font-size: 12px; font-weight: 200;" fill="rgb(50, 49, 63)" stroke="none" stroke-width="1px">-0.2</text><text x="0" y="163.16666666666666" dx="0em" dy="0.3em" style="text-anchor: end; visibility: inherit; font-family: &quot;Helvetica Neue&quot;, sans-serif; font-size: 12px; font-weight: 200;" fill="rgb(50, 49, 63)" stroke="none" stroke-width="1px">0</text><text x="0" y="148.33333333333334" dx="0em" dy="0.3em" style="text-anchor: end; visibility: hidden; font-family: &quot;Helvetica Neue&quot;, sans-serif; font-size: 12px; font-weight: 200;" fill="rgb(50, 49, 63)" stroke="none" stroke-width="1px">0.2</text><text x="0" y="133.5" dx="0em" dy="0.3em" style="text-anchor: end; visibility: inherit; font-family: &quot;Helvetica Neue&quot;, sans-serif; font-size: 12px; font-weight: 200;" fill="rgb(50, 49, 63)" stroke="none" stroke-width="1px">0.4</text><text x="0" y="118.66666666666667" dx="0em" dy="0.3em" style="text-anchor: end; visibility: hidden; font-family: &quot;Helvetica Neue&quot;, sans-serif; font-size: 12px; font-weight: 200;" fill="rgb(50, 49, 63)" stroke="none" stroke-width="1px">0.6</text><text x="0" y="103.83333333333334" dx="0em" dy="0.3em" style="text-anchor: end; visibility: inherit; font-family: &quot;Helvetica Neue&quot;, sans-serif; font-size: 12px; font-weight: 200;" fill="rgb(50, 49, 63)" stroke="none" stroke-width="1px">0.8</text><text x="0" y="89.00000000000001" dx="0em" dy="0.3em" style="text-anchor: end; visibility: hidden; font-family: &quot;Helvetica Neue&quot;, sans-serif; font-size: 12px; font-weight: 200;" fill="rgb(50, 49, 63)" stroke="none" stroke-width="1px">1</text><text x="0" y="74.16666666666669" dx="0em" dy="0.3em" style="text-anchor: end; visibility: inherit; font-family: &quot;Helvetica Neue&quot;, sans-serif; font-size: 12px; font-weight: 200;" fill="rgb(50, 49, 63)" stroke="none" stroke-width="1px">1.2</text><text x="0" y="59.33333333333336" dx="0em" dy="0.3em" style="text-anchor: end; visibility: hidden; font-family: &quot;Helvetica Neue&quot;, sans-serif; font-size: 12px; font-weight: 200;" fill="rgb(50, 49, 63)" stroke="none" stroke-width="1px">1.4</text><text x="0" y="44.50000000000003" dx="0em" dy="0.3em" style="text-anchor: end; visibility: inherit; font-family: &quot;Helvetica Neue&quot;, sans-serif; font-size: 12px; font-weight: 200;" fill="rgb(50, 49, 63)" stroke="none" stroke-width="1px">1.6</text><text x="0" y="29.666666666666686" dx="0em" dy="0.3em" style="text-anchor: end; visibility: hidden; font-family: &quot;Helvetica Neue&quot;, sans-serif; font-size: 12px; font-weight: 200;" fill="rgb(50, 49, 63)" stroke="none" stroke-width="1px">1.8</text><text x="0" y="14.833333333333343" dx="0em" dy="0.3em" style="text-anchor: end; visibility: inherit; font-family: &quot;Helvetica Neue&quot;, sans-serif; font-size: 12px; font-weight: 200;" fill="rgb(50, 49, 63)" stroke="none" stroke-width="1px">2</text><text x="0" y="0" dx="0em" dy="0.3em" style="text-anchor: end; visibility: hidden; font-family: &quot;Helvetica Neue&quot;, sans-serif; font-size: 12px; font-weight: 200;" fill="rgb(50, 49, 63)" stroke="none" stroke-width="1px">2.2</text></g><line x1="50" y1="0" x2="50" y2="178" fill="rgb(0, 0, 0)" stroke="rgb(204, 204, 204)" stroke-width="1px"></line></g></g><g transform="translate(50, 0)" clip-path="url(#clip_0)"><clipPath id="clip_0"><rect width="280" height="177"></rect></clipPath><g><g><g><line x1="0" y1="0" x2="0" y2="178" fill="rgb(0, 0, 0)" stroke="rgb(60, 60, 60)" stroke-width="1px" opacity="0.25"></line><line x1="23.333333333333332" y1="0" x2="23.333333333333332" y2="178" fill="rgb(0, 0, 0)" stroke="rgb(60, 60, 60)" stroke-width="1px" opacity="0.25"></line><line x1="46.666666666666664" y1="0" x2="46.666666666666664" y2="178" fill="rgb(0, 0, 0)" stroke="rgb(60, 60, 60)" stroke-width="1px" opacity="0.25"></line><line x1="70" y1="0" x2="70" y2="178" fill="rgb(0, 0, 0)" stroke="rgb(60, 60, 60)" stroke-width="1px" opacity="0.25"></line><line x1="93.33333333333333" y1="0" x2="93.33333333333333" y2="178" fill="rgb(0, 0, 0)" stroke="rgb(60, 60, 60)" stroke-width="1px" opacity="0.25"></line><line x1="116.66666666666667" y1="0" x2="116.66666666666667" y2="178" fill="rgb(0, 0, 0)" stroke="rgb(60, 60, 60)" stroke-width="1px" opacity="0.25"></line><line x1="140" y1="0" x2="140" y2="178" fill="rgb(0, 0, 0)" stroke="rgb(60, 60, 60)" stroke-width="1px" opacity="0.25"></line><line x1="163.33333333333334" y1="0" x2="163.33333333333334" y2="178" fill="rgb(0, 0, 0)" stroke="rgb(60, 60, 60)" stroke-width="1px" opacity="0.25"></line><line x1="186.66666666666666" y1="0" x2="186.66666666666666" y2="178" fill="rgb(0, 0, 0)" stroke="rgb(60, 60, 60)" stroke-width="1px" opacity="0.25"></line><line x1="210" y1="0" x2="210" y2="178" fill="rgb(0, 0, 0)" stroke="rgb(60, 60, 60)" stroke-width="1px" opacity="0.25"></line><line x1="233.33333333333334" y1="0" x2="233.33333333333334" y2="178" fill="rgb(0, 0, 0)" stroke="rgb(60, 60, 60)" stroke-width="1px" opacity="0.25"></line><line x1="256.66666666666663" y1="0" x2="256.66666666666663" y2="178" fill="rgb(0, 0, 0)" stroke="rgb(60, 60, 60)" stroke-width="1px" opacity="0.25"></line><line x1="280" y1="0" x2="280" y2="178" fill="rgb(0, 0, 0)" stroke="rgb(60, 60, 60)" stroke-width="1px" opacity="0.25"></line></g><g><line x1="0" y1="178" x2="280" y2="178" fill="rgb(0, 0, 0)" stroke="rgb(60, 60, 60)" stroke-width="1px" opacity="0.25"></line><line x1="0" y1="163.16666666666666" x2="280" y2="163.16666666666666" fill="rgb(0, 0, 0)" stroke="rgb(60, 60, 60)" stroke-width="1px" opacity="0.25"></line><line x1="0" y1="148.33333333333334" x2="280" y2="148.33333333333334" fill="rgb(0, 0, 0)" stroke="rgb(60, 60, 60)" stroke-width="1px" opacity="0.25"></line><line x1="0" y1="133.5" x2="280" y2="133.5" fill="rgb(0, 0, 0)" stroke="rgb(60, 60, 60)" stroke-width="1px" opacity="0.25"></line><line x1="0" y1="118.66666666666667" x2="280" y2="118.66666666666667" fill="rgb(0, 0, 0)" stroke="rgb(60, 60, 60)" stroke-width="1px" opacity="0.25"></line><line x1="0" y1="103.83333333333334" x2="280" y2="103.83333333333334" fill="rgb(0, 0, 0)" stroke="rgb(60, 60, 60)" stroke-width="1px" opacity="0.25"></line><line x1="0" y1="89.00000000000001" x2="280" y2="89.00000000000001" fill="rgb(0, 0, 0)" stroke="rgb(60, 60, 60)" stroke-width="1px" opacity="0.25"></line><line x1="0" y1="74.16666666666669" x2="280" y2="74.16666666666669" fill="rgb(0, 0, 0)" stroke="rgb(60, 60, 60)" stroke-width="1px" opacity="0.25"></line><line x1="0" y1="59.33333333333336" x2="280" y2="59.33333333333336" fill="rgb(0, 0, 0)" stroke="rgb(60, 60, 60)" stroke-width="1px" opacity="0.25"></line><line x1="0" y1="44.50000000000003" x2="280" y2="44.50000000000003" fill="rgb(0, 0, 0)" stroke="rgb(60, 60, 60)" stroke-width="1px" opacity="0.25"></line><line x1="0" y1="29.666666666666686" x2="280" y2="29.666666666666686" fill="rgb(0, 0, 0)" stroke="rgb(60, 60, 60)" stroke-width="1px" opacity="0.25"></line><line x1="0" y1="14.833333333333343" x2="280" y2="14.833333333333343" fill="rgb(0, 0, 0)" stroke="rgb(60, 60, 60)" stroke-width="1px" opacity="0.25"></line><line x1="0" y1="0" x2="280" y2="0" fill="rgb(0, 0, 0)" stroke="rgb(60, 60, 60)" stroke-width="1px" opacity="0.25"></line></g></g></g><g><g><line x1="0" y1="163.16666666666666" x2="280" y2="163.16666666666666" fill="rgb(0, 0, 0)" stroke="rgb(153, 153, 153)" stroke-width="1.5px"></line></g></g><g><g><line x1="23.333333333333332" y1="0" x2="23.333333333333332" y2="178" fill="rgb(0, 0, 0)" stroke="rgb(153, 153, 153)" stroke-width="1.5px"></line></g></g><g><g><g><g><g><path stroke="rgb(0, 153, 136)" stroke-width="2px" d="M25.666666666666664,-1.8072407295306334L28,31.514264530876062L30.333333333333336,52.79036995125756L32.666666666666664,69.36829310956863L35,81.31743077963935L37.333333333333336,89.55870305061143L39.666666666666664,97.63128599575927L42,103.43504796755657L44.33333333333333,108.14210190260954L46.666666666666664,112.73643627570229L49,116.00855129109792L51.33333333333333,118.97699133903782L53.66666666666667,120.5001432662385L56,122.72268761434174L58.333333333333336,124.92682193357638L60.66666666666667,126.63814740920034L63,128.1750525878L65.33333333333333,129.85576835487439L67.66666666666667,131.5254942695674L70,131.5421741322229L72.33333333333334,132.79585067777677L74.66666666666667,133.66297131322693L77,134.9722986762733L79.33333333333333,135.65826202417404L81.66666666666667,136.7100610057389L84,137.951340176718L86.33333333333334,139.2109375531237L88.66666666666666,140.2619827249833L91,141.58891246601604L93.33333333333333,143.01514764800157L95.66666666666667,143.66755423875068L98,144.2388362050546L100.33333333333333,144.57321801510807L102.66666666666666,145.17838332934812L105,145.87788062449752L107.33333333333334,144.93858172802845L109.66666666666667,146.3865752590345L112,146.96707421706188L114.33333333333333,147.10620170452557L116.66666666666667,146.97225467324458L119,148.27173693715605L121.33333333333334,149.40265754735782L123.66666666666666,150.67462667373786L126,150.38044699853364L128.33333333333331,150.32303800081274L130.66666666666666,150.68330343105788L133,150.99433087730148L135.33333333333334,152.03399316624456L137.66666666666666,152.46998820994045L140,153.66600380020174L142.33333333333331,154.23591256147887L144.66666666666669,154.21732479685303L147,154.88015133105046L149.33333333333334,155.18489653247013L151.66666666666666,155.5662438022739L154,154.39331999009698L156.33333333333334,155.29652806571644L158.66666666666666,154.97814325313678L161,155.29104731274197L163.33333333333334,156.15969990119868L165.66666666666666,156.73566939935407L168,155.25760633849293L170.33333333333331,155.36502315066173L172.66666666666669,156.40189239062022L175,157.15971526062776L177.33333333333331,157.43192296012018L179.66666666666669,157.7400468818373L182,157.49374953947623L184.33333333333334,157.29715425198572L186.66666666666666,157.97086455206252L189,158.1412113459717L191.33333333333334,159.05629156019154L193.66666666666666,159.1399625566256L196,159.30988738795034L198.33333333333334,158.8231182969207L200.66666666666666,159.2003689046658L203,159.3619376618737L205.33333333333331,159.4568656290019L207.66666666666669,159.6151469973392L210,159.64052241361142L212.33333333333331,160.1504967735668L214.66666666666669,159.12356800694027L217,159.51579145059245L219.33333333333334,160.1000692339406L221.66666666666666,160.494287610799L224,158.26564279094333L226.33333333333334,158.9755323254764L228.66666666666666,159.52740695766806L231,159.38013073544025L233.33333333333334,159.8704317288517L235.66666666666666,160.17966860097164L238,159.3771107642542L240.33333333333331,160.29390110936905L242.66666666666669,160.75822892072586L245,161.19577317841026L247.33333333333331,160.90504632263685L249.66666666666669,160.91892290608666L252,161.05033362294682L254.33333333333334,161.18430142955253" style="fill: none;" fill="none"></path></g><g><path stroke="rgb(238, 51, 119)" stroke-width="2px" d="M37.333333333333336,-2.519179544921087L39.666666666666664,5.658862514381241L42,26.882124844938915L44.33333333333333,40.18587060219005L46.666666666666664,54.80182141149257L49,63.05852709424292L51.33333333333333,67.7425629093489L53.66666666666667,77.47954541853417L56,88.07692142304849L58.333333333333336,86.23875765207507L60.66666666666667,89.8966737340887L63,92.98341738181784L65.33333333333333,100.82527681082087L67.66666666666667,104.99598026107495L70,108.88663491626657L72.33333333333334,111.06063829513676L74.66666666666667,114.64302942633009L77,112.87275032697104L79.33333333333333,117.02458389308487L81.66666666666667,119.46057705597099L84,119.35765367851288L86.33333333333334,120.67161373384909L88.66666666666666,124.00349525046865L91,126.12570745038275L93.33333333333333,125.28037394767131L95.66666666666667,125.4024309316171L98,125.86407826555208L100.33333333333333,129.66246907196927L102.66666666666666,131.40889756075183L105,131.3444466575788L107.33333333333334,130.3997537704341L109.66666666666667,131.1269809617998L112,132.7387914245118L114.33333333333333,136.03911764574877L116.66666666666667,136.0957040478415L119,134.50158567290046L121.33333333333334,135.83660482640192L123.66666666666666,137.17669233866974L126,138.32724818314222L128.33333333333331,139.52823717239107L130.66666666666666,140.54129465331016L133,140.98023360914607L135.33333333333334,139.68780484960695L137.66666666666666,141.56071555516377L140,143.96987749876507L142.33333333333331,145.07945045178616L144.66666666666669,147.38145595498577L147,146.8960629704055L149.33333333333334,144.9397408606074L151.66666666666666,146.69542203792767L154,147.97274426489403L156.33333333333334,146.58459471783618L158.66666666666666,147.03673104815633L161,147.22820369724207L163.33333333333334,147.88765688334172L165.66666666666666,144.50289066986792L168,145.7529236318065L170.33333333333331,148.62655967224003L172.66666666666669,148.40515766490518L175,145.34904024967958L177.33333333333331,147.4608159142896L179.66666666666669,149.07968990573275L182,150.0415721748411L184.33333333333334,152.10336098457213L186.66666666666666,149.41595719984076L189,150.7120866391911L191.33333333333334,151.99789137873177L193.66666666666666,153.5116391836591L196,153.7346158311161L198.33333333333334,153.54792389683283L200.66666666666666,152.31009648390028L203,151.32796551573722L205.33333333333331,151.83159077736804L207.66666666666669,152.3165344381714L210,150.5074028194577L212.33333333333331,151.00265877171142L214.66666666666669,150.97459766402116L217,151.34307258308493L219.33333333333334,150.63728816199637L221.66666666666666,151.29768194986386L224,152.73446333596908L226.33333333333334,152.92485371643187L228.66666666666666,154.06366579083928L231,152.80291398871935L233.33333333333334,153.4456226890822L235.66666666666666,154.44466735266883L238,151.7355264704023L240.33333333333331,149.89952661080724L242.66666666666669,151.91925943980755L245,153.8210546598244L247.33333333333331,154.71114382994622L249.66666666666669,155.4295541853852L252,156.21196692354363L254.33333333333334,155.81291936040054" style="fill: none;" fill="none"></path></g></g></g></g><g opacity="0.2"><g><g><g><path stroke="rgb(0, 153, 136)" stroke-width="2px" d="M23.333333333333332,-35.95378295580542L25.666666666666664,18.68068460623425L28,63.502909580866515L30.333333333333336,77.81106992562614L32.666666666666664,91.0124295850595L35,97.8473898669084L37.333333333333336,101.34385425845784L39.666666666666664,109.40118942658108L42,111.99446955323221L44.33333333333333,115.13152841726941L46.666666666666664,119.58626756072044L49,120.89891710877419L51.33333333333333,123.41995893915495L53.66666666666667,122.78188714385033L56,126.05389161904654L58.333333333333336,128.231468886137L60.66666666666667,129.2044114470482L63,130.4800201356411L65.33333333333333,132.37658596535525L67.66666666666667,134.0299305220445L70,131.56719301144284L72.33333333333334,134.67632424334687L74.66666666666667,134.9636351466179L77,136.936274210612L79.33333333333333,136.68720217049122L81.66666666666667,138.287754992644L84,139.81325575709343L86.33333333333334,141.1003316839536L88.66666666666666,141.83854951461157L91,143.57930634419125L93.33333333333333,145.15449994802475L95.66666666666667,144.6461639950673L98,145.09575908631086L100.33333333333333,145.07479070623717L102.66666666666666,146.08613127470016L105,146.92712654918432L107.33333333333334,143.52963339785737L109.66666666666667,148.55856554210186L112,147.8378226508697L114.33333333333333,147.31489293525618L116.66666666666667,146.77133412659168L119,150.22096033145985L121.33333333333334,151.09903846184415L123.66666666666666,152.58258036275706L126,149.93917748580378L128.33333333333331,150.23692450424036L130.66666666666666,151.22370157639187L133,151.46087204664946L135.33333333333334,153.59348659962416L137.66666666666666,153.1239807754755L140,155.46002718557915L142.33333333333331,155.09077570339045L144.66666666666669,154.18944314991435L147,155.8743911323448L149.33333333333334,155.6420143345992L151.66666666666666,156.13826470697921L154,152.63393427183232L156.33333333333334,156.65134017914534L158.66666666666666,154.50056603426737L161,155.76040340214968L163.33333333333334,157.46267878388366L165.66666666666666,157.59962364658713L168,153.0405117472013L170.33333333333331,155.52614836891493L172.66666666666669,157.9571962505579L175,158.2964495656391L177.33333333333331,157.84023450935882L179.66666666666669,158.20223276441297L182,157.12430352593464L184.33333333333334,157.00226132074994L186.66666666666666,158.98143000217775L189,158.39673153683543L191.33333333333334,160.42891188152134L193.66666666666666,159.26546905127665L196,159.56477463493744L198.33333333333334,158.0929646603763L200.66666666666666,159.76624481628338L203,159.6042907976856L205.33333333333331,159.59925757969418L207.66666666666669,159.85256904984513L210,159.67858553801975L212.33333333333331,160.9154583134999L214.66666666666669,157.58317485700053L217,160.10412661607066L219.33333333333334,160.9764859089628L221.66666666666666,161.08561517608663L224,154.92267556115985L226.33333333333334,160.04036662727594L228.66666666666666,160.35521890595555L231,159.15921640209854L233.33333333333334,160.6058832189689L235.66666666666666,160.64352390915155L238,158.1732740091781L240.33333333333331,161.6690866270413L242.66666666666669,161.45472063776106L245,161.85208956493685L247.33333333333331,160.4689560389767L249.66666666666669,160.9397377812614L252,161.2474496982371L254.33333333333334,161.38525313946107" style="fill: none;" fill="none"></path></g><g><path stroke="rgb(238, 51, 119)" stroke-width="2px" d="M30.333333333333336,-84.70438138643897L32.666666666666664,4.299600760142027L35,15.421442627906828L37.333333333333336,40.87540491422021L39.666666666666664,17.58252634604773L42,58.182314376036345L44.33333333333333,59.94038257996243L46.666666666666664,76.59318202733995L49,75.3986529906591L51.33333333333333,74.75332244237266L53.66666666666667,92.06594341993333L56,103.96052861213686L58.333333333333336,83.48280841112138L60.66666666666667,95.38199994961423L63,97.61274912953378L65.33333333333333,112.58687132596971L67.66666666666667,111.25165421764058L70,114.72240352630615L72.33333333333334,114.32157182693481L74.66666666666667,120.01654539505643L77,110.21735264857611L79.33333333333333,123.25230473279953L81.66666666666667,123.11455641190213L84,119.20326887567839L86.33333333333334,122.64255179961523L88.66666666666666,129.0013144562642L91,129.3090245773395L93.33333333333333,124.01237397392592L95.66666666666667,125.58551638325056L98,126.55654921134314L100.33333333333333,135.36005500952405L102.66666666666666,134.02854021886986L105,131.2477703044812L107.33333333333334,128.982714454333L109.66666666666667,132.21782174209756L112,135.1565071096023L114.33333333333333,140.989606966575L116.66666666666667,136.18058365086716L119,132.11040811240673L121.33333333333334,137.83913355569047L123.66666666666666,139.1868236064911L126,140.0530819495519L128.33333333333331,141.3297206560771L130.66666666666666,142.06088087459406L133,141.6386420428753L135.33333333333334,137.74916171034178L137.66666666666666,144.3700816134612L140,147.58362041413784L142.33333333333331,146.7438098813097L144.66666666666669,150.83446420977515L147,146.16797349353632L149.33333333333334,142.00525769591331L151.66666666666666,149.32894380390644L154,149.88872760534286L156.33333333333334,144.50237039724988L158.66666666666666,147.7149355436365L161,147.51541267087063L163.33333333333334,148.87683666249117L165.66666666666666,139.4257413496574L168,147.62797307471436L170.33333333333331,152.9370137328903L172.66666666666669,148.07305465390286L175,140.76486412684125L177.33333333333331,150.62847941120467L179.66666666666669,151.50800089289746L182,151.4843955785036L184.33333333333334,155.19604419916868L186.66666666666666,145.3848515227437L189,152.65628079821667L191.33333333333334,153.92659848804277L193.66666666666666,155.7822608910501L196,154.06908080230158L198.33333333333334,153.2678859954079L200.66666666666666,150.45335536450148L203,149.85476906349263L205.33333333333331,152.5870286698143L207.66666666666669,153.04394992937645L210,147.79370539138716L212.33333333333331,151.74554270009202L214.66666666666669,150.93250600248575L217,151.8957849616806L219.33333333333334,149.57861153036356L221.66666666666666,152.28827263166508L224,154.8896354151269L226.33333333333334,153.21043928712606L228.66666666666666,155.7718839024504L231,150.91178628553948L233.33333333333334,154.4096857396265L235.66666666666666,155.94323434804878L238,147.67181514700255L240.33333333333331,147.14552682141465L242.66666666666669,154.94885868330798L245,156.67374748984975L247.33333333333331,156.04627758512896L249.66666666666669,156.5071697185437L252,157.38558603078127L254.33333333333334,155.21434801568589" style="fill: none;" fill="none"></path></g></g></g></g></g></g><g transform="translate(50, 178)" clip-path="url(#clip_1)"><clipPath id="clip_1"><rect width="280" height="21"></rect></clipPath><g><g><line x1="0" y1="0" x2="0" y2="5" style="visibility: inherit;" fill="rgb(0, 0, 0)" stroke="rgb(204, 204, 204)" stroke-width="1px"></line><line x1="23.333333333333332" y1="0" x2="23.333333333333332" y2="5" style="visibility: inherit;" fill="rgb(0, 0, 0)" stroke="rgb(204, 204, 204)" stroke-width="1px"></line><line x1="46.666666666666664" y1="0" x2="46.666666666666664" y2="5" style="visibility: inherit;" fill="rgb(0, 0, 0)" stroke="rgb(204, 204, 204)" stroke-width="1px"></line><line x1="70" y1="0" x2="70" y2="5" style="visibility: inherit;" fill="rgb(0, 0, 0)" stroke="rgb(204, 204, 204)" stroke-width="1px"></line><line x1="93.33333333333333" y1="0" x2="93.33333333333333" y2="5" style="visibility: inherit;" fill="rgb(0, 0, 0)" stroke="rgb(204, 204, 204)" stroke-width="1px"></line><line x1="116.66666666666667" y1="0" x2="116.66666666666667" y2="5" style="visibility: inherit;" fill="rgb(0, 0, 0)" stroke="rgb(204, 204, 204)" stroke-width="1px"></line><line x1="140" y1="0" x2="140" y2="5" style="visibility: inherit;" fill="rgb(0, 0, 0)" stroke="rgb(204, 204, 204)" stroke-width="1px"></line><line x1="163.33333333333334" y1="0" x2="163.33333333333334" y2="5" style="visibility: inherit;" fill="rgb(0, 0, 0)" stroke="rgb(204, 204, 204)" stroke-width="1px"></line><line x1="186.66666666666666" y1="0" x2="186.66666666666666" y2="5" style="visibility: inherit;" fill="rgb(0, 0, 0)" stroke="rgb(204, 204, 204)" stroke-width="1px"></line><line x1="210" y1="0" x2="210" y2="5" style="visibility: inherit;" fill="rgb(0, 0, 0)" stroke="rgb(204, 204, 204)" stroke-width="1px"></line><line x1="233.33333333333334" y1="0" x2="233.33333333333334" y2="5" style="visibility: inherit;" fill="rgb(0, 0, 0)" stroke="rgb(204, 204, 204)" stroke-width="1px"></line><line x1="256.66666666666663" y1="0" x2="256.66666666666663" y2="5" style="visibility: inherit;" fill="rgb(0, 0, 0)" stroke="rgb(204, 204, 204)" stroke-width="1px"></line><line x1="280" y1="0" x2="280" y2="5" style="visibility: inherit;" fill="rgb(0, 0, 0)" stroke="rgb(204, 204, 204)" stroke-width="1px"></line></g><g transform="translate(0, 8)"><text x="0" y="0" dx="0em" dy="0.95em" style="text-anchor: middle; visibility: hidden; font-family: &quot;Helvetica Neue&quot;, sans-serif; font-size: 12px; font-weight: 200;" fill="rgb(50, 49, 63)" stroke="none" stroke-width="1px">-10</text><text x="23.333333333333332" y="0" dx="0em" dy="0.95em" style="text-anchor: middle; visibility: inherit; font-family: &quot;Helvetica Neue&quot;, sans-serif; font-size: 12px; font-weight: 200;" fill="rgb(50, 49, 63)" stroke="none" stroke-width="1px">0</text><text x="46.666666666666664" y="0" dx="0em" dy="0.95em" style="text-anchor: middle; visibility: inherit; font-family: &quot;Helvetica Neue&quot;, sans-serif; font-size: 12px; font-weight: 200;" fill="rgb(50, 49, 63)" stroke="none" stroke-width="1px">10</text><text x="70" y="0" dx="0em" dy="0.95em" style="text-anchor: middle; visibility: inherit; font-family: &quot;Helvetica Neue&quot;, sans-serif; font-size: 12px; font-weight: 200;" fill="rgb(50, 49, 63)" stroke="none" stroke-width="1px">20</text><text x="93.33333333333333" y="0" dx="0em" dy="0.95em" style="text-anchor: middle; visibility: inherit; font-family: &quot;Helvetica Neue&quot;, sans-serif; font-size: 12px; font-weight: 200;" fill="rgb(50, 49, 63)" stroke="none" stroke-width="1px">30</text><text x="116.66666666666667" y="0" dx="0em" dy="0.95em" style="text-anchor: middle; visibility: inherit; font-family: &quot;Helvetica Neue&quot;, sans-serif; font-size: 12px; font-weight: 200;" fill="rgb(50, 49, 63)" stroke="none" stroke-width="1px">40</text><text x="140" y="0" dx="0em" dy="0.95em" style="text-anchor: middle; visibility: inherit; font-family: &quot;Helvetica Neue&quot;, sans-serif; font-size: 12px; font-weight: 200;" fill="rgb(50, 49, 63)" stroke="none" stroke-width="1px">50</text><text x="163.33333333333334" y="0" dx="0em" dy="0.95em" style="text-anchor: middle; visibility: inherit; font-family: &quot;Helvetica Neue&quot;, sans-serif; font-size: 12px; font-weight: 200;" fill="rgb(50, 49, 63)" stroke="none" stroke-width="1px">60</text><text x="186.66666666666666" y="0" dx="0em" dy="0.95em" style="text-anchor: middle; visibility: inherit; font-family: &quot;Helvetica Neue&quot;, sans-serif; font-size: 12px; font-weight: 200;" fill="rgb(50, 49, 63)" stroke="none" stroke-width="1px">70</text><text x="210" y="0" dx="0em" dy="0.95em" style="text-anchor: middle; visibility: inherit; font-family: &quot;Helvetica Neue&quot;, sans-serif; font-size: 12px; font-weight: 200;" fill="rgb(50, 49, 63)" stroke="none" stroke-width="1px">80</text><text x="233.33333333333334" y="0" dx="0em" dy="0.95em" style="text-anchor: middle; visibility: inherit; font-family: &quot;Helvetica Neue&quot;, sans-serif; font-size: 12px; font-weight: 200;" fill="rgb(50, 49, 63)" stroke="none" stroke-width="1px">90</text><text x="256.66666666666663" y="0" dx="0em" dy="0.95em" style="text-anchor: middle; visibility: inherit; font-family: &quot;Helvetica Neue&quot;, sans-serif; font-size: 12px; font-weight: 200;" fill="rgb(50, 49, 63)" stroke="none" stroke-width="1px">100</text><text x="280" y="0" dx="0em" dy="0.95em" style="text-anchor: middle; visibility: hidden; font-family: &quot;Helvetica Neue&quot;, sans-serif; font-size: 12px; font-weight: 200;" fill="rgb(50, 49, 63)" stroke="none" stroke-width="1px">110</text></g><line x1="0" y1="0" x2="280" y2="0" fill="rgb(0, 0, 0)" stroke="rgb(204, 204, 204)" stroke-width="1px"></line></g></g></g></g></svg>