<svg viewBox="0 0 330.0000305175781 200.00001525878906" xmlns="http://www.w3.org/2000/svg"><g><g><g><g><g><line x1="50" y1="178" x2="45" y2="178" style="visibility: inherit;" fill="rgb(0, 0, 0)" stroke="rgb(204, 204, 204)" stroke-width="1px"></line><line x1="50" y1="163.16666666666666" x2="45" y2="163.16666666666666" style="visibility: inherit;" fill="rgb(0, 0, 0)" stroke="rgb(204, 204, 204)" stroke-width="1px"></line><line x1="50" y1="148.33333333333334" x2="45" y2="148.33333333333334" style="visibility: inherit;" fill="rgb(0, 0, 0)" stroke="rgb(204, 204, 204)" stroke-width="1px"></line><line x1="50" y1="133.5" x2="45" y2="133.5" style="visibility: inherit;" fill="rgb(0, 0, 0)" stroke="rgb(204, 204, 204)" stroke-width="1px"></line><line x1="50" y1="118.66666666666667" x2="45" y2="118.66666666666667" style="visibility: inherit;" fill="rgb(0, 0, 0)" stroke="rgb(204, 204, 204)" stroke-width="1px"></line><line x1="50" y1="103.83333333333334" x2="45" y2="103.83333333333334" style="visibility: inherit;" fill="rgb(0, 0, 0)" stroke="rgb(204, 204, 204)" stroke-width="1px"></line><line x1="50" y1="89.00000000000001" x2="45" y2="89.00000000000001" style="visibility: inherit;" fill="rgb(0, 0, 0)" stroke="rgb(204, 204, 204)" stroke-width="1px"></line><line x1="50" y1="74.16666666666669" x2="45" y2="74.16666666666669" style="visibility: inherit;" fill="rgb(0, 0, 0)" stroke="rgb(204, 204, 204)" stroke-width="1px"></line><line x1="50" y1="59.33333333333336" x2="45" y2="59.33333333333336" style="visibility: inherit;" fill="rgb(0, 0, 0)" stroke="rgb(204, 204, 204)" stroke-width="1px"></line><line x1="50" y1="44.50000000000003" x2="45" y2="44.50000000000003" style="visibility: inherit;" fill="rgb(0, 0, 0)" stroke="rgb(204, 204, 204)" stroke-width="1px"></line><line x1="50" y1="29.666666666666686" x2="45" y2="29.666666666666686" style="visibility: inherit;" fill="rgb(0, 0, 0)" stroke="rgb(204, 204, 204)" stroke-width="1px"></line><line x1="50" y1="14.833333333333343" x2="45" y2="14.833333333333343" style="visibility: inherit;" fill="rgb(0, 0, 0)" stroke="rgb(204, 204, 204)" stroke-width="1px"></line><line x1="50" y1="0" x2="45" y2="0" style="visibility: inherit;" fill="rgb(0, 0, 0)" stroke="rgb(204, 204, 204)" stroke-width="1px"></line></g><g transform="translate(40, 0)"><text x="0" y="178" dx="0em" dy="0.3em" style="text-anchor: end; visibility: hidden; font-family: &quot;Helvetica Neue&quot;, sans-serif; font-size: 12px; font-weight: 200;" fill="rgb(50, 49, 63)" stroke="none" stroke-width="1px">-0.2</text><text x="0" y="163.16666666666666" dx="0em" dy="0.3em" style="text-anchor: end; visibility: inherit; font-family: &quot;Helvetica Neue&quot;, sans-serif; font-size: 12px; font-weight: 200;" fill="rgb(50, 49, 63)" stroke="none" stroke-width="1px">0</text><text x="0" y="148.33333333333334" dx="0em" dy="0.3em" style="text-anchor: end; visibility: hidden; font-family: &quot;Helvetica Neue&quot;, sans-serif; font-size: 12px; font-weight: 200;" fill="rgb(50, 49, 63)" stroke="none" stroke-width="1px">0.2</text><text x="0" y="133.5" dx="0em" dy="0.3em" style="text-anchor: end; visibility: inherit; font-family: &quot;Helvetica Neue&quot;, sans-serif; font-size: 12px; font-weight: 200;" fill="rgb(50, 49, 63)" stroke="none" stroke-width="1px">0.4</text><text x="0" y="118.66666666666667" dx="0em" dy="0.3em" style="text-anchor: end; visibility: hidden; font-family: &quot;Helvetica Neue&quot;, sans-serif; font-size: 12px; font-weight: 200;" fill="rgb(50, 49, 63)" stroke="none" stroke-width="1px">0.6</text><text x="0" y="103.83333333333334" dx="0em" dy="0.3em" style="text-anchor: end; visibility: inherit; font-family: &quot;Helvetica Neue&quot;, sans-serif; font-size: 12px; font-weight: 200;" fill="rgb(50, 49, 63)" stroke="none" stroke-width="1px">0.8</text><text x="0" y="89.00000000000001" dx="0em" dy="0.3em" style="text-anchor: end; visibility: hidden; font-family: &quot;Helvetica Neue&quot;, sans-serif; font-size: 12px; font-weight: 200;" fill="rgb(50, 49, 63)" stroke="none" stroke-width="1px">1</text><text x="0" y="74.16666666666669" dx="0em" dy="0.3em" style="text-anchor: end; visibility: inherit; font-family: &quot;Helvetica Neue&quot;, sans-serif; font-size: 12px; font-weight: 200;" fill="rgb(50, 49, 63)" stroke="none" stroke-width="1px">1.2</text><text x="0" y="59.33333333333336" dx="0em" dy="0.3em" style="text-anchor: end; visibility: hidden; font-family: &quot;Helvetica Neue&quot;, sans-serif; font-size: 12px; font-weight: 200;" fill="rgb(50, 49, 63)" stroke="none" stroke-width="1px">1.4</text><text x="0" y="44.50000000000003" dx="0em" dy="0.3em" style="text-anchor: end; visibility: inherit; font-family: &quot;Helvetica Neue&quot;, sans-serif; font-size: 12px; font-weight: 200;" fill="rgb(50, 49, 63)" stroke="none" stroke-width="1px">1.6</text><text x="0" y="29.666666666666686" dx="0em" dy="0.3em" style="text-anchor: end; visibility: hidden; font-family: &quot;Helvetica Neue&quot;, sans-serif; font-size: 12px; font-weight: 200;" fill="rgb(50, 49, 63)" stroke="none" stroke-width="1px">1.8</text><text x="0" y="14.833333333333343" dx="0em" dy="0.3em" style="text-anchor: end; visibility: inherit; font-family: &quot;Helvetica Neue&quot;, sans-serif; font-size: 12px; font-weight: 200;" fill="rgb(50, 49, 63)" stroke="none" stroke-width="1px">2</text><text x="0" y="0" dx="0em" dy="0.3em" style="text-anchor: end; visibility: hidden; font-family: &quot;Helvetica Neue&quot;, sans-serif; font-size: 12px; font-weight: 200;" fill="rgb(50, 49, 63)" stroke="none" stroke-width="1px">2.2</text></g><line x1="50" y1="0" x2="50" y2="178" fill="rgb(0, 0, 0)" stroke="rgb(204, 204, 204)" stroke-width="1px"></line></g></g><g transform="translate(50, 0)" clip-path="url(#clip_0)"><clipPath id="clip_0"><rect width="280" height="177"></rect></clipPath><g><g><g><line x1="0" y1="0" x2="0" y2="178" fill="rgb(0, 0, 0)" stroke="rgb(60, 60, 60)" stroke-width="1px" opacity="0.25"></line><line x1="23.333333333333332" y1="0" x2="23.333333333333332" y2="178" fill="rgb(0, 0, 0)" stroke="rgb(60, 60, 60)" stroke-width="1px" opacity="0.25"></line><line x1="46.666666666666664" y1="0" x2="46.666666666666664" y2="178" fill="rgb(0, 0, 0)" stroke="rgb(60, 60, 60)" stroke-width="1px" opacity="0.25"></line><line x1="70" y1="0" x2="70" y2="178" fill="rgb(0, 0, 0)" stroke="rgb(60, 60, 60)" stroke-width="1px" opacity="0.25"></line><line x1="93.33333333333333" y1="0" x2="93.33333333333333" y2="178" fill="rgb(0, 0, 0)" stroke="rgb(60, 60, 60)" stroke-width="1px" opacity="0.25"></line><line x1="116.66666666666667" y1="0" x2="116.66666666666667" y2="178" fill="rgb(0, 0, 0)" stroke="rgb(60, 60, 60)" stroke-width="1px" opacity="0.25"></line><line x1="140" y1="0" x2="140" y2="178" fill="rgb(0, 0, 0)" stroke="rgb(60, 60, 60)" stroke-width="1px" opacity="0.25"></line><line x1="163.33333333333334" y1="0" x2="163.33333333333334" y2="178" fill="rgb(0, 0, 0)" stroke="rgb(60, 60, 60)" stroke-width="1px" opacity="0.25"></line><line x1="186.66666666666666" y1="0" x2="186.66666666666666" y2="178" fill="rgb(0, 0, 0)" stroke="rgb(60, 60, 60)" stroke-width="1px" opacity="0.25"></line><line x1="210" y1="0" x2="210" y2="178" fill="rgb(0, 0, 0)" stroke="rgb(60, 60, 60)" stroke-width="1px" opacity="0.25"></line><line x1="233.33333333333334" y1="0" x2="233.33333333333334" y2="178" fill="rgb(0, 0, 0)" stroke="rgb(60, 60, 60)" stroke-width="1px" opacity="0.25"></line><line x1="256.66666666666663" y1="0" x2="256.66666666666663" y2="178" fill="rgb(0, 0, 0)" stroke="rgb(60, 60, 60)" stroke-width="1px" opacity="0.25"></line><line x1="280" y1="0" x2="280" y2="178" fill="rgb(0, 0, 0)" stroke="rgb(60, 60, 60)" stroke-width="1px" opacity="0.25"></line></g><g><line x1="0" y1="178" x2="280" y2="178" fill="rgb(0, 0, 0)" stroke="rgb(60, 60, 60)" stroke-width="1px" opacity="0.25"></line><line x1="0" y1="163.16666666666666" x2="280" y2="163.16666666666666" fill="rgb(0, 0, 0)" stroke="rgb(60, 60, 60)" stroke-width="1px" opacity="0.25"></line><line x1="0" y1="148.33333333333334" x2="280" y2="148.33333333333334" fill="rgb(0, 0, 0)" stroke="rgb(60, 60, 60)" stroke-width="1px" opacity="0.25"></line><line x1="0" y1="133.5" x2="280" y2="133.5" fill="rgb(0, 0, 0)" stroke="rgb(60, 60, 60)" stroke-width="1px" opacity="0.25"></line><line x1="0" y1="118.66666666666667" x2="280" y2="118.66666666666667" fill="rgb(0, 0, 0)" stroke="rgb(60, 60, 60)" stroke-width="1px" opacity="0.25"></line><line x1="0" y1="103.83333333333334" x2="280" y2="103.83333333333334" fill="rgb(0, 0, 0)" stroke="rgb(60, 60, 60)" stroke-width="1px" opacity="0.25"></line><line x1="0" y1="89.00000000000001" x2="280" y2="89.00000000000001" fill="rgb(0, 0, 0)" stroke="rgb(60, 60, 60)" stroke-width="1px" opacity="0.25"></line><line x1="0" y1="74.16666666666669" x2="280" y2="74.16666666666669" fill="rgb(0, 0, 0)" stroke="rgb(60, 60, 60)" stroke-width="1px" opacity="0.25"></line><line x1="0" y1="59.33333333333336" x2="280" y2="59.33333333333336" fill="rgb(0, 0, 0)" stroke="rgb(60, 60, 60)" stroke-width="1px" opacity="0.25"></line><line x1="0" y1="44.50000000000003" x2="280" y2="44.50000000000003" fill="rgb(0, 0, 0)" stroke="rgb(60, 60, 60)" stroke-width="1px" opacity="0.25"></line><line x1="0" y1="29.666666666666686" x2="280" y2="29.666666666666686" fill="rgb(0, 0, 0)" stroke="rgb(60, 60, 60)" stroke-width="1px" opacity="0.25"></line><line x1="0" y1="14.833333333333343" x2="280" y2="14.833333333333343" fill="rgb(0, 0, 0)" stroke="rgb(60, 60, 60)" stroke-width="1px" opacity="0.25"></line><line x1="0" y1="0" x2="280" y2="0" fill="rgb(0, 0, 0)" stroke="rgb(60, 60, 60)" stroke-width="1px" opacity="0.25"></line></g></g></g><g><g><line x1="0" y1="163.16666666666666" x2="280" y2="163.16666666666666" fill="rgb(0, 0, 0)" stroke="rgb(153, 153, 153)" stroke-width="1.5px"></line></g></g><g><g><line x1="23.333333333333332" y1="0" x2="23.333333333333332" y2="178" fill="rgb(0, 0, 0)" stroke="rgb(153, 153, 153)" stroke-width="1.5px"></line></g></g><g><g><g><g><g><path stroke="rgb(51, 187, 238)" stroke-width="2px" d="M23.333333333333332,-15.854729175567627L25.666666666666664,25.140006631612778L28,47.74064756088518L30.333333333333336,63.15974393340889L32.666666666666664,71.98152208941805L35,81.85884425614927L37.333333333333336,89.26094831985651L39.666666666666664,95.37904176140108L42,99.65837256184062L44.33333333333333,102.70948466803213L46.666666666666664,103.8130439277805L49,107.945600945218L51.33333333333333,109.34128149516138L53.66666666666667,112.6055743338131L56,114.97267156280188L58.333333333333336,116.72830494373102L60.66666666666667,118.76217291571847L63,120.07999262845719L65.33333333333333,121.35065353747261L67.66666666666667,123.52503167891305L70,126.27408170263298L72.33333333333334,127.7285619859511L74.66666666666667,129.3887118406542L77,126.03861696633504L79.33333333333333,128.903052415814L81.66666666666667,131.7017933086821L84,132.49854988680065L86.33333333333334,132.9269528804019L88.66666666666666,135.82711521460544L91,137.29790152644398L93.33333333333333,137.68777779466868L95.66666666666667,138.60504753375886L98,140.1037376025807L100.33333333333333,140.7007637790724L102.66666666666666,138.5983161031512L105,140.872499489358L107.33333333333334,142.74044469871055L109.66666666666667,143.9168570992001L112,144.64645153386905L114.33333333333333,144.5913839564194L116.66666666666667,145.6951662455195L119,146.60672471393465L121.33333333333334,146.24474721522202L123.66666666666666,146.68423604995317L126,148.17143637273458L128.33333333333331,149.7493944129363L130.66666666666666,150.0696676817268L133,151.46978539410773L135.33333333333334,152.28270333420465L137.66666666666666,151.25423631515008L140,150.01658886638222L142.33333333333331,151.25907836437747L144.66666666666669,152.36485973694434L147,153.09592138746564L149.33333333333334,153.65748129250153L151.66666666666666,153.66959179716238L154,153.0139018671328L156.33333333333334,154.26169947345755L158.66666666666666,154.85191022044248L161,154.95166136236486L163.33333333333334,155.8303358544598L165.66666666666666,156.0733095326835L168,156.5927232400863L170.33333333333331,156.79607215203575L172.66666666666669,157.24200114068032L175,157.05769320352854L177.33333333333331,157.22834113353878L179.66666666666669,157.164723934915L182,156.90741509031434L184.33333333333334,155.86406418679863L186.66666666666666,155.04462688663824L189,153.91389319598213L191.33333333333334,152.40942722737512L193.66666666666666,154.02612862793438L196,155.41644010727305L198.33333333333334,156.09963587046485L200.66666666666666,156.69654711606594L203,157.16042343590155L205.33333333333331,157.62324201701182L207.66666666666669,157.6223703417466L210,158.6090870326729L212.33333333333331,157.41269823765586L214.66666666666669,157.8173338543723L217,158.61019619060653L219.33333333333334,158.47163178525227L221.66666666666666,159.44672301127133L224,158.65643121727476L226.33333333333334,157.1040676296443L228.66666666666666,158.47553350939495L231,154.15861979771142L233.33333333333334,156.66174248098423L235.66666666666666,158.22695843620554L238,159.64312302143446L240.33333333333331,159.2389980737631L242.66666666666669,159.46466117159116L245,159.79875335751328L247.33333333333331,159.87399208565563L249.66666666666669,159.60589294420686L252,159.46970117312873L254.33333333333334,159.87669370133005" style="fill: none;" fill="none"></path></g><g><path stroke="rgb(204, 51, 17)" stroke-width="2px" d="M35,-4.540366141747768L37.333333333333336,11.353190093147049L39.666666666666664,23.063242935210212L42,45.13811990753038L44.33333333333333,56.953224074515944L46.666666666666664,65.61261508049196L49,71.82541863098017L51.33333333333333,78.52234687518082L53.66666666666667,84.88546030512641L56,82.88644581614699L58.333333333333336,85.63336699232552L60.66666666666667,90.84834705504282L63,96.27971383775578L65.33333333333333,101.53201390305914L67.66666666666667,103.66367986205914L70,106.02310582036354L72.33333333333334,111.11774081135196L74.66666666666667,110.94993144952745L77,112.21523199016369L79.33333333333333,114.98667491352776L81.66666666666667,113.28141191114567L84,116.00350226121188L86.33333333333334,121.16604477987505L88.66666666666666,122.4945334729473L91,123.71128141382403L93.33333333333333,125.58031868195141L95.66666666666667,127.3964292397404L98,128.74096348489152L100.33333333333333,128.4692145146841L102.66666666666666,128.53600413861932L105,130.59285392854048L107.33333333333334,132.42146361902584L109.66666666666667,133.1260962216508L112,132.71875824609754L114.33333333333333,131.43682768022137L116.66666666666667,131.43982294842908L119,131.11512122324564L121.33333333333334,133.38788364657694L123.66666666666666,133.77230614626473L126,137.38491875688473L128.33333333333331,138.90591710076424L130.66666666666666,139.6669558203447L133,141.48420621654864L135.33333333333334,142.40953874013962L137.66666666666666,141.3739555721724L140,139.8573971934192L142.33333333333331,140.84352890136563L144.66666666666669,138.45347046146009L147,142.8434635815421L149.33333333333334,143.18286242390093L151.66666666666666,142.46123352629564L154,143.1965334712425L156.33333333333334,145.75271380040834L158.66666666666666,143.5280700212345L161,145.2303849032895L163.33333333333334,145.85198894965907L165.66666666666666,147.88012697892347L168,146.47301612653507L170.33333333333331,145.52797495936258L172.66666666666669,145.51428650189382L175,147.94456219396358L177.33333333333331,147.82125354839187L179.66666666666669,146.37652049680244L182,147.54169031711237L184.33333333333334,147.84652919510097L186.66666666666666,147.4459751065915L189,149.4957770089117L191.33333333333334,144.88357193945689L193.66666666666666,147.4598183652491L196,147.10085882866764L198.33333333333334,147.79869788959255L200.66666666666666,150.05263290350416L203,151.63398082332677L205.33333333333331,151.22842098540187L207.66666666666669,149.43756757437856L210,149.33553789611463L212.33333333333331,151.02663036022068L214.66666666666669,151.33154026766707L217,150.8651770538097L219.33333333333334,153.3740035932862L221.66666666666666,152.66751548697172L224,152.00664202103786L226.33333333333334,152.60226436891023L228.66666666666666,153.16676620555637L231,153.64187196341783L233.33333333333334,153.0616151429075L235.66666666666666,153.06066594939577L238,152.43540470354446L240.33333333333331,154.43429760715975L242.66666666666669,153.74328896054593L245,154.0614705794988L247.33333333333331,154.72628571772205L249.66666666666669,154.63816287130294L252,151.88669036632882L254.33333333333334,152.3714849460489" style="fill: none;" fill="none"></path></g></g></g></g><g opacity="0.2"><g><g><g><path stroke="rgb(51, 187, 238)" stroke-width="2px" d="M23.333333333333332,-15.854729175567627L25.666666666666664,49.73684811592105L28,69.43726285298668L30.333333333333336,81.29260126749676L32.666666666666664,83.49923564990364L35,95.52273664871853L37.333333333333336,99.8460755646229L39.666666666666664,104.29928073287012L42,105.96955427527429L44.33333333333333,107.2400305569172L46.666666666666664,105.45837361613911L49,114.12194727857909L51.33333333333333,111.43024518092474L53.66666666666667,117.49561850229901L56,118.52053497234982L58.333333333333336,119.36051680644354L60.66666666666667,121.81211420893669L63,122.05638760328293L65.33333333333333,123.25645132859549L67.66666666666667,126.78640014429888L70,130.3975059737762L72.33333333333334,129.91023455063504L74.66666666666667,131.878903845946L77,121.01351433992386L79.33333333333333,133.19968523085117L81.66666666666667,135.89989271263283L84,133.69368271529675L86.33333333333334,133.56955671310425L88.66666666666666,140.17735604445141L91,139.50408018132052L93.33333333333333,138.2725920677185L95.66666666666667,139.98095195988816L98,142.3517725269L100.33333333333333,141.59630300104618L102.66666666666666,135.44464467962584L105,144.28377451002598L107.33333333333334,145.5423624838392L109.66666666666667,145.6814756890138L112,145.7408431818088L114.33333333333333,144.508782590429L116.66666666666667,147.35083967695635L119,147.97406241546076L121.33333333333334,145.70178096741438L123.66666666666666,147.34346930185956L126,150.40223685652018L128.33333333333331,152.1163314729929L130.66666666666666,150.5500775848826L133,153.56996196260056L135.33333333333334,153.50208024432263L137.66666666666666,149.711535786589L140,148.1601176932454L142.33333333333331,153.12281261136135L144.66666666666669,154.0235317957898L147,154.19251386324567L149.33333333333334,154.49982115005454L151.66666666666666,153.68775755415362L154,152.0303669720888L156.33333333333334,156.13339588294428L158.66666666666666,155.73722634091973L161,155.10128807524842L163.33333333333334,157.1483475926022L165.66666666666666,156.43777005001903L168,157.37184380119047L170.33333333333331,157.10109551995993L172.66666666666669,157.91089462364715L175,156.78123129780096L177.33333333333331,157.48431302855414L179.66666666666669,157.06929813697934L182,156.52145182341337L184.33333333333334,154.29903783152503L186.66666666666666,153.81547093639773L189,152.21779265999794L191.33333333333334,150.1527282744646L193.66666666666666,156.4511807287733L196,157.50190732628107L198.33333333333334,157.12442951525253L200.66666666666666,157.5919139844676L203,157.856237915655L205.33333333333331,158.3174698886772L207.66666666666669,157.62106282884878L210,160.08916206906238L212.33333333333331,155.61811504513025L214.66666666666669,158.42428727944693L217,159.79948969495794L219.33333333333334,158.2637851772209L221.66666666666666,160.90935985029986L224,157.47099352627993L226.33333333333334,154.7755222481986L228.66666666666666,160.5327323290209L231,147.68324923018616L233.33333333333334,160.41642650589347L235.66666666666666,160.57478236903748L238,161.7673698992779L240.33333333333331,158.632810652256L242.66666666666669,159.80315581833324L245,160.29989163639644L247.33333333333331,159.9868501778692L249.66666666666669,159.2037442320337L252,159.26541351651153L254.33333333333334,160.48718249363205" style="fill: none;" fill="none"></path></g><g><path stroke="rgb(204, 51, 17)" stroke-width="2px" d="M30.333333333333336,-43.417460878690065L32.666666666666664,19.75071851412457L35,44.41832178831103L37.333333333333336,34.08122980594638L39.666666666666664,40.136612395445525L42,77.6942756175995L44.33333333333333,74.49727678298952L46.666666666666664,78.52316155036293L49,81.11081415414812L51.33333333333333,88.54587260882062L53.66666666666667,94.41766444842023L56,79.89027384916943L58.333333333333336,89.75181141495706L60.66666666666667,98.66861034433049L63,104.42538498838744L65.33333333333333,109.40966386596364L67.66666666666667,106.86098395784697L70,109.56211536129317L72.33333333333334,118.75952565670013L74.66666666666667,110.69822071989378L77,114.1131678124269L79.33333333333333,119.1438196003437L81.66666666666667,110.72352467974028L84,120.08663082122803L86.33333333333334,128.90985063215098L88.66666666666666,124.4872652888298L91,125.53640265266102L93.33333333333333,128.38387396434945L95.66666666666667,130.12059471507868L98,130.75776469210786L100.33333333333333,128.06159107883772L102.66666666666666,128.6361885716518L105,133.67812856038412L107.33333333333334,135.1643781264623L109.66666666666667,134.18304511904716L112,132.10775128503641L114.33333333333333,129.51393183569115L116.66666666666667,131.4443158507347L119,130.6280686358611L121.33333333333334,136.7970272799333L123.66666666666666,134.34893989562988L126,142.80383767187595L128.33333333333331,141.18741461634636L130.66666666666666,140.80851389964423L133,144.21008181075257L135.33333333333334,143.7975375254949L137.66666666666666,139.82058082024258L140,137.58255962530774L142.33333333333331,142.32272646327814L144.66666666666669,134.86838280161223L147,149.4284532616536L149.33333333333334,143.69196068743867L151.66666666666666,141.37879017988843L154,144.29948338866234L156.33333333333334,149.58698429415625L158.66666666666666,140.1911043524742L161,147.78385722637177L163.33333333333334,146.78439501921338L165.66666666666666,150.92233402282L168,144.36234984795254L170.33333333333331,144.11041320860386L172.66666666666669,145.4937538156907L175,151.58997573206824L177.33333333333331,147.63629058003426L179.66666666666669,144.20942091941833L182,149.28944504757723L184.33333333333334,148.30378751208386L186.66666666666666,146.84514397382736L189,152.57047986239195L191.33333333333334,137.9652643352747L193.66666666666666,151.32418800393742L196,146.56241952379546L198.33333333333334,148.84545648097992L200.66666666666666,153.43353542437157L203,154.00600270306072L205.33333333333331,150.62008122851452L207.66666666666669,146.75128745784363L210,149.1824933787187L212.33333333333331,153.5632690563798L214.66666666666669,151.78890512883663L217,150.16563223302364L219.33333333333334,157.13724340250096L221.66666666666666,151.60778332750004L224,151.01533182213706L226.33333333333334,153.4956978907188L228.66666666666666,154.0135189605256L231,154.35453060021004L233.33333333333334,152.19122991214198L235.66666666666666,153.0592421591282L238,151.49751283476752L240.33333333333331,157.43263696258268L242.66666666666669,152.70677599062523L245,154.53874300792813L247.33333333333331,155.72350842505693L249.66666666666669,154.50597860167426L252,147.75948160886765L254.33333333333334,153.098676815629" style="fill: none;" fill="none"></path></g></g></g></g></g></g><g transform="translate(50, 178)" clip-path="url(#clip_1)"><clipPath id="clip_1"><rect width="280" height="21"></rect></clipPath><g><g><line x1="0" y1="0" x2="0" y2="5" style="visibility: inherit;" fill="rgb(0, 0, 0)" stroke="rgb(204, 204, 204)" stroke-width="1px"></line><line x1="23.333333333333332" y1="0" x2="23.333333333333332" y2="5" style="visibility: inherit;" fill="rgb(0, 0, 0)" stroke="rgb(204, 204, 204)" stroke-width="1px"></line><line x1="46.666666666666664" y1="0" x2="46.666666666666664" y2="5" style="visibility: inherit;" fill="rgb(0, 0, 0)" stroke="rgb(204, 204, 204)" stroke-width="1px"></line><line x1="70" y1="0" x2="70" y2="5" style="visibility: inherit;" fill="rgb(0, 0, 0)" stroke="rgb(204, 204, 204)" stroke-width="1px"></line><line x1="93.33333333333333" y1="0" x2="93.33333333333333" y2="5" style="visibility: inherit;" fill="rgb(0, 0, 0)" stroke="rgb(204, 204, 204)" stroke-width="1px"></line><line x1="116.66666666666667" y1="0" x2="116.66666666666667" y2="5" style="visibility: inherit;" fill="rgb(0, 0, 0)" stroke="rgb(204, 204, 204)" stroke-width="1px"></line><line x1="140" y1="0" x2="140" y2="5" style="visibility: inherit;" fill="rgb(0, 0, 0)" stroke="rgb(204, 204, 204)" stroke-width="1px"></line><line x1="163.33333333333334" y1="0" x2="163.33333333333334" y2="5" style="visibility: inherit;" fill="rgb(0, 0, 0)" stroke="rgb(204, 204, 204)" stroke-width="1px"></line><line x1="186.66666666666666" y1="0" x2="186.66666666666666" y2="5" style="visibility: inherit;" fill="rgb(0, 0, 0)" stroke="rgb(204, 204, 204)" stroke-width="1px"></line><line x1="210" y1="0" x2="210" y2="5" style="visibility: inherit;" fill="rgb(0, 0, 0)" stroke="rgb(204, 204, 204)" stroke-width="1px"></line><line x1="233.33333333333334" y1="0" x2="233.33333333333334" y2="5" style="visibility: inherit;" fill="rgb(0, 0, 0)" stroke="rgb(204, 204, 204)" stroke-width="1px"></line><line x1="256.66666666666663" y1="0" x2="256.66666666666663" y2="5" style="visibility: inherit;" fill="rgb(0, 0, 0)" stroke="rgb(204, 204, 204)" stroke-width="1px"></line><line x1="280" y1="0" x2="280" y2="5" style="visibility: inherit;" fill="rgb(0, 0, 0)" stroke="rgb(204, 204, 204)" stroke-width="1px"></line></g><g transform="translate(0, 8)"><text x="0" y="0" dx="0em" dy="0.95em" style="text-anchor: middle; visibility: hidden; font-family: &quot;Helvetica Neue&quot;, sans-serif; font-size: 12px; font-weight: 200;" fill="rgb(50, 49, 63)" stroke="none" stroke-width="1px">-10</text><text x="23.333333333333332" y="0" dx="0em" dy="0.95em" style="text-anchor: middle; visibility: inherit; font-family: &quot;Helvetica Neue&quot;, sans-serif; font-size: 12px; font-weight: 200;" fill="rgb(50, 49, 63)" stroke="none" stroke-width="1px">0</text><text x="46.666666666666664" y="0" dx="0em" dy="0.95em" style="text-anchor: middle; visibility: inherit; font-family: &quot;Helvetica Neue&quot;, sans-serif; font-size: 12px; font-weight: 200;" fill="rgb(50, 49, 63)" stroke="none" stroke-width="1px">10</text><text x="70" y="0" dx="0em" dy="0.95em" style="text-anchor: middle; visibility: inherit; font-family: &quot;Helvetica Neue&quot;, sans-serif; font-size: 12px; font-weight: 200;" fill="rgb(50, 49, 63)" stroke="none" stroke-width="1px">20</text><text x="93.33333333333333" y="0" dx="0em" dy="0.95em" style="text-anchor: middle; visibility: inherit; font-family: &quot;Helvetica Neue&quot;, sans-serif; font-size: 12px; font-weight: 200;" fill="rgb(50, 49, 63)" stroke="none" stroke-width="1px">30</text><text x="116.66666666666667" y="0" dx="0em" dy="0.95em" style="text-anchor: middle; visibility: inherit; font-family: &quot;Helvetica Neue&quot;, sans-serif; font-size: 12px; font-weight: 200;" fill="rgb(50, 49, 63)" stroke="none" stroke-width="1px">40</text><text x="140" y="0" dx="0em" dy="0.95em" style="text-anchor: middle; visibility: inherit; font-family: &quot;Helvetica Neue&quot;, sans-serif; font-size: 12px; font-weight: 200;" fill="rgb(50, 49, 63)" stroke="none" stroke-width="1px">50</text><text x="163.33333333333334" y="0" dx="0em" dy="0.95em" style="text-anchor: middle; visibility: inherit; font-family: &quot;Helvetica Neue&quot;, sans-serif; font-size: 12px; font-weight: 200;" fill="rgb(50, 49, 63)" stroke="none" stroke-width="1px">60</text><text x="186.66666666666666" y="0" dx="0em" dy="0.95em" style="text-anchor: middle; visibility: inherit; font-family: &quot;Helvetica Neue&quot;, sans-serif; font-size: 12px; font-weight: 200;" fill="rgb(50, 49, 63)" stroke="none" stroke-width="1px">70</text><text x="210" y="0" dx="0em" dy="0.95em" style="text-anchor: middle; visibility: inherit; font-family: &quot;Helvetica Neue&quot;, sans-serif; font-size: 12px; font-weight: 200;" fill="rgb(50, 49, 63)" stroke="none" stroke-width="1px">80</text><text x="233.33333333333334" y="0" dx="0em" dy="0.95em" style="text-anchor: middle; visibility: inherit; font-family: &quot;Helvetica Neue&quot;, sans-serif; font-size: 12px; font-weight: 200;" fill="rgb(50, 49, 63)" stroke="none" stroke-width="1px">90</text><text x="256.66666666666663" y="0" dx="0em" dy="0.95em" style="text-anchor: middle; visibility: inherit; font-family: &quot;Helvetica Neue&quot;, sans-serif; font-size: 12px; font-weight: 200;" fill="rgb(50, 49, 63)" stroke="none" stroke-width="1px">100</text><text x="280" y="0" dx="0em" dy="0.95em" style="text-anchor: middle; visibility: hidden; font-family: &quot;Helvetica Neue&quot;, sans-serif; font-size: 12px; font-weight: 200;" fill="rgb(50, 49, 63)" stroke="none" stroke-width="1px">110</text></g><line x1="0" y1="0" x2="280" y2="0" fill="rgb(0, 0, 0)" stroke="rgb(204, 204, 204)" stroke-width="1px"></line></g></g></g></g></svg>