<svg viewBox="0 0 330.0000305175781 200.00001525878906" xmlns="http://www.w3.org/2000/svg"><g><g><g><g><g><line x1="50" y1="178" x2="45" y2="178" style="visibility: inherit;" fill="rgb(0, 0, 0)" stroke="rgb(204, 204, 204)" stroke-width="1px"></line><line x1="50" y1="163.16666666666666" x2="45" y2="163.16666666666666" style="visibility: inherit;" fill="rgb(0, 0, 0)" stroke="rgb(204, 204, 204)" stroke-width="1px"></line><line x1="50" y1="148.33333333333334" x2="45" y2="148.33333333333334" style="visibility: inherit;" fill="rgb(0, 0, 0)" stroke="rgb(204, 204, 204)" stroke-width="1px"></line><line x1="50" y1="133.5" x2="45" y2="133.5" style="visibility: inherit;" fill="rgb(0, 0, 0)" stroke="rgb(204, 204, 204)" stroke-width="1px"></line><line x1="50" y1="118.66666666666667" x2="45" y2="118.66666666666667" style="visibility: inherit;" fill="rgb(0, 0, 0)" stroke="rgb(204, 204, 204)" stroke-width="1px"></line><line x1="50" y1="103.83333333333334" x2="45" y2="103.83333333333334" style="visibility: inherit;" fill="rgb(0, 0, 0)" stroke="rgb(204, 204, 204)" stroke-width="1px"></line><line x1="50" y1="89.00000000000001" x2="45" y2="89.00000000000001" style="visibility: inherit;" fill="rgb(0, 0, 0)" stroke="rgb(204, 204, 204)" stroke-width="1px"></line><line x1="50" y1="74.16666666666669" x2="45" y2="74.16666666666669" style="visibility: inherit;" fill="rgb(0, 0, 0)" stroke="rgb(204, 204, 204)" stroke-width="1px"></line><line x1="50" y1="59.33333333333336" x2="45" y2="59.33333333333336" style="visibility: inherit;" fill="rgb(0, 0, 0)" stroke="rgb(204, 204, 204)" stroke-width="1px"></line><line x1="50" y1="44.50000000000003" x2="45" y2="44.50000000000003" style="visibility: inherit;" fill="rgb(0, 0, 0)" stroke="rgb(204, 204, 204)" stroke-width="1px"></line><line x1="50" y1="29.666666666666686" x2="45" y2="29.666666666666686" style="visibility: inherit;" fill="rgb(0, 0, 0)" stroke="rgb(204, 204, 204)" stroke-width="1px"></line><line x1="50" y1="14.833333333333343" x2="45" y2="14.833333333333343" style="visibility: inherit;" fill="rgb(0, 0, 0)" stroke="rgb(204, 204, 204)" stroke-width="1px"></line><line x1="50" y1="0" x2="45" y2="0" style="visibility: inherit;" fill="rgb(0, 0, 0)" stroke="rgb(204, 204, 204)" stroke-width="1px"></line></g><g transform="translate(40, 0)"><text x="0" y="178" dx="0em" dy="0.3em" style="text-anchor: end; visibility: hidden; font-family: &quot;Helvetica Neue&quot;, sans-serif; font-size: 12px; font-weight: 200;" fill="rgb(50, 49, 63)" stroke="none" stroke-width="1px">-0.2</text><text x="0" y="163.16666666666666" dx="0em" dy="0.3em" style="text-anchor: end; visibility: inherit; font-family: &quot;Helvetica Neue&quot;, sans-serif; font-size: 12px; font-weight: 200;" fill="rgb(50, 49, 63)" stroke="none" stroke-width="1px">0</text><text x="0" y="148.33333333333334" dx="0em" dy="0.3em" style="text-anchor: end; visibility: hidden; font-family: &quot;Helvetica Neue&quot;, sans-serif; font-size: 12px; font-weight: 200;" fill="rgb(50, 49, 63)" stroke="none" stroke-width="1px">0.2</text><text x="0" y="133.5" dx="0em" dy="0.3em" style="text-anchor: end; visibility: inherit; font-family: &quot;Helvetica Neue&quot;, sans-serif; font-size: 12px; font-weight: 200;" fill="rgb(50, 49, 63)" stroke="none" stroke-width="1px">0.4</text><text x="0" y="118.66666666666667" dx="0em" dy="0.3em" style="text-anchor: end; visibility: hidden; font-family: &quot;Helvetica Neue&quot;, sans-serif; font-size: 12px; font-weight: 200;" fill="rgb(50, 49, 63)" stroke="none" stroke-width="1px">0.6</text><text x="0" y="103.83333333333334" dx="0em" dy="0.3em" style="text-anchor: end; visibility: inherit; font-family: &quot;Helvetica Neue&quot;, sans-serif; font-size: 12px; font-weight: 200;" fill="rgb(50, 49, 63)" stroke="none" stroke-width="1px">0.8</text><text x="0" y="89.00000000000001" dx="0em" dy="0.3em" style="text-anchor: end; visibility: hidden; font-family: &quot;Helvetica Neue&quot;, sans-serif; font-size: 12px; font-weight: 200;" fill="rgb(50, 49, 63)" stroke="none" stroke-width="1px">1</text><text x="0" y="74.16666666666669" dx="0em" dy="0.3em" style="text-anchor: end; visibility: inherit; font-family: &quot;Helvetica Neue&quot;, sans-serif; font-size: 12px; font-weight: 200;" fill="rgb(50, 49, 63)" stroke="none" stroke-width="1px">1.2</text><text x="0" y="59.33333333333336" dx="0em" dy="0.3em" style="text-anchor: end; visibility: hidden; font-family: &quot;Helvetica Neue&quot;, sans-serif; font-size: 12px; font-weight: 200;" fill="rgb(50, 49, 63)" stroke="none" stroke-width="1px">1.4</text><text x="0" y="44.50000000000003" dx="0em" dy="0.3em" style="text-anchor: end; visibility: inherit; font-family: &quot;Helvetica Neue&quot;, sans-serif; font-size: 12px; font-weight: 200;" fill="rgb(50, 49, 63)" stroke="none" stroke-width="1px">1.6</text><text x="0" y="29.666666666666686" dx="0em" dy="0.3em" style="text-anchor: end; visibility: hidden; font-family: &quot;Helvetica Neue&quot;, sans-serif; font-size: 12px; font-weight: 200;" fill="rgb(50, 49, 63)" stroke="none" stroke-width="1px">1.8</text><text x="0" y="14.833333333333343" dx="0em" dy="0.3em" style="text-anchor: end; visibility: inherit; font-family: &quot;Helvetica Neue&quot;, sans-serif; font-size: 12px; font-weight: 200;" fill="rgb(50, 49, 63)" stroke="none" stroke-width="1px">2</text><text x="0" y="0" dx="0em" dy="0.3em" style="text-anchor: end; visibility: hidden; font-family: &quot;Helvetica Neue&quot;, sans-serif; font-size: 12px; font-weight: 200;" fill="rgb(50, 49, 63)" stroke="none" stroke-width="1px">2.2</text></g><line x1="50" y1="0" x2="50" y2="178" fill="rgb(0, 0, 0)" stroke="rgb(204, 204, 204)" stroke-width="1px"></line></g></g><g transform="translate(50, 0)" clip-path="url(#clip_0)"><clipPath id="clip_0"><rect width="280" height="177"></rect></clipPath><g><g><g><line x1="0" y1="0" x2="0" y2="178" fill="rgb(0, 0, 0)" stroke="rgb(60, 60, 60)" stroke-width="1px" opacity="0.25"></line><line x1="23.333333333333332" y1="0" x2="23.333333333333332" y2="178" fill="rgb(0, 0, 0)" stroke="rgb(60, 60, 60)" stroke-width="1px" opacity="0.25"></line><line x1="46.666666666666664" y1="0" x2="46.666666666666664" y2="178" fill="rgb(0, 0, 0)" stroke="rgb(60, 60, 60)" stroke-width="1px" opacity="0.25"></line><line x1="70" y1="0" x2="70" y2="178" fill="rgb(0, 0, 0)" stroke="rgb(60, 60, 60)" stroke-width="1px" opacity="0.25"></line><line x1="93.33333333333333" y1="0" x2="93.33333333333333" y2="178" fill="rgb(0, 0, 0)" stroke="rgb(60, 60, 60)" stroke-width="1px" opacity="0.25"></line><line x1="116.66666666666667" y1="0" x2="116.66666666666667" y2="178" fill="rgb(0, 0, 0)" stroke="rgb(60, 60, 60)" stroke-width="1px" opacity="0.25"></line><line x1="140" y1="0" x2="140" y2="178" fill="rgb(0, 0, 0)" stroke="rgb(60, 60, 60)" stroke-width="1px" opacity="0.25"></line><line x1="163.33333333333334" y1="0" x2="163.33333333333334" y2="178" fill="rgb(0, 0, 0)" stroke="rgb(60, 60, 60)" stroke-width="1px" opacity="0.25"></line><line x1="186.66666666666666" y1="0" x2="186.66666666666666" y2="178" fill="rgb(0, 0, 0)" stroke="rgb(60, 60, 60)" stroke-width="1px" opacity="0.25"></line><line x1="210" y1="0" x2="210" y2="178" fill="rgb(0, 0, 0)" stroke="rgb(60, 60, 60)" stroke-width="1px" opacity="0.25"></line><line x1="233.33333333333334" y1="0" x2="233.33333333333334" y2="178" fill="rgb(0, 0, 0)" stroke="rgb(60, 60, 60)" stroke-width="1px" opacity="0.25"></line><line x1="256.66666666666663" y1="0" x2="256.66666666666663" y2="178" fill="rgb(0, 0, 0)" stroke="rgb(60, 60, 60)" stroke-width="1px" opacity="0.25"></line><line x1="280" y1="0" x2="280" y2="178" fill="rgb(0, 0, 0)" stroke="rgb(60, 60, 60)" stroke-width="1px" opacity="0.25"></line></g><g><line x1="0" y1="178" x2="280" y2="178" fill="rgb(0, 0, 0)" stroke="rgb(60, 60, 60)" stroke-width="1px" opacity="0.25"></line><line x1="0" y1="163.16666666666666" x2="280" y2="163.16666666666666" fill="rgb(0, 0, 0)" stroke="rgb(60, 60, 60)" stroke-width="1px" opacity="0.25"></line><line x1="0" y1="148.33333333333334" x2="280" y2="148.33333333333334" fill="rgb(0, 0, 0)" stroke="rgb(60, 60, 60)" stroke-width="1px" opacity="0.25"></line><line x1="0" y1="133.5" x2="280" y2="133.5" fill="rgb(0, 0, 0)" stroke="rgb(60, 60, 60)" stroke-width="1px" opacity="0.25"></line><line x1="0" y1="118.66666666666667" x2="280" y2="118.66666666666667" fill="rgb(0, 0, 0)" stroke="rgb(60, 60, 60)" stroke-width="1px" opacity="0.25"></line><line x1="0" y1="103.83333333333334" x2="280" y2="103.83333333333334" fill="rgb(0, 0, 0)" stroke="rgb(60, 60, 60)" stroke-width="1px" opacity="0.25"></line><line x1="0" y1="89.00000000000001" x2="280" y2="89.00000000000001" fill="rgb(0, 0, 0)" stroke="rgb(60, 60, 60)" stroke-width="1px" opacity="0.25"></line><line x1="0" y1="74.16666666666669" x2="280" y2="74.16666666666669" fill="rgb(0, 0, 0)" stroke="rgb(60, 60, 60)" stroke-width="1px" opacity="0.25"></line><line x1="0" y1="59.33333333333336" x2="280" y2="59.33333333333336" fill="rgb(0, 0, 0)" stroke="rgb(60, 60, 60)" stroke-width="1px" opacity="0.25"></line><line x1="0" y1="44.50000000000003" x2="280" y2="44.50000000000003" fill="rgb(0, 0, 0)" stroke="rgb(60, 60, 60)" stroke-width="1px" opacity="0.25"></line><line x1="0" y1="29.666666666666686" x2="280" y2="29.666666666666686" fill="rgb(0, 0, 0)" stroke="rgb(60, 60, 60)" stroke-width="1px" opacity="0.25"></line><line x1="0" y1="14.833333333333343" x2="280" y2="14.833333333333343" fill="rgb(0, 0, 0)" stroke="rgb(60, 60, 60)" stroke-width="1px" opacity="0.25"></line><line x1="0" y1="0" x2="280" y2="0" fill="rgb(0, 0, 0)" stroke="rgb(60, 60, 60)" stroke-width="1px" opacity="0.25"></line></g></g></g><g><g><line x1="0" y1="163.16666666666666" x2="280" y2="163.16666666666666" fill="rgb(0, 0, 0)" stroke="rgb(153, 153, 153)" stroke-width="1.5px"></line></g></g><g><g><line x1="23.333333333333332" y1="0" x2="23.333333333333332" y2="178" fill="rgb(0, 0, 0)" stroke="rgb(153, 153, 153)" stroke-width="1.5px"></line></g></g><g><g><g><g><g><path stroke="rgb(0, 119, 187)" stroke-width="2px" d="M23.333333333333332,-26.104530453681946L25.666666666666664,14.429355216523021L28,41.46879141549678L30.333333333333336,61.251219520089705L32.666666666666664,69.3729572805326L35,81.45324649807031L37.333333333333336,87.13900209649033L39.666666666666664,92.14952892811411L42,98.96621889577176L44.33333333333333,104.04234162687911L46.666666666666664,109.01594984165766L49,112.20812049774106L51.33333333333333,114.27332941383504L53.66666666666667,116.99129018482611L56,118.98891333561768L58.333333333333336,120.27899994511532L60.66666666666667,122.34519652347922L63,123.86713430295868L65.33333333333333,124.97974103047196L67.66666666666667,125.17180039156837L70,127.77551659392188L72.33333333333334,129.53784355182188L74.66666666666667,131.9500955289554L77,133.86735126545454L79.33333333333333,134.73232122507534L81.66666666666667,135.3047017378945L84,136.2572322535243L86.33333333333334,136.12265850869267L88.66666666666666,137.15373111072185L91,139.02715139262827L93.33333333333333,139.78369284972973L95.66666666666667,141.72431162228614L98,142.31682343469447L100.33333333333333,143.26619067539696L102.66666666666666,143.4570291954298L105,144.46998689631477L107.33333333333334,145.23703588062287L109.66666666666667,144.17335284760267L112,145.18516987197918L114.33333333333333,146.4996348476099L116.66666666666667,146.58404680630503L119,147.41964368189414L121.33333333333334,148.33578207120948L123.66666666666666,147.67069422606423L126,148.54099760106584L128.33333333333331,148.65734725586137L130.66666666666666,149.5303614957951L133,149.18867205323937L135.33333333333334,147.5169216935141L137.66666666666666,150.2534475094879L140,150.58477348686247L142.33333333333331,151.0004444327028L144.66666666666669,152.06074519491807L147,153.29987891984086L149.33333333333334,153.45987853093217L151.66666666666666,154.20634368419638L154,154.44180876479547L156.33333333333334,153.54884570220696L158.66666666666666,155.02097907491293L161,153.87173753278108L163.33333333333334,154.7067440313895L165.66666666666666,154.62693562782601L168,155.96549804514726L170.33333333333331,156.19111593468634L172.66666666666669,156.39856648338028L175,156.7244501882326L177.33333333333331,157.23711674353666L179.66666666666669,156.68697211707348L182,157.40863753595778L184.33333333333334,157.0739840943942L186.66666666666666,157.70867129267234L189,156.40453772903072L191.33333333333334,157.0247912694648L193.66666666666666,157.91129080541742L196,158.03407071980524L198.33333333333334,158.06985611192L200.66666666666666,158.4752973656651L203,158.11735579167583L205.33333333333331,158.78956205523878L207.66666666666669,158.78336582433303L210,158.58101918459607L212.33333333333331,159.46156125487292L214.66666666666669,159.53788346258642L217,158.0210934984158L219.33333333333334,159.30852442900164L221.66666666666666,159.8045067233532L224,158.98137282139197L226.33333333333334,158.53147711936316L228.66666666666666,158.66492212861985L231,159.3725897804412L233.33333333333334,159.5891662037678L235.66666666666666,160.01357075500334L238,159.52775868159242L240.33333333333331,159.8739050331615L242.66666666666669,160.05214085174018L245,160.21027843376447L247.33333333333331,160.5541307949252L249.66666666666669,159.8172063846326L252,160.3357346546016L254.33333333333334,158.25815625983645" style="fill: none;" fill="none"></path></g><g><path stroke="rgb(255, 112, 67)" stroke-width="2px" d="M37.333333333333336,-21.9459289956001L39.666666666666664,4.260926944762417L42,30.660268865963246L44.33333333333333,44.63465373669561L46.666666666666664,53.80559334337923L49,59.39320815517226L51.33333333333333,77.26782561751477L53.66666666666667,85.36569367120424L56,88.82818401567086L58.333333333333336,97.37314859856957L60.66666666666667,96.69136812970979L63,101.8068528717116L65.33333333333333,102.31005258865399L67.66666666666667,104.90522612537865L70,108.4209645277059L72.33333333333334,108.8912766144035L74.66666666666667,112.0363311530287L77,111.68546471605853L79.33333333333333,112.42037598380801L81.66666666666667,113.69393804412107L84,112.77757625216016L86.33333333333334,117.73419658603683L88.66666666666666,116.77379218872392L91,121.00670014501472L93.33333333333333,122.04562400063537L95.66666666666667,123.54850574541746L98,126.08676795488887L100.33333333333333,124.88136765081937L102.66666666666666,125.83876136231717L105,128.37111934227033L107.33333333333334,130.36990357802864L109.66666666666667,134.24005394246703L112,129.020679965311L114.33333333333333,132.26215760427516L116.66666666666667,135.6503698546115L119,136.72074588698538L121.33333333333334,132.48520178610414L123.66666666666666,135.26144590434444L126,135.3115168559028L128.33333333333331,137.91190507711138L130.66666666666666,138.89861518367545L133,139.1847860429217L135.33333333333334,140.94662405335472L137.66666666666666,139.14836950072325L140,137.34599229475185L142.33333333333331,139.41819972464248L144.66666666666669,142.0526199847633L147,141.1157690630451L149.33333333333334,142.63282087918782L151.66666666666666,142.50075074122344L154,143.41813544284918L156.33333333333334,140.99342356633085L158.66666666666666,141.29209896829292L161,143.38428490006874L163.33333333333334,143.03800477769343L165.66666666666666,145.1648775598588L168,145.38505690561826L170.33333333333331,147.10883177280684L172.66666666666669,146.6337946184094L175,148.17055752739998L177.33333333333331,147.64190928259904L179.66666666666669,146.81071176898132L182,146.18906658851097L184.33333333333334,148.95695604163203L186.66666666666666,147.5915376987723L189,148.1371683178346L191.33333333333334,149.33238144604368L193.66666666666666,150.10934187107088L196,150.1619659262864L198.33333333333334,152.39614418881942L200.66666666666666,150.57031568033184L203,147.63987080539874L205.33333333333331,149.9497264561193L207.66666666666669,150.0155922941647L210,150.26633885635627L212.33333333333331,151.3265322285912L214.66666666666669,148.0802971465203L217,150.64908592807132L219.33333333333334,151.30142432395743L221.66666666666666,152.46379821515558L224,146.82286154240256L226.33333333333334,149.4120286723567L228.66666666666666,151.67312010401048L231,152.78239449525014L233.33333333333334,151.51247276860954L235.66666666666666,149.52669795850008L238,151.83098684002414L240.33333333333331,153.02495239178015L242.66666666666669,151.30087907016082L245,152.7421711488553L247.33333333333331,152.750340603033L249.66666666666669,153.8595112386779L252,151.81381633322056L254.33333333333334,151.6956752127843" style="fill: none;" fill="none"></path></g></g></g></g><g opacity="0.2"><g><g><g><path stroke="rgb(0, 119, 187)" stroke-width="2px" d="M23.333333333333332,-26.104530453681946L25.666666666666664,38.749686618646024L28,67.42665016651155L30.333333333333336,84.51535497109097L32.666666666666664,79.97669810056688L35,98.16463539004327L37.333333333333336,95.2697235743205L39.666666666666664,99.4549251496792L42,109.01951252420744L44.33333333333333,111.579792290926L46.666666666666664,116.431251903375L49,116.979004830122L51.33333333333333,117.36439952254295L53.66666666666667,121.06290657321614L56,121.98299993077916L58.333333333333336,122.21321999033293L60.66666666666667,125.44361704587936L63,126.14965455234051L65.33333333333333,126.64848162730536L67.66666666666667,125.45987187822661L70,131.68094810346764L72.33333333333334,132.18127599855265L74.66666666666667,135.5684258689483L77,136.7432121584813L79.33333333333333,136.02977001667023L81.66666666666667,136.16327006618184L84,137.6860255897045L86.33333333333334,135.92079809804758L88.66666666666666,138.70033906400204L91,141.83728078007698L93.33333333333333,140.9185047845046L95.66666666666667,144.63523939500254L98,143.20559108257294L100.33333333333333,144.69024146844944L102.66666666666666,143.74328696727753L105,145.989423421522L107.33333333333334,146.38760934521756L109.66666666666667,142.57782830794653L112,146.70289540290833L114.33333333333333,148.47133230666321L116.66666666666667,146.71066474417847L119,148.67303899427256L121.33333333333334,149.70998965452117L123.66666666666666,146.67306245863438L126,149.84645266334218L128.33333333333331,148.83187173803648L130.66666666666666,150.83988285561404L133,148.67613788942498L135.33333333333334,145.0092961539825L137.66666666666666,154.35823623339337L140,151.0817624529203L142.33333333333331,151.6239508514603L144.66666666666669,153.65119633823633L147,155.1585795072218L149.33333333333334,153.6998779475689L151.66666666666666,155.326041414092L154,154.79500638569397L156.33333333333334,152.20940110832453L158.66666666666666,157.22917913397154L161,152.1478752195835L163.33333333333334,155.95925377930206L165.66666666666666,154.50722302248082L168,157.97334167112908L170.33333333333331,156.529542768995L172.66666666666669,156.70974230642122L175,157.21327574551105L177.33333333333331,158.0061165764928L179.66666666666669,155.86175517737865L182,158.49113566428423L184.33333333333334,156.5720039320489L186.66666666666666,158.66070209008953L189,154.4483373835683L191.33333333333334,157.95517158011597L193.66666666666666,159.2410401093463L196,158.21824059138697L198.33333333333334,158.12353420009217L200.66666666666666,159.08345924628279L203,157.58044343069196L205.33333333333331,159.79787145058313L207.66666666666669,158.77407147797445L210,158.2774992249906L212.33333333333331,160.78237436028817L214.66666666666669,159.6523667741567L217,155.74590855215988L219.33333333333334,161.2396708248804L221.66666666666666,160.54848016488054L224,157.74667196845016L226.33333333333334,157.85663356631994L228.66666666666666,158.86508964250484L231,160.4340912581732L233.33333333333334,159.91403083875775L235.66666666666666,160.65017758185664L238,158.799040571476L240.33333333333331,160.39312456051508L242.66666666666669,160.31949457960823L245,160.44748480680087L247.33333333333331,161.06990933666626L249.66666666666669,158.71181976919374L252,161.11352705955505L254.33333333333334,155.1417886676888" style="fill: none;" fill="none"></path></g><g><path stroke="rgb(255, 112, 67)" stroke-width="2px" d="M32.666666666666664,-24.631118535995483L35,2.517183462778746L37.333333333333336,5.699505647023528L39.666666666666664,42.47077449162805L42,69.59417039155962L44.33333333333333,65.38498663902284L46.666666666666664,67.47882300615312L49,67.74422281980516L51.33333333333333,104.02138808369638L53.66666666666667,97.49663118521374L56,94.01784950494768L58.333333333333336,110.18456890185675L60.66666666666667,95.66898593306543L63,109.47878116369249L65.33333333333333,103.0647755066554L67.66666666666667,108.79774922132493L70,113.6943793197473L72.33333333333334,109.59672926863036L74.66666666666667,116.7538508673509L77,111.15916921695074L79.33333333333333,113.5227376619975L81.66666666666667,115.60427570343018L84,111.40303590893747L86.33333333333334,125.16911947727203L88.66666666666666,115.33318647742271L91,127.35605973998707L93.33333333333333,123.60400943954787L95.66666666666667,125.80282806356749L98,129.89416096607846L100.33333333333333,123.07326728105545L102.66666666666666,127.2748518884182L105,132.16965624690056L107.33333333333334,133.36807990074158L109.66666666666667,140.04527945319813L112,121.19161902864775L114.33333333333333,137.1243740518888L116.66666666666667,140.73268822332224L119,138.32630993425846L121.33333333333334,126.13188563783964L123.66666666666666,139.4258120805025L126,135.3866232832273L128.33333333333331,141.8124874085188L130.66666666666666,140.37868034342927L133,139.61404233177504L135.33333333333334,143.58938106894493L137.66666666666666,136.45098767181238L140,134.64242648581666L142.33333333333331,142.5265108694633L144.66666666666669,146.0042503749331L147,139.71049268047017L149.33333333333334,144.9083986033996L151.66666666666666,142.30264553427696L154,144.79421249528727L156.33333333333334,137.3563557515542L158.66666666666666,141.74011207123598L161,146.5225637977322L163.33333333333334,142.51858459413052L165.66666666666666,148.3551867331068L168,145.71532592425746L170.33333333333331,149.69449407358965L172.66666666666669,145.92123888681334L175,150.47570189088583L177.33333333333331,146.84893691539764L179.66666666666669,145.5639154985547L182,145.25659881780547L184.33333333333334,153.10879022131365L186.66666666666666,145.54341018448275L189,148.955614246428L191.33333333333334,151.12520113835734L193.66666666666666,151.27478250861168L196,150.24090200910967L198.33333333333334,155.74741158261895L200.66666666666666,147.83157291760048L203,143.24420349299908L205.33333333333331,153.41450993220013L207.66666666666669,150.11439105123281L210,150.6424586996436L212.33333333333331,152.9168222869436L214.66666666666669,143.21094452341399L217,154.50226910039783L219.33333333333334,152.2799319177866L221.66666666666666,154.20735905195278L224,138.36145653327307L226.33333333333334,153.29577936728796L228.66666666666666,155.06475725149116L231,154.44630608210963L233.33333333333334,149.60759017864865L235.66666666666666,146.5480357433359L238,155.2874201623102L240.33333333333331,154.81590071941417L242.66666666666669,148.71476908773184L245,154.90410926689705L247.33333333333331,152.76259478429955L249.66666666666669,155.5232671921452L252,148.74527397503456L254.33333333333334,151.51846353212994" style="fill: none;" fill="none"></path></g></g></g></g></g></g><g transform="translate(50, 178)" clip-path="url(#clip_1)"><clipPath id="clip_1"><rect width="280" height="21"></rect></clipPath><g><g><line x1="0" y1="0" x2="0" y2="5" style="visibility: inherit;" fill="rgb(0, 0, 0)" stroke="rgb(204, 204, 204)" stroke-width="1px"></line><line x1="23.333333333333332" y1="0" x2="23.333333333333332" y2="5" style="visibility: inherit;" fill="rgb(0, 0, 0)" stroke="rgb(204, 204, 204)" stroke-width="1px"></line><line x1="46.666666666666664" y1="0" x2="46.666666666666664" y2="5" style="visibility: inherit;" fill="rgb(0, 0, 0)" stroke="rgb(204, 204, 204)" stroke-width="1px"></line><line x1="70" y1="0" x2="70" y2="5" style="visibility: inherit;" fill="rgb(0, 0, 0)" stroke="rgb(204, 204, 204)" stroke-width="1px"></line><line x1="93.33333333333333" y1="0" x2="93.33333333333333" y2="5" style="visibility: inherit;" fill="rgb(0, 0, 0)" stroke="rgb(204, 204, 204)" stroke-width="1px"></line><line x1="116.66666666666667" y1="0" x2="116.66666666666667" y2="5" style="visibility: inherit;" fill="rgb(0, 0, 0)" stroke="rgb(204, 204, 204)" stroke-width="1px"></line><line x1="140" y1="0" x2="140" y2="5" style="visibility: inherit;" fill="rgb(0, 0, 0)" stroke="rgb(204, 204, 204)" stroke-width="1px"></line><line x1="163.33333333333334" y1="0" x2="163.33333333333334" y2="5" style="visibility: inherit;" fill="rgb(0, 0, 0)" stroke="rgb(204, 204, 204)" stroke-width="1px"></line><line x1="186.66666666666666" y1="0" x2="186.66666666666666" y2="5" style="visibility: inherit;" fill="rgb(0, 0, 0)" stroke="rgb(204, 204, 204)" stroke-width="1px"></line><line x1="210" y1="0" x2="210" y2="5" style="visibility: inherit;" fill="rgb(0, 0, 0)" stroke="rgb(204, 204, 204)" stroke-width="1px"></line><line x1="233.33333333333334" y1="0" x2="233.33333333333334" y2="5" style="visibility: inherit;" fill="rgb(0, 0, 0)" stroke="rgb(204, 204, 204)" stroke-width="1px"></line><line x1="256.66666666666663" y1="0" x2="256.66666666666663" y2="5" style="visibility: inherit;" fill="rgb(0, 0, 0)" stroke="rgb(204, 204, 204)" stroke-width="1px"></line><line x1="280" y1="0" x2="280" y2="5" style="visibility: inherit;" fill="rgb(0, 0, 0)" stroke="rgb(204, 204, 204)" stroke-width="1px"></line></g><g transform="translate(0, 8)"><text x="0" y="0" dx="0em" dy="0.95em" style="text-anchor: middle; visibility: hidden; font-family: &quot;Helvetica Neue&quot;, sans-serif; font-size: 12px; font-weight: 200;" fill="rgb(50, 49, 63)" stroke="none" stroke-width="1px">-10</text><text x="23.333333333333332" y="0" dx="0em" dy="0.95em" style="text-anchor: middle; visibility: inherit; font-family: &quot;Helvetica Neue&quot;, sans-serif; font-size: 12px; font-weight: 200;" fill="rgb(50, 49, 63)" stroke="none" stroke-width="1px">0</text><text x="46.666666666666664" y="0" dx="0em" dy="0.95em" style="text-anchor: middle; visibility: inherit; font-family: &quot;Helvetica Neue&quot;, sans-serif; font-size: 12px; font-weight: 200;" fill="rgb(50, 49, 63)" stroke="none" stroke-width="1px">10</text><text x="70" y="0" dx="0em" dy="0.95em" style="text-anchor: middle; visibility: inherit; font-family: &quot;Helvetica Neue&quot;, sans-serif; font-size: 12px; font-weight: 200;" fill="rgb(50, 49, 63)" stroke="none" stroke-width="1px">20</text><text x="93.33333333333333" y="0" dx="0em" dy="0.95em" style="text-anchor: middle; visibility: inherit; font-family: &quot;Helvetica Neue&quot;, sans-serif; font-size: 12px; font-weight: 200;" fill="rgb(50, 49, 63)" stroke="none" stroke-width="1px">30</text><text x="116.66666666666667" y="0" dx="0em" dy="0.95em" style="text-anchor: middle; visibility: inherit; font-family: &quot;Helvetica Neue&quot;, sans-serif; font-size: 12px; font-weight: 200;" fill="rgb(50, 49, 63)" stroke="none" stroke-width="1px">40</text><text x="140" y="0" dx="0em" dy="0.95em" style="text-anchor: middle; visibility: inherit; font-family: &quot;Helvetica Neue&quot;, sans-serif; font-size: 12px; font-weight: 200;" fill="rgb(50, 49, 63)" stroke="none" stroke-width="1px">50</text><text x="163.33333333333334" y="0" dx="0em" dy="0.95em" style="text-anchor: middle; visibility: inherit; font-family: &quot;Helvetica Neue&quot;, sans-serif; font-size: 12px; font-weight: 200;" fill="rgb(50, 49, 63)" stroke="none" stroke-width="1px">60</text><text x="186.66666666666666" y="0" dx="0em" dy="0.95em" style="text-anchor: middle; visibility: inherit; font-family: &quot;Helvetica Neue&quot;, sans-serif; font-size: 12px; font-weight: 200;" fill="rgb(50, 49, 63)" stroke="none" stroke-width="1px">70</text><text x="210" y="0" dx="0em" dy="0.95em" style="text-anchor: middle; visibility: inherit; font-family: &quot;Helvetica Neue&quot;, sans-serif; font-size: 12px; font-weight: 200;" fill="rgb(50, 49, 63)" stroke="none" stroke-width="1px">80</text><text x="233.33333333333334" y="0" dx="0em" dy="0.95em" style="text-anchor: middle; visibility: inherit; font-family: &quot;Helvetica Neue&quot;, sans-serif; font-size: 12px; font-weight: 200;" fill="rgb(50, 49, 63)" stroke="none" stroke-width="1px">90</text><text x="256.66666666666663" y="0" dx="0em" dy="0.95em" style="text-anchor: middle; visibility: inherit; font-family: &quot;Helvetica Neue&quot;, sans-serif; font-size: 12px; font-weight: 200;" fill="rgb(50, 49, 63)" stroke="none" stroke-width="1px">100</text><text x="280" y="0" dx="0em" dy="0.95em" style="text-anchor: middle; visibility: hidden; font-family: &quot;Helvetica Neue&quot;, sans-serif; font-size: 12px; font-weight: 200;" fill="rgb(50, 49, 63)" stroke="none" stroke-width="1px">110</text></g><line x1="0" y1="0" x2="280" y2="0" fill="rgb(0, 0, 0)" stroke="rgb(204, 204, 204)" stroke-width="1px"></line></g></g></g></g></svg>