<svg viewBox="0 0 330.0000305175781 200.00001525878906" xmlns="http://www.w3.org/2000/svg"><g><g><g><g><g><line x1="50" y1="178" x2="45" y2="178" style="visibility: inherit;" fill="rgb(0, 0, 0)" stroke="rgb(204, 204, 204)" stroke-width="1px"></line><line x1="50" y1="163.16666666666666" x2="45" y2="163.16666666666666" style="visibility: inherit;" fill="rgb(0, 0, 0)" stroke="rgb(204, 204, 204)" stroke-width="1px"></line><line x1="50" y1="148.33333333333334" x2="45" y2="148.33333333333334" style="visibility: inherit;" fill="rgb(0, 0, 0)" stroke="rgb(204, 204, 204)" stroke-width="1px"></line><line x1="50" y1="133.5" x2="45" y2="133.5" style="visibility: inherit;" fill="rgb(0, 0, 0)" stroke="rgb(204, 204, 204)" stroke-width="1px"></line><line x1="50" y1="118.66666666666667" x2="45" y2="118.66666666666667" style="visibility: inherit;" fill="rgb(0, 0, 0)" stroke="rgb(204, 204, 204)" stroke-width="1px"></line><line x1="50" y1="103.83333333333334" x2="45" y2="103.83333333333334" style="visibility: inherit;" fill="rgb(0, 0, 0)" stroke="rgb(204, 204, 204)" stroke-width="1px"></line><line x1="50" y1="89.00000000000001" x2="45" y2="89.00000000000001" style="visibility: inherit;" fill="rgb(0, 0, 0)" stroke="rgb(204, 204, 204)" stroke-width="1px"></line><line x1="50" y1="74.16666666666669" x2="45" y2="74.16666666666669" style="visibility: inherit;" fill="rgb(0, 0, 0)" stroke="rgb(204, 204, 204)" stroke-width="1px"></line><line x1="50" y1="59.33333333333336" x2="45" y2="59.33333333333336" style="visibility: inherit;" fill="rgb(0, 0, 0)" stroke="rgb(204, 204, 204)" stroke-width="1px"></line><line x1="50" y1="44.50000000000003" x2="45" y2="44.50000000000003" style="visibility: inherit;" fill="rgb(0, 0, 0)" stroke="rgb(204, 204, 204)" stroke-width="1px"></line><line x1="50" y1="29.666666666666686" x2="45" y2="29.666666666666686" style="visibility: inherit;" fill="rgb(0, 0, 0)" stroke="rgb(204, 204, 204)" stroke-width="1px"></line><line x1="50" y1="14.833333333333343" x2="45" y2="14.833333333333343" style="visibility: inherit;" fill="rgb(0, 0, 0)" stroke="rgb(204, 204, 204)" stroke-width="1px"></line><line x1="50" y1="0" x2="45" y2="0" style="visibility: inherit;" fill="rgb(0, 0, 0)" stroke="rgb(204, 204, 204)" stroke-width="1px"></line></g><g transform="translate(40, 0)"><text x="0" y="178" dx="0em" dy="0.3em" style="text-anchor: end; visibility: hidden; font-family: &quot;Helvetica Neue&quot;, sans-serif; font-size: 12px; font-weight: 200;" fill="rgb(50, 49, 63)" stroke="none" stroke-width="1px">-0.2</text><text x="0" y="163.16666666666666" dx="0em" dy="0.3em" style="text-anchor: end; visibility: inherit; font-family: &quot;Helvetica Neue&quot;, sans-serif; font-size: 12px; font-weight: 200;" fill="rgb(50, 49, 63)" stroke="none" stroke-width="1px">0</text><text x="0" y="148.33333333333334" dx="0em" dy="0.3em" style="text-anchor: end; visibility: hidden; font-family: &quot;Helvetica Neue&quot;, sans-serif; font-size: 12px; font-weight: 200;" fill="rgb(50, 49, 63)" stroke="none" stroke-width="1px">0.2</text><text x="0" y="133.5" dx="0em" dy="0.3em" style="text-anchor: end; visibility: inherit; font-family: &quot;Helvetica Neue&quot;, sans-serif; font-size: 12px; font-weight: 200;" fill="rgb(50, 49, 63)" stroke="none" stroke-width="1px">0.4</text><text x="0" y="118.66666666666667" dx="0em" dy="0.3em" style="text-anchor: end; visibility: hidden; font-family: &quot;Helvetica Neue&quot;, sans-serif; font-size: 12px; font-weight: 200;" fill="rgb(50, 49, 63)" stroke="none" stroke-width="1px">0.6</text><text x="0" y="103.83333333333334" dx="0em" dy="0.3em" style="text-anchor: end; visibility: inherit; font-family: &quot;Helvetica Neue&quot;, sans-serif; font-size: 12px; font-weight: 200;" fill="rgb(50, 49, 63)" stroke="none" stroke-width="1px">0.8</text><text x="0" y="89.00000000000001" dx="0em" dy="0.3em" style="text-anchor: end; visibility: hidden; font-family: &quot;Helvetica Neue&quot;, sans-serif; font-size: 12px; font-weight: 200;" fill="rgb(50, 49, 63)" stroke="none" stroke-width="1px">1</text><text x="0" y="74.16666666666669" dx="0em" dy="0.3em" style="text-anchor: end; visibility: inherit; font-family: &quot;Helvetica Neue&quot;, sans-serif; font-size: 12px; font-weight: 200;" fill="rgb(50, 49, 63)" stroke="none" stroke-width="1px">1.2</text><text x="0" y="59.33333333333336" dx="0em" dy="0.3em" style="text-anchor: end; visibility: hidden; font-family: &quot;Helvetica Neue&quot;, sans-serif; font-size: 12px; font-weight: 200;" fill="rgb(50, 49, 63)" stroke="none" stroke-width="1px">1.4</text><text x="0" y="44.50000000000003" dx="0em" dy="0.3em" style="text-anchor: end; visibility: inherit; font-family: &quot;Helvetica Neue&quot;, sans-serif; font-size: 12px; font-weight: 200;" fill="rgb(50, 49, 63)" stroke="none" stroke-width="1px">1.6</text><text x="0" y="29.666666666666686" dx="0em" dy="0.3em" style="text-anchor: end; visibility: hidden; font-family: &quot;Helvetica Neue&quot;, sans-serif; font-size: 12px; font-weight: 200;" fill="rgb(50, 49, 63)" stroke="none" stroke-width="1px">1.8</text><text x="0" y="14.833333333333343" dx="0em" dy="0.3em" style="text-anchor: end; visibility: inherit; font-family: &quot;Helvetica Neue&quot;, sans-serif; font-size: 12px; font-weight: 200;" fill="rgb(50, 49, 63)" stroke="none" stroke-width="1px">2</text><text x="0" y="0" dx="0em" dy="0.3em" style="text-anchor: end; visibility: hidden; font-family: &quot;Helvetica Neue&quot;, sans-serif; font-size: 12px; font-weight: 200;" fill="rgb(50, 49, 63)" stroke="none" stroke-width="1px">2.2</text></g><line x1="50" y1="0" x2="50" y2="178" fill="rgb(0, 0, 0)" stroke="rgb(204, 204, 204)" stroke-width="1px"></line></g></g><g transform="translate(50, 0)" clip-path="url(#clip_0)"><clipPath id="clip_0"><rect width="280" height="177"></rect></clipPath><g><g><g><line x1="0" y1="0" x2="0" y2="178" fill="rgb(0, 0, 0)" stroke="rgb(60, 60, 60)" stroke-width="1px" opacity="0.25"></line><line x1="23.333333333333332" y1="0" x2="23.333333333333332" y2="178" fill="rgb(0, 0, 0)" stroke="rgb(60, 60, 60)" stroke-width="1px" opacity="0.25"></line><line x1="46.666666666666664" y1="0" x2="46.666666666666664" y2="178" fill="rgb(0, 0, 0)" stroke="rgb(60, 60, 60)" stroke-width="1px" opacity="0.25"></line><line x1="70" y1="0" x2="70" y2="178" fill="rgb(0, 0, 0)" stroke="rgb(60, 60, 60)" stroke-width="1px" opacity="0.25"></line><line x1="93.33333333333333" y1="0" x2="93.33333333333333" y2="178" fill="rgb(0, 0, 0)" stroke="rgb(60, 60, 60)" stroke-width="1px" opacity="0.25"></line><line x1="116.66666666666667" y1="0" x2="116.66666666666667" y2="178" fill="rgb(0, 0, 0)" stroke="rgb(60, 60, 60)" stroke-width="1px" opacity="0.25"></line><line x1="140" y1="0" x2="140" y2="178" fill="rgb(0, 0, 0)" stroke="rgb(60, 60, 60)" stroke-width="1px" opacity="0.25"></line><line x1="163.33333333333334" y1="0" x2="163.33333333333334" y2="178" fill="rgb(0, 0, 0)" stroke="rgb(60, 60, 60)" stroke-width="1px" opacity="0.25"></line><line x1="186.66666666666666" y1="0" x2="186.66666666666666" y2="178" fill="rgb(0, 0, 0)" stroke="rgb(60, 60, 60)" stroke-width="1px" opacity="0.25"></line><line x1="210" y1="0" x2="210" y2="178" fill="rgb(0, 0, 0)" stroke="rgb(60, 60, 60)" stroke-width="1px" opacity="0.25"></line><line x1="233.33333333333334" y1="0" x2="233.33333333333334" y2="178" fill="rgb(0, 0, 0)" stroke="rgb(60, 60, 60)" stroke-width="1px" opacity="0.25"></line><line x1="256.66666666666663" y1="0" x2="256.66666666666663" y2="178" fill="rgb(0, 0, 0)" stroke="rgb(60, 60, 60)" stroke-width="1px" opacity="0.25"></line><line x1="280" y1="0" x2="280" y2="178" fill="rgb(0, 0, 0)" stroke="rgb(60, 60, 60)" stroke-width="1px" opacity="0.25"></line></g><g><line x1="0" y1="178" x2="280" y2="178" fill="rgb(0, 0, 0)" stroke="rgb(60, 60, 60)" stroke-width="1px" opacity="0.25"></line><line x1="0" y1="163.16666666666666" x2="280" y2="163.16666666666666" fill="rgb(0, 0, 0)" stroke="rgb(60, 60, 60)" stroke-width="1px" opacity="0.25"></line><line x1="0" y1="148.33333333333334" x2="280" y2="148.33333333333334" fill="rgb(0, 0, 0)" stroke="rgb(60, 60, 60)" stroke-width="1px" opacity="0.25"></line><line x1="0" y1="133.5" x2="280" y2="133.5" fill="rgb(0, 0, 0)" stroke="rgb(60, 60, 60)" stroke-width="1px" opacity="0.25"></line><line x1="0" y1="118.66666666666667" x2="280" y2="118.66666666666667" fill="rgb(0, 0, 0)" stroke="rgb(60, 60, 60)" stroke-width="1px" opacity="0.25"></line><line x1="0" y1="103.83333333333334" x2="280" y2="103.83333333333334" fill="rgb(0, 0, 0)" stroke="rgb(60, 60, 60)" stroke-width="1px" opacity="0.25"></line><line x1="0" y1="89.00000000000001" x2="280" y2="89.00000000000001" fill="rgb(0, 0, 0)" stroke="rgb(60, 60, 60)" stroke-width="1px" opacity="0.25"></line><line x1="0" y1="74.16666666666669" x2="280" y2="74.16666666666669" fill="rgb(0, 0, 0)" stroke="rgb(60, 60, 60)" stroke-width="1px" opacity="0.25"></line><line x1="0" y1="59.33333333333336" x2="280" y2="59.33333333333336" fill="rgb(0, 0, 0)" stroke="rgb(60, 60, 60)" stroke-width="1px" opacity="0.25"></line><line x1="0" y1="44.50000000000003" x2="280" y2="44.50000000000003" fill="rgb(0, 0, 0)" stroke="rgb(60, 60, 60)" stroke-width="1px" opacity="0.25"></line><line x1="0" y1="29.666666666666686" x2="280" y2="29.666666666666686" fill="rgb(0, 0, 0)" stroke="rgb(60, 60, 60)" stroke-width="1px" opacity="0.25"></line><line x1="0" y1="14.833333333333343" x2="280" y2="14.833333333333343" fill="rgb(0, 0, 0)" stroke="rgb(60, 60, 60)" stroke-width="1px" opacity="0.25"></line><line x1="0" y1="0" x2="280" y2="0" fill="rgb(0, 0, 0)" stroke="rgb(60, 60, 60)" stroke-width="1px" opacity="0.25"></line></g></g></g><g><g><line x1="0" y1="163.16666666666666" x2="280" y2="163.16666666666666" fill="rgb(0, 0, 0)" stroke="rgb(153, 153, 153)" stroke-width="1.5px"></line></g></g><g><g><line x1="23.333333333333332" y1="0" x2="23.333333333333332" y2="178" fill="rgb(0, 0, 0)" stroke="rgb(153, 153, 153)" stroke-width="1.5px"></line></g></g><g><g><g><g><g><path stroke="rgb(204, 51, 17)" stroke-width="2px" d="M23.333333333333332,-11.196625590324402L25.666666666666664,25.387179990609496L28,49.63172439734143L30.333333333333336,64.218986056599L32.666666666666664,78.09759361232264L35,87.52714738471457L37.333333333333336,96.07671925486754L39.666666666666664,101.75526597766935L42,107.51601256700049L44.33333333333333,111.21872218074562L46.666666666666664,115.18744261128998L49,118.38167204907664L51.33333333333333,120.74021893836365L53.66666666666667,123.09082112953253L56,124.6713344179221L58.333333333333336,125.74357840377783L60.66666666666667,126.52537736689652L63,128.28358058513982L65.33333333333333,130.15376828104553L67.66666666666667,132.14217843570296L70,132.70236442290863L72.33333333333334,132.78800781523054L74.66666666666667,135.12210153245763L77,135.69497612588253L79.33333333333333,136.98997513152764L81.66666666666667,138.5409767165382L84,138.48140590260564L86.33333333333334,139.62806464438438L88.66666666666666,141.54692601654472L91,142.6512956626495L93.33333333333333,142.67268109251287L95.66666666666667,143.77181134286687L98,144.78340528369446L100.33333333333333,145.37682859587477L102.66666666666666,146.3693425994138L105,146.74863961478013L107.33333333333334,147.98304709447387L109.66666666666667,148.50006318971543L112,148.86217071922846L114.33333333333333,148.51277285953682L116.66666666666667,147.69735761005043L119,149.4175004630719L121.33333333333334,150.5754892890678L123.66666666666666,151.12978415985728L126,150.25708405147753L128.33333333333331,151.19714908687632L130.66666666666666,153.07755809863508L133,153.48370015079755L135.33333333333334,154.13604543878506L137.66666666666666,154.90943387761664L140,154.9051398905016L142.33333333333331,155.14302317382345L144.66666666666669,155.0622312952961L147,154.30674765983457L149.33333333333334,155.00132161912904L151.66666666666666,155.5470814876017L154,155.00857016725868L156.33333333333334,155.70486703882742L158.66666666666666,156.28544236940226L161,156.80873522940527L163.33333333333334,157.29421092043273L165.66666666666666,157.9847476420996L168,158.02512564340418L170.33333333333331,157.89998658197632L172.66666666666669,156.98787122933572L175,157.68918677127465L177.33333333333331,157.53520453943474L179.66666666666669,158.12439077555337L182,158.4812134943954L184.33333333333334,158.59443410987964L186.66666666666666,158.93859352745798L189,159.4784674122623L191.33333333333334,159.4284981071765L193.66666666666666,156.91153579531996L196,158.22375441960824L198.33333333333334,158.8075680864195L200.66666666666666,159.55899721229116L203,159.91989267847364L205.33333333333331,159.9681539834922L207.66666666666669,159.80816127094937L210,160.34096611691007L212.33333333333331,160.20169430838519L214.66666666666669,160.55080561756984L217,160.01534696744818L219.33333333333334,160.5306581440932L221.66666666666666,160.3137268863638L224,160.66827053321023L226.33333333333334,160.7688066597588L228.66666666666666,160.7354736789052L231,160.7741425845415L233.33333333333334,160.94189467733446L235.66666666666666,161.18879670933592L238,160.69007235513553L240.33333333333331,160.4214686192359L242.66666666666669,160.6033578839025L245,160.80288060003744L247.33333333333331,161.0654346741392L249.66666666666669,161.15506898855588L252,161.46422196735693L254.33333333333334,161.62047715980165" style="fill: none;" fill="none"></path></g><g><path stroke="rgb(0, 119, 187)" stroke-width="2px" d="M35,-0.480609859573633L37.333333333333336,19.367163777227404L39.666666666666664,31.67280762314968L42,45.60355559272034L44.33333333333333,57.102234601748336L46.666666666666664,70.42557408268118L49,78.51098813907247L51.33333333333333,87.90250676931488L53.66666666666667,93.10426853054778L56,101.96909266890408L58.333333333333336,100.8213289584711L60.66666666666667,100.82708789668614L63,105.28504543664043L65.33333333333333,107.22462198029677L67.66666666666667,108.63543133428409L70,112.13186964282873L72.33333333333334,112.5233590129667L74.66666666666667,112.08783410502822L77,119.43469866537478L79.33333333333333,120.73062820369384L81.66666666666667,122.75941612174387L84,125.25610551177328L86.33333333333334,125.01948932743547L88.66666666666666,127.76743457201431L91,129.42832964511308L93.33333333333333,129.0300946731722L95.66666666666667,129.03103209936265L98,129.93334744750956L100.33333333333333,131.9849162513482L102.66666666666666,132.52322391488485L105,134.98238349600936L107.33333333333334,136.20186097568555L109.66666666666667,136.79145714748054L112,135.78148524998014L114.33333333333333,136.4380406271555L116.66666666666667,136.10370873570275L119,138.2926619072948L121.33333333333334,139.13438108310726L123.66666666666666,136.309227571866L126,138.94507441109863L128.33333333333331,138.95867507171585L130.66666666666666,140.34350261998563L133,141.37927899906808L135.33333333333334,141.74105918099838L137.66666666666666,143.2039826066832L140,145.76542165687175L142.33333333333331,143.88373912061994L144.66666666666669,144.75179202369452L147,145.26361221380049L149.33333333333334,145.99491433982308L151.66666666666666,146.10531661520955L154,146.53064477708284L156.33333333333334,147.5222067987901L158.66666666666666,147.74580398038918L161,146.99165979426635L163.33333333333334,148.07640298943642L165.66666666666666,146.2387764200027L168,146.66681154635282L170.33333333333331,146.19995661119657L172.66666666666669,148.56326089425906L175,150.17185822898563L177.33333333333331,147.77513756418873L179.66666666666669,148.70009052295276L182,150.4881666116245L184.33333333333334,151.44030123625163L186.66666666666666,152.4394538914599L189,152.56584520730007L191.33333333333334,152.2124927436866L193.66666666666666,149.4701639689341L196,151.48544247810054L198.33333333333334,149.64350063223048L200.66666666666666,151.32208099733833L203,152.3819122022651L205.33333333333331,152.35891729531264L207.66666666666669,151.1089825686072L210,152.46986687866377L212.33333333333331,154.1904167956364L214.66666666666669,155.24113676555464L217,154.66146278942134L219.33333333333334,153.3393533899258L221.66666666666666,153.09816984676542L224,152.6700712850286L226.33333333333334,152.97144031289776L228.66666666666666,153.58524988152718L231,153.8824195154993L233.33333333333334,154.33315175554085L235.66666666666666,155.3318047152813L238,155.0521898330364L240.33333333333331,154.84128481364928L242.66666666666669,154.30731688270976L245,153.19357696868983L247.33333333333331,155.17302417575124L249.66666666666669,155.88757078241588L252,155.89095416749288L254.33333333333334,156.4263962254014" style="fill: none;" fill="none"></path></g></g></g></g><g opacity="0.2"><g><g><g><path stroke="rgb(204, 51, 17)" stroke-width="2px" d="M23.333333333333332,-11.196625590324402L25.666666666666664,47.33746333916986L28,72.90648702780408L30.333333333333336,81.37360576788586L32.666666666666664,96.21750363707544L35,100.57161489129068L37.333333333333336,108.30274382233621L39.666666666666664,110.03464161356291L42,116.0119948188464L44.33333333333333,116.71681442856789L46.666666666666664,121.10452725489935L49,123.15563335021338L51.33333333333333,124.27033820748329L53.66666666666667,126.61211934189004L56,127.04024651646614L58.333333333333336,127.35118815302849L60.66666666666667,127.69774498045444L63,130.92043900489807L65.33333333333333,132.95876492063206L67.66666666666667,135.12461191912493L70,133.54261268178624L72.33333333333334,132.91647008558115L74.66666666666667,138.62319602568945L77,136.55428122977418L79.33333333333333,138.9324644356966L81.66666666666667,140.8674724797408L84,138.3920498341322L86.33333333333334,141.3480509966612L88.66666666666666,144.42521630724272L91,144.3078495214383L93.33333333333333,142.70475923021635L95.66666666666667,145.4205064997077L98,146.30079607417187L100.33333333333333,146.26696352163952L102.66666666666666,147.85811356206736L105,147.31758512804907L107.33333333333334,149.83465829491615L109.66666666666667,149.27558732777834L112,149.40533201148114L114.33333333333333,147.988676071167L116.66666666666667,146.47423473745584L119,151.99771474053463L121.33333333333334,152.31247252722582L123.66666666666666,151.96122646580142L126,148.94803388913473L128.33333333333331,152.6072466398279L130.66666666666666,155.8981716160973L133,154.09291322901845L135.33333333333334,155.1145633707444L137.66666666666666,156.06951653584838L140,154.89869890982908L142.33333333333331,155.49984809880456L144.66666666666669,154.94104347750545L147,153.17352220664424L149.33333333333334,156.04318255806965L151.66666666666666,156.36572129031023L154,154.20080318674445L156.33333333333334,156.7493123461803L158.66666666666666,157.15630536526442L161,157.59367451940975L163.33333333333334,158.02242445697388L165.66666666666666,159.02055272459984L168,158.08569264536104L170.33333333333331,157.71227798983455L172.66666666666669,155.61969820037484L175,158.741160084183L177.33333333333331,157.3042311916749L179.66666666666669,159.0081701297313L182,159.01644757265845L184.33333333333334,158.764265033106L186.66666666666666,159.4548326538255L189,160.28827823946872L191.33333333333334,159.35354414954782L193.66666666666666,153.13609232753515L196,160.1920823560407L198.33333333333334,159.6832885866364L200.66666666666666,160.68614090109864L203,160.46123587774733L205.33333333333331,160.04054594102004L207.66666666666669,159.56817220213512L210,161.14017338585109L212.33333333333331,159.99278659559786L214.66666666666669,161.07447258134684L217,159.21215899226567L219.33333333333334,161.3036249090607L221.66666666666666,159.98832999976972L224,161.20008600347987L226.33333333333334,160.91961084958166L228.66666666666666,160.6854742076248L231,160.83214594299594L233.33333333333334,161.1935228165239L235.66666666666666,161.55914975733808L238,159.94198582383493L240.33333333333331,160.01856301538646L242.66666666666669,160.87619178090245L245,161.10216467423984L247.33333333333331,161.4592657852918L249.66666666666669,161.28952046018094L252,161.9279514355585L254.33333333333334,161.85485994846871" style="fill: none;" fill="none"></path></g><g><path stroke="rgb(0, 119, 187)" stroke-width="2px" d="M30.333333333333336,-15.329481919606508L32.666666666666664,24.23851990699768L35,34.29080530007684L37.333333333333336,47.749797642231016L39.666666666666664,49.6145544846853L42,66.14870293935142L44.33333333333333,74.17643282810849L46.666666666666664,90.28974159558615L49,90.59510875741643L51.33333333333333,101.95911977688473L53.66666666666667,100.896720379591L56,115.25590860843658L58.333333333333336,99.10049288471541L60.66666666666667,100.83572386701903L63,111.97084987163545L65.33333333333333,110.1336913208167L67.66666666666667,110.75151641170186L70,117.37633535265923L72.33333333333334,113.11058018604916L74.66666666666667,111.43455534180006L77,130.4549084752798L79.33333333333333,122.67451330025992L81.66666666666667,125.80258934696516L84,129.00113320847353L86.33333333333334,124.66456541419029L88.66666666666666,131.88934990763664L91,131.9196713368098L93.33333333333333,128.43274234731993L95.66666666666667,129.03243823846182L98,131.2868203620116L100.33333333333333,135.06226931015652L102.66666666666666,133.3306853870551L105,138.6711228042841L107.33333333333334,138.03107717633247L109.66666666666667,137.67585139969987L112,134.26652740935486L114.33333333333333,137.42287369072437L116.66666666666667,135.6022108991941L119,141.5760916620493L121.33333333333334,140.39695984621844L123.66666666666666,132.07149730622768L126,142.8988446692626L128.33333333333331,138.97907606263956L130.66666666666666,142.42074394226074L133,142.93294356763363L135.33333333333334,142.2837294538816L137.66666666666666,145.39836774518093L140,149.60758023212355L142.33333333333331,141.0612153162559L144.66666666666669,146.05387137830257L147,146.0313424989581L149.33333333333334,147.0918675288558L151.66666666666666,146.27092002828917L154,147.16863701989254L156.33333333333334,149.00954983135065L158.66666666666666,148.08119975278777L161,145.8604435150822L163.33333333333334,149.70351778219145L165.66666666666666,143.48233656585217L168,147.308864235878L170.33333333333331,145.49967420846224L172.66666666666669,152.10821731885275L175,152.58475423107546L177.33333333333331,144.18005656699341L179.66666666666669,150.08751996109885L182,153.1702807446321L184.33333333333334,152.86850317319235L186.66666666666666,153.9381828742723L189,152.7554321810603L191.33333333333334,151.6824640482664L193.66666666666666,145.3566708068053L196,154.50836024185023L198.33333333333334,146.88058786342543L200.66666666666666,153.83995154500008L203,153.97165900965533L205.33333333333331,152.32442493488392L207.66666666666669,149.234080478549L210,154.51119334374866L212.33333333333331,156.7712416710953L214.66666666666669,156.81721672043204L217,153.7919518252214L219.33333333333334,151.3561892906825L221.66666666666666,152.73639453202486L224,152.02792344242334L226.33333333333334,153.42349385470152L228.66666666666666,154.50596423447132L231,154.32817396645746L233.33333333333334,155.0092501156032L235.66666666666666,156.82978415489197L238,154.63276750966907L240.33333333333331,154.52492728456855L242.66666666666669,153.50636498630047L245,151.52296709765992L247.33333333333331,158.14219498634338L249.66666666666669,156.95939069241285L252,155.89602924510837L254.33333333333334,157.22955931226414" style="fill: none;" fill="none"></path></g></g></g></g></g></g><g transform="translate(50, 178)" clip-path="url(#clip_1)"><clipPath id="clip_1"><rect width="280" height="21"></rect></clipPath><g><g><line x1="0" y1="0" x2="0" y2="5" style="visibility: inherit;" fill="rgb(0, 0, 0)" stroke="rgb(204, 204, 204)" stroke-width="1px"></line><line x1="23.333333333333332" y1="0" x2="23.333333333333332" y2="5" style="visibility: inherit;" fill="rgb(0, 0, 0)" stroke="rgb(204, 204, 204)" stroke-width="1px"></line><line x1="46.666666666666664" y1="0" x2="46.666666666666664" y2="5" style="visibility: inherit;" fill="rgb(0, 0, 0)" stroke="rgb(204, 204, 204)" stroke-width="1px"></line><line x1="70" y1="0" x2="70" y2="5" style="visibility: inherit;" fill="rgb(0, 0, 0)" stroke="rgb(204, 204, 204)" stroke-width="1px"></line><line x1="93.33333333333333" y1="0" x2="93.33333333333333" y2="5" style="visibility: inherit;" fill="rgb(0, 0, 0)" stroke="rgb(204, 204, 204)" stroke-width="1px"></line><line x1="116.66666666666667" y1="0" x2="116.66666666666667" y2="5" style="visibility: inherit;" fill="rgb(0, 0, 0)" stroke="rgb(204, 204, 204)" stroke-width="1px"></line><line x1="140" y1="0" x2="140" y2="5" style="visibility: inherit;" fill="rgb(0, 0, 0)" stroke="rgb(204, 204, 204)" stroke-width="1px"></line><line x1="163.33333333333334" y1="0" x2="163.33333333333334" y2="5" style="visibility: inherit;" fill="rgb(0, 0, 0)" stroke="rgb(204, 204, 204)" stroke-width="1px"></line><line x1="186.66666666666666" y1="0" x2="186.66666666666666" y2="5" style="visibility: inherit;" fill="rgb(0, 0, 0)" stroke="rgb(204, 204, 204)" stroke-width="1px"></line><line x1="210" y1="0" x2="210" y2="5" style="visibility: inherit;" fill="rgb(0, 0, 0)" stroke="rgb(204, 204, 204)" stroke-width="1px"></line><line x1="233.33333333333334" y1="0" x2="233.33333333333334" y2="5" style="visibility: inherit;" fill="rgb(0, 0, 0)" stroke="rgb(204, 204, 204)" stroke-width="1px"></line><line x1="256.66666666666663" y1="0" x2="256.66666666666663" y2="5" style="visibility: inherit;" fill="rgb(0, 0, 0)" stroke="rgb(204, 204, 204)" stroke-width="1px"></line><line x1="280" y1="0" x2="280" y2="5" style="visibility: inherit;" fill="rgb(0, 0, 0)" stroke="rgb(204, 204, 204)" stroke-width="1px"></line></g><g transform="translate(0, 8)"><text x="0" y="0" dx="0em" dy="0.95em" style="text-anchor: middle; visibility: hidden; font-family: &quot;Helvetica Neue&quot;, sans-serif; font-size: 12px; font-weight: 200;" fill="rgb(50, 49, 63)" stroke="none" stroke-width="1px">-10</text><text x="23.333333333333332" y="0" dx="0em" dy="0.95em" style="text-anchor: middle; visibility: inherit; font-family: &quot;Helvetica Neue&quot;, sans-serif; font-size: 12px; font-weight: 200;" fill="rgb(50, 49, 63)" stroke="none" stroke-width="1px">0</text><text x="46.666666666666664" y="0" dx="0em" dy="0.95em" style="text-anchor: middle; visibility: inherit; font-family: &quot;Helvetica Neue&quot;, sans-serif; font-size: 12px; font-weight: 200;" fill="rgb(50, 49, 63)" stroke="none" stroke-width="1px">10</text><text x="70" y="0" dx="0em" dy="0.95em" style="text-anchor: middle; visibility: inherit; font-family: &quot;Helvetica Neue&quot;, sans-serif; font-size: 12px; font-weight: 200;" fill="rgb(50, 49, 63)" stroke="none" stroke-width="1px">20</text><text x="93.33333333333333" y="0" dx="0em" dy="0.95em" style="text-anchor: middle; visibility: inherit; font-family: &quot;Helvetica Neue&quot;, sans-serif; font-size: 12px; font-weight: 200;" fill="rgb(50, 49, 63)" stroke="none" stroke-width="1px">30</text><text x="116.66666666666667" y="0" dx="0em" dy="0.95em" style="text-anchor: middle; visibility: inherit; font-family: &quot;Helvetica Neue&quot;, sans-serif; font-size: 12px; font-weight: 200;" fill="rgb(50, 49, 63)" stroke="none" stroke-width="1px">40</text><text x="140" y="0" dx="0em" dy="0.95em" style="text-anchor: middle; visibility: inherit; font-family: &quot;Helvetica Neue&quot;, sans-serif; font-size: 12px; font-weight: 200;" fill="rgb(50, 49, 63)" stroke="none" stroke-width="1px">50</text><text x="163.33333333333334" y="0" dx="0em" dy="0.95em" style="text-anchor: middle; visibility: inherit; font-family: &quot;Helvetica Neue&quot;, sans-serif; font-size: 12px; font-weight: 200;" fill="rgb(50, 49, 63)" stroke="none" stroke-width="1px">60</text><text x="186.66666666666666" y="0" dx="0em" dy="0.95em" style="text-anchor: middle; visibility: inherit; font-family: &quot;Helvetica Neue&quot;, sans-serif; font-size: 12px; font-weight: 200;" fill="rgb(50, 49, 63)" stroke="none" stroke-width="1px">70</text><text x="210" y="0" dx="0em" dy="0.95em" style="text-anchor: middle; visibility: inherit; font-family: &quot;Helvetica Neue&quot;, sans-serif; font-size: 12px; font-weight: 200;" fill="rgb(50, 49, 63)" stroke="none" stroke-width="1px">80</text><text x="233.33333333333334" y="0" dx="0em" dy="0.95em" style="text-anchor: middle; visibility: inherit; font-family: &quot;Helvetica Neue&quot;, sans-serif; font-size: 12px; font-weight: 200;" fill="rgb(50, 49, 63)" stroke="none" stroke-width="1px">90</text><text x="256.66666666666663" y="0" dx="0em" dy="0.95em" style="text-anchor: middle; visibility: inherit; font-family: &quot;Helvetica Neue&quot;, sans-serif; font-size: 12px; font-weight: 200;" fill="rgb(50, 49, 63)" stroke="none" stroke-width="1px">100</text><text x="280" y="0" dx="0em" dy="0.95em" style="text-anchor: middle; visibility: hidden; font-family: &quot;Helvetica Neue&quot;, sans-serif; font-size: 12px; font-weight: 200;" fill="rgb(50, 49, 63)" stroke="none" stroke-width="1px">110</text></g><line x1="0" y1="0" x2="280" y2="0" fill="rgb(0, 0, 0)" stroke="rgb(204, 204, 204)" stroke-width="1px"></line></g></g></g></g></svg>