<svg viewBox="0 0 330.0000305175781 200.00001525878906" xmlns="http://www.w3.org/2000/svg"><g><g><g><g><g><line x1="50" y1="178" x2="45" y2="178" style="visibility: inherit;" fill="rgb(0, 0, 0)" stroke="rgb(204, 204, 204)" stroke-width="1px"></line><line x1="50" y1="163.16666666666666" x2="45" y2="163.16666666666666" style="visibility: inherit;" fill="rgb(0, 0, 0)" stroke="rgb(204, 204, 204)" stroke-width="1px"></line><line x1="50" y1="148.33333333333334" x2="45" y2="148.33333333333334" style="visibility: inherit;" fill="rgb(0, 0, 0)" stroke="rgb(204, 204, 204)" stroke-width="1px"></line><line x1="50" y1="133.5" x2="45" y2="133.5" style="visibility: inherit;" fill="rgb(0, 0, 0)" stroke="rgb(204, 204, 204)" stroke-width="1px"></line><line x1="50" y1="118.66666666666667" x2="45" y2="118.66666666666667" style="visibility: inherit;" fill="rgb(0, 0, 0)" stroke="rgb(204, 204, 204)" stroke-width="1px"></line><line x1="50" y1="103.83333333333334" x2="45" y2="103.83333333333334" style="visibility: inherit;" fill="rgb(0, 0, 0)" stroke="rgb(204, 204, 204)" stroke-width="1px"></line><line x1="50" y1="89.00000000000001" x2="45" y2="89.00000000000001" style="visibility: inherit;" fill="rgb(0, 0, 0)" stroke="rgb(204, 204, 204)" stroke-width="1px"></line><line x1="50" y1="74.16666666666669" x2="45" y2="74.16666666666669" style="visibility: inherit;" fill="rgb(0, 0, 0)" stroke="rgb(204, 204, 204)" stroke-width="1px"></line><line x1="50" y1="59.33333333333336" x2="45" y2="59.33333333333336" style="visibility: inherit;" fill="rgb(0, 0, 0)" stroke="rgb(204, 204, 204)" stroke-width="1px"></line><line x1="50" y1="44.50000000000003" x2="45" y2="44.50000000000003" style="visibility: inherit;" fill="rgb(0, 0, 0)" stroke="rgb(204, 204, 204)" stroke-width="1px"></line><line x1="50" y1="29.666666666666686" x2="45" y2="29.666666666666686" style="visibility: inherit;" fill="rgb(0, 0, 0)" stroke="rgb(204, 204, 204)" stroke-width="1px"></line><line x1="50" y1="14.833333333333343" x2="45" y2="14.833333333333343" style="visibility: inherit;" fill="rgb(0, 0, 0)" stroke="rgb(204, 204, 204)" stroke-width="1px"></line><line x1="50" y1="0" x2="45" y2="0" style="visibility: inherit;" fill="rgb(0, 0, 0)" stroke="rgb(204, 204, 204)" stroke-width="1px"></line></g><g transform="translate(40, 0)"><text x="0" y="178" dx="0em" dy="0.3em" style="text-anchor: end; visibility: hidden; font-family: &quot;Helvetica Neue&quot;, sans-serif; font-size: 12px; font-weight: 200;" fill="rgb(50, 49, 63)" stroke="none" stroke-width="1px">-0.2</text><text x="0" y="163.16666666666666" dx="0em" dy="0.3em" style="text-anchor: end; visibility: inherit; font-family: &quot;Helvetica Neue&quot;, sans-serif; font-size: 12px; font-weight: 200;" fill="rgb(50, 49, 63)" stroke="none" stroke-width="1px">0</text><text x="0" y="148.33333333333334" dx="0em" dy="0.3em" style="text-anchor: end; visibility: hidden; font-family: &quot;Helvetica Neue&quot;, sans-serif; font-size: 12px; font-weight: 200;" fill="rgb(50, 49, 63)" stroke="none" stroke-width="1px">0.2</text><text x="0" y="133.5" dx="0em" dy="0.3em" style="text-anchor: end; visibility: inherit; font-family: &quot;Helvetica Neue&quot;, sans-serif; font-size: 12px; font-weight: 200;" fill="rgb(50, 49, 63)" stroke="none" stroke-width="1px">0.4</text><text x="0" y="118.66666666666667" dx="0em" dy="0.3em" style="text-anchor: end; visibility: hidden; font-family: &quot;Helvetica Neue&quot;, sans-serif; font-size: 12px; font-weight: 200;" fill="rgb(50, 49, 63)" stroke="none" stroke-width="1px">0.6</text><text x="0" y="103.83333333333334" dx="0em" dy="0.3em" style="text-anchor: end; visibility: inherit; font-family: &quot;Helvetica Neue&quot;, sans-serif; font-size: 12px; font-weight: 200;" fill="rgb(50, 49, 63)" stroke="none" stroke-width="1px">0.8</text><text x="0" y="89.00000000000001" dx="0em" dy="0.3em" style="text-anchor: end; visibility: hidden; font-family: &quot;Helvetica Neue&quot;, sans-serif; font-size: 12px; font-weight: 200;" fill="rgb(50, 49, 63)" stroke="none" stroke-width="1px">1</text><text x="0" y="74.16666666666669" dx="0em" dy="0.3em" style="text-anchor: end; visibility: inherit; font-family: &quot;Helvetica Neue&quot;, sans-serif; font-size: 12px; font-weight: 200;" fill="rgb(50, 49, 63)" stroke="none" stroke-width="1px">1.2</text><text x="0" y="59.33333333333336" dx="0em" dy="0.3em" style="text-anchor: end; visibility: hidden; font-family: &quot;Helvetica Neue&quot;, sans-serif; font-size: 12px; font-weight: 200;" fill="rgb(50, 49, 63)" stroke="none" stroke-width="1px">1.4</text><text x="0" y="44.50000000000003" dx="0em" dy="0.3em" style="text-anchor: end; visibility: inherit; font-family: &quot;Helvetica Neue&quot;, sans-serif; font-size: 12px; font-weight: 200;" fill="rgb(50, 49, 63)" stroke="none" stroke-width="1px">1.6</text><text x="0" y="29.666666666666686" dx="0em" dy="0.3em" style="text-anchor: end; visibility: hidden; font-family: &quot;Helvetica Neue&quot;, sans-serif; font-size: 12px; font-weight: 200;" fill="rgb(50, 49, 63)" stroke="none" stroke-width="1px">1.8</text><text x="0" y="14.833333333333343" dx="0em" dy="0.3em" style="text-anchor: end; visibility: inherit; font-family: &quot;Helvetica Neue&quot;, sans-serif; font-size: 12px; font-weight: 200;" fill="rgb(50, 49, 63)" stroke="none" stroke-width="1px">2</text><text x="0" y="0" dx="0em" dy="0.3em" style="text-anchor: end; visibility: hidden; font-family: &quot;Helvetica Neue&quot;, sans-serif; font-size: 12px; font-weight: 200;" fill="rgb(50, 49, 63)" stroke="none" stroke-width="1px">2.2</text></g><line x1="50" y1="0" x2="50" y2="178" fill="rgb(0, 0, 0)" stroke="rgb(204, 204, 204)" stroke-width="1px"></line></g></g><g transform="translate(50, 0)" clip-path="url(#clip_0)"><clipPath id="clip_0"><rect width="280" height="177"></rect></clipPath><g><g><g><line x1="0" y1="0" x2="0" y2="178" fill="rgb(0, 0, 0)" stroke="rgb(60, 60, 60)" stroke-width="1px" opacity="0.25"></line><line x1="23.333333333333332" y1="0" x2="23.333333333333332" y2="178" fill="rgb(0, 0, 0)" stroke="rgb(60, 60, 60)" stroke-width="1px" opacity="0.25"></line><line x1="46.666666666666664" y1="0" x2="46.666666666666664" y2="178" fill="rgb(0, 0, 0)" stroke="rgb(60, 60, 60)" stroke-width="1px" opacity="0.25"></line><line x1="70" y1="0" x2="70" y2="178" fill="rgb(0, 0, 0)" stroke="rgb(60, 60, 60)" stroke-width="1px" opacity="0.25"></line><line x1="93.33333333333333" y1="0" x2="93.33333333333333" y2="178" fill="rgb(0, 0, 0)" stroke="rgb(60, 60, 60)" stroke-width="1px" opacity="0.25"></line><line x1="116.66666666666667" y1="0" x2="116.66666666666667" y2="178" fill="rgb(0, 0, 0)" stroke="rgb(60, 60, 60)" stroke-width="1px" opacity="0.25"></line><line x1="140" y1="0" x2="140" y2="178" fill="rgb(0, 0, 0)" stroke="rgb(60, 60, 60)" stroke-width="1px" opacity="0.25"></line><line x1="163.33333333333334" y1="0" x2="163.33333333333334" y2="178" fill="rgb(0, 0, 0)" stroke="rgb(60, 60, 60)" stroke-width="1px" opacity="0.25"></line><line x1="186.66666666666666" y1="0" x2="186.66666666666666" y2="178" fill="rgb(0, 0, 0)" stroke="rgb(60, 60, 60)" stroke-width="1px" opacity="0.25"></line><line x1="210" y1="0" x2="210" y2="178" fill="rgb(0, 0, 0)" stroke="rgb(60, 60, 60)" stroke-width="1px" opacity="0.25"></line><line x1="233.33333333333334" y1="0" x2="233.33333333333334" y2="178" fill="rgb(0, 0, 0)" stroke="rgb(60, 60, 60)" stroke-width="1px" opacity="0.25"></line><line x1="256.66666666666663" y1="0" x2="256.66666666666663" y2="178" fill="rgb(0, 0, 0)" stroke="rgb(60, 60, 60)" stroke-width="1px" opacity="0.25"></line><line x1="280" y1="0" x2="280" y2="178" fill="rgb(0, 0, 0)" stroke="rgb(60, 60, 60)" stroke-width="1px" opacity="0.25"></line></g><g><line x1="0" y1="178" x2="280" y2="178" fill="rgb(0, 0, 0)" stroke="rgb(60, 60, 60)" stroke-width="1px" opacity="0.25"></line><line x1="0" y1="163.16666666666666" x2="280" y2="163.16666666666666" fill="rgb(0, 0, 0)" stroke="rgb(60, 60, 60)" stroke-width="1px" opacity="0.25"></line><line x1="0" y1="148.33333333333334" x2="280" y2="148.33333333333334" fill="rgb(0, 0, 0)" stroke="rgb(60, 60, 60)" stroke-width="1px" opacity="0.25"></line><line x1="0" y1="133.5" x2="280" y2="133.5" fill="rgb(0, 0, 0)" stroke="rgb(60, 60, 60)" stroke-width="1px" opacity="0.25"></line><line x1="0" y1="118.66666666666667" x2="280" y2="118.66666666666667" fill="rgb(0, 0, 0)" stroke="rgb(60, 60, 60)" stroke-width="1px" opacity="0.25"></line><line x1="0" y1="103.83333333333334" x2="280" y2="103.83333333333334" fill="rgb(0, 0, 0)" stroke="rgb(60, 60, 60)" stroke-width="1px" opacity="0.25"></line><line x1="0" y1="89.00000000000001" x2="280" y2="89.00000000000001" fill="rgb(0, 0, 0)" stroke="rgb(60, 60, 60)" stroke-width="1px" opacity="0.25"></line><line x1="0" y1="74.16666666666669" x2="280" y2="74.16666666666669" fill="rgb(0, 0, 0)" stroke="rgb(60, 60, 60)" stroke-width="1px" opacity="0.25"></line><line x1="0" y1="59.33333333333336" x2="280" y2="59.33333333333336" fill="rgb(0, 0, 0)" stroke="rgb(60, 60, 60)" stroke-width="1px" opacity="0.25"></line><line x1="0" y1="44.50000000000003" x2="280" y2="44.50000000000003" fill="rgb(0, 0, 0)" stroke="rgb(60, 60, 60)" stroke-width="1px" opacity="0.25"></line><line x1="0" y1="29.666666666666686" x2="280" y2="29.666666666666686" fill="rgb(0, 0, 0)" stroke="rgb(60, 60, 60)" stroke-width="1px" opacity="0.25"></line><line x1="0" y1="14.833333333333343" x2="280" y2="14.833333333333343" fill="rgb(0, 0, 0)" stroke="rgb(60, 60, 60)" stroke-width="1px" opacity="0.25"></line><line x1="0" y1="0" x2="280" y2="0" fill="rgb(0, 0, 0)" stroke="rgb(60, 60, 60)" stroke-width="1px" opacity="0.25"></line></g></g></g><g><g><line x1="0" y1="163.16666666666666" x2="280" y2="163.16666666666666" fill="rgb(0, 0, 0)" stroke="rgb(153, 153, 153)" stroke-width="1.5px"></line></g></g><g><g><line x1="23.333333333333332" y1="0" x2="23.333333333333332" y2="178" fill="rgb(0, 0, 0)" stroke="rgb(153, 153, 153)" stroke-width="1.5px"></line></g></g><g><g><g><g><g><path stroke="rgb(255, 112, 67)" stroke-width="2px" d="M23.333333333333332,-15.8948335647583L25.666666666666664,19.060692702730506L28,43.533421897969305L30.333333333333336,59.58674954754467L32.666666666666664,73.82107368106787L35,82.00613418633618L37.333333333333336,88.36664535644032L39.666666666666664,97.58784820722497L42,104.98015681298662L44.33333333333333,109.646128472395L46.666666666666664,112.26434428008429L49,113.37497405428269L51.33333333333333,116.56000002870749L53.66666666666667,119.20269199582035L56,121.50505296608301L58.333333333333336,123.8897675930269L60.66666666666667,124.10243244106577L63,124.58186634089894L65.33333333333333,126.89123977181669L67.66666666666667,128.22336118148593L70,130.43815793446328L72.33333333333334,131.92528757532045L74.66666666666667,132.89682682147458L77,132.29986979899104L79.33333333333333,134.6094160593381L81.66666666666667,136.9657983394752L84,137.72223872550543L86.33333333333334,138.02784079369164L88.66666666666666,139.74799365634033L91,140.56192181720104L93.33333333333333,141.76334375113396L95.66666666666667,141.97397186030472L98,142.82310481750358L100.33333333333333,143.41611150741912L102.66666666666666,144.5239519508808L105,146.0443283594783L107.33333333333334,146.3347385539982L109.66666666666667,148.03516533992516L112,148.95004836239693L114.33333333333333,149.99278733880598L116.66666666666667,150.45786197968638L119,150.54450781342572L121.33333333333334,149.97888285718236L123.66666666666666,150.6631931949959L126,151.12180033664538L128.33333333333331,151.56836756276275L130.66666666666666,151.31584160549798L133,151.0042192480297L135.33333333333334,151.8422445282253L137.66666666666666,153.09251740674665L140,152.582585266829L142.33333333333331,153.18611899709904L144.66666666666669,152.7918599339093L147,154.13491258870297L149.33333333333334,154.75597819447995L151.66666666666666,155.09180259512166L154,155.74906491919154L156.33333333333334,156.31004429171765L158.66666666666666,157.13499723510125L161,157.71323335202246L163.33333333333334,157.27321059822066L165.66666666666666,157.81706553962246L168,157.81954385051975L170.33333333333331,158.00387007172813L172.66666666666669,157.99419175987984L175,157.6265078653229L177.33333333333331,157.5257381257017L179.66666666666669,158.14408782834408L182,158.65109549292683L184.33333333333334,157.8513494173413L186.66666666666666,158.13936444708062L189,158.56304240006222L191.33333333333334,158.8284419965427L193.66666666666666,157.12487752537018L196,157.50753388335357L198.33333333333334,157.47397071538398L200.66666666666666,157.11726207733966L203,157.66279488424948L205.33333333333331,158.72696232047969L207.66666666666669,158.14566150405383L210,158.7008897355102L212.33333333333331,159.13377805372494L214.66666666666669,159.08519009642055L217,159.69782502860178L219.33333333333334,159.40202128088683L221.66666666666666,159.48740646062024L224,158.98297582805787L226.33333333333334,159.81593437748037L228.66666666666666,160.4500594319565L231,160.79083208084083L233.33333333333334,159.17552077178146L235.66666666666666,159.62732185937358L238,158.76450892895892L240.33333333333331,159.00646856865546L242.66666666666669,159.17663333902516L245,159.986019543845L247.33333333333331,160.23853886820189L249.66666666666669,160.42948832430827L252,160.96734381197425L254.33333333333334,160.1344042270096" style="fill: none;" fill="none"></path></g><g><path stroke="rgb(187, 187, 187)" stroke-width="2px" d="M35,-11.20497100384398L37.333333333333336,9.963867153531083L39.666666666666664,31.908202868146077L42,48.72977110220401L44.33333333333333,58.04042306035937L46.666666666666664,66.97483567418705L49,75.01258184621794L51.33333333333333,81.55879431465759L53.66666666666667,83.08199296023645L56,92.95832556341895L58.333333333333336,95.42832201938819L60.66666666666667,100.15213930746205L63,103.59457442499784L65.33333333333333,108.500065183255L67.66666666666667,109.10840806452187L70,111.73289115584194L72.33333333333334,113.1140290970502L74.66666666666667,114.97896126718983L77,117.81293183999611L79.33333333333333,117.27520199587178L81.66666666666667,121.2036181225678L84,122.73100222517056L86.33333333333334,124.05720224780612L88.66666666666666,124.11496534172794L91,127.85093111072732L93.33333333333333,129.40928093366412L95.66666666666667,129.93566088756543L98,130.62272322804722L100.33333333333333,131.38874746747717L102.66666666666666,130.65861080854395L105,128.6490096685789L107.33333333333334,130.2286924700847L109.66666666666667,131.73976900031445L112,134.16311234487742L114.33333333333333,136.34600766545458L116.66666666666667,135.08748222714607L119,134.91050674703712L121.33333333333334,135.5520463996216L123.66666666666666,136.19326340843924L126,138.64979290206747L128.33333333333331,141.04072274326006L130.66666666666666,138.89287916349514L133,141.6188960137213L135.33333333333334,143.29605872706315L137.66666666666666,144.54358124997677L140,143.66268552501447L142.33333333333331,144.4250403880665L144.66666666666669,145.63742550549654L147,145.9255061845251L149.33333333333334,144.73878043295474L151.66666666666666,145.62799759746545L154,144.71937017067822L156.33333333333334,145.08705528532204L158.66666666666666,145.83624635907856L161,142.9045534080634L163.33333333333334,142.91654516536212L165.66666666666666,144.11073332694104L168,146.04908090333305L170.33333333333331,147.19066330790616L172.66666666666669,148.37349998951018L175,149.35989885429578L177.33333333333331,150.30355649133546L179.66666666666669,150.75263715052617L182,151.02835671959727L184.33333333333334,149.45169747089392L186.66666666666666,148.78422761190959L189,149.97821876046476L191.33333333333334,149.36841894470106L193.66666666666666,151.26517370014858L196,152.915716175255L198.33333333333334,151.45195895275484L200.66666666666666,152.03232008620705L203,153.06310644142593L205.33333333333331,151.91728639936107L207.66666666666669,150.36210549971855L210,151.86807809731204L212.33333333333331,152.79763888494674L214.66666666666669,151.88817051356932L217,151.12068419142108L219.33333333333334,151.05192501634482L221.66666666666666,150.84933112734632L224,150.8444563746894L226.33333333333334,151.93815448187456L228.66666666666666,150.0571111647447L231,150.97680624275367L233.33333333333334,152.38934672295426L235.66666666666666,152.88120029321934L238,152.8274267948764L240.33333333333331,153.17605979067667L242.66666666666669,153.65707060390264L245,150.51464713132512L247.33333333333331,151.56934917479435L249.66666666666669,153.34745817041204L252,154.43274431122825L254.33333333333334,155.38731551385015" style="fill: none;" fill="none"></path></g></g></g></g><g opacity="0.2"><g><g><g><path stroke="rgb(255, 112, 67)" stroke-width="2px" d="M23.333333333333332,-15.8948335647583L25.666666666666664,40.03400846322381L28,67.02724192539853L30.333333333333336,78.4654628634453L32.666666666666664,92.40540726979575L35,93.32901948690416L37.333333333333336,97.46227809786798L39.666666666666664,111.03245048721632L42,115.8823761244615L44.33333333333333,116.57455259561539L46.666666666666664,116.16792096694311L49,115.03487471739453L51.33333333333333,121.32713932792348L53.66666666666667,123.16155263781548L56,124.95588808258375L58.333333333333336,127.46515764792761L60.66666666666667,124.4213397204876L63,125.30089546243352L65.33333333333333,130.35494810839495L67.66666666666667,130.22142153481644L70,133.7602315992117L72.33333333333334,134.15593310197195L74.66666666666667,134.3541165093581L77,131.40444133679074L79.33333333333333,138.07371903459233L81.66666666666667,140.50036171078682L84,138.85689736902714L86.33333333333334,138.48624342679977L88.66666666666666,142.32822136580944L91,141.7828136086464L93.33333333333333,143.56547625362873L95.66666666666667,142.28991398215294L98,144.09680415193242L100.33333333333333,144.3056214998166L102.66666666666666,146.1857125684619L105,148.32489293317002L107.33333333333334,146.77035384128493L109.66666666666667,150.58580550303063L112,150.32237289100885L114.33333333333333,151.55689579993486L116.66666666666667,151.15547394007444L119,150.6744765639305L121.33333333333334,149.13044542322558L123.66666666666666,151.68965870141983L126,151.80971104900044L128.33333333333331,152.23821840186915L130.66666666666666,150.9370526696245L133,150.53678571184477L135.33333333333334,153.09928244849047L137.66666666666666,154.96792672450346L140,151.81768705695868L142.33333333333331,154.09141959249973L144.66666666666669,152.20047133912644L147,156.14949157088995L149.33333333333334,155.6875766031444L151.66666666666666,155.59553919608396L154,156.73495840529603L156.33333333333334,157.15151335050663L158.66666666666666,158.37242665017646L161,158.58058752740422L163.33333333333334,156.61317646751803L165.66666666666666,158.63284795172513L168,157.82326131686568L170.33333333333331,158.2803594035407L172.66666666666669,157.97967429210743L175,157.0749820234875L177.33333333333331,157.37458351626992L179.66666666666669,159.07161238230765L182,159.41160698980093L184.33333333333334,156.65173030396303L186.66666666666666,158.5713869916896L189,159.19855932953456L191.33333333333334,159.2265413912634L193.66666666666666,154.56953081861138L196,158.0815184203287L198.33333333333334,157.42362596342963L200.66666666666666,156.5821991202732L203,158.4810940946142L205.33333333333331,160.32321347482502L207.66666666666669,157.27371027941507L210,159.53373208269477L212.33333333333331,159.783110531047L214.66666666666669,159.01230816046396L217,160.61677742687365L219.33333333333334,158.9583156593144L221.66666666666666,159.61548423022032L224,158.22632987921438L226.33333333333334,161.06537220161408L228.66666666666666,161.4012470136707L231,161.30199105416736L233.33333333333334,156.75255380819243L235.66666666666666,160.30502349076173L238,157.47028953333697L240.33333333333331,159.36940802820027L242.66666666666669,159.43188049457967L245,161.20009885107478L247.33333333333331,160.61731785473725L249.66666666666669,160.71591250846782L252,161.77412704347321L254.33333333333334,158.88499484956264" style="fill: none;" fill="none"></path></g><g><path stroke="rgb(187, 187, 187)" stroke-width="2px" d="M28,-68.81768540541327L30.333333333333336,12.027016321818053L32.666666666666664,8.68141198158267L35,14.21813412507376L37.333333333333336,40.235644419988034L39.666666666666664,63.903255005677565L42,73.53831682602566L44.33333333333333,71.86565611759823L46.666666666666664,80.29542013009392L49,87.02546004454297L51.33333333333333,91.35673849781355L53.66666666666667,85.36380682388943L56,107.76121520996095L58.333333333333336,99.13157467047375L60.66666666666667,107.23586627840997L63,108.75735306739809L65.33333333333333,115.85755401849747L67.66666666666667,110.02086678147317L70,115.66947185993195L72.33333333333334,115.18569056193036L74.66666666666667,117.7763227025668L77,122.06385412812233L79.33333333333333,116.46861105163893L81.66666666666667,127.09622555971146L84,125.0220744709174L86.33333333333334,126.0465002457301L88.66666666666666,124.20160992940268L91,133.4548776994149L93.33333333333333,131.74680515130362L95.66666666666667,130.72523071368536L98,131.65331665674847L100.33333333333333,132.5377837717533L102.66666666666666,129.5634058515231L105,125.63460801045102L107.33333333333334,132.59821664790314L109.66666666666667,134.0063837816318L112,137.79812734822434L114.33333333333333,139.6203506390254L116.66666666666667,133.19969407220682L119,134.64504352708659L121.33333333333334,136.51435587803525L123.66666666666666,137.155088921388L126,142.33458714187145L128.33333333333331,144.6271175046762L130.66666666666666,135.67111379404864L133,145.70792128890753L135.33333333333334,145.81180279701948L137.66666666666666,146.41486503432196L140,142.34134193758172L142.33333333333331,145.56857268263897L144.66666666666669,147.45600318163633L147,146.35762720306715L149.33333333333334,142.95869180560112L151.66666666666666,146.96182334423065L154,143.35642903049788L156.33333333333334,145.63858295728764L158.66666666666666,146.9600329697132L161,138.507013981541L163.33333333333334,142.93453280131024L165.66666666666666,145.9020155693094L168,148.95660226792097L170.33333333333331,148.90303691476583L172.66666666666669,150.14775501191616L175,150.83949715147418L177.33333333333331,151.71904294689497L179.66666666666669,151.42625813931227L182,151.4419360732039L184.33333333333334,147.08670859783888L186.66666666666666,147.7830228234331L189,151.76920548329753L191.33333333333334,148.4537192210555L193.66666666666666,154.11030583331984L196,155.39152988791466L198.33333333333334,149.25632311900458L200.66666666666666,152.9028617863854L203,154.60928597425422L205.33333333333331,150.19855633626383L207.66666666666669,148.02933415025473L210,154.12703699370226L212.33333333333331,154.1919800663988L214.66666666666669,150.52396795650324L217,149.96945470819873L219.33333333333334,150.94878625373047L221.66666666666666,150.54544029384851L224,150.83714424570402L226.33333333333334,153.57870164265236L228.66666666666666,147.2355461890499L231,152.35634885976714L233.33333333333334,154.5081574432552L235.66666666666666,153.61898064861697L238,152.74676654736203L240.33333333333331,153.6990092843771L242.66666666666669,154.3785868237416L245,145.80101192245883L247.33333333333331,153.1514022399982L249.66666666666669,156.01462166383862L252,156.06067352245253L254.33333333333334,156.81917231778306" style="fill: none;" fill="none"></path></g></g></g></g></g></g><g transform="translate(50, 178)" clip-path="url(#clip_1)"><clipPath id="clip_1"><rect width="280" height="21"></rect></clipPath><g><g><line x1="0" y1="0" x2="0" y2="5" style="visibility: inherit;" fill="rgb(0, 0, 0)" stroke="rgb(204, 204, 204)" stroke-width="1px"></line><line x1="23.333333333333332" y1="0" x2="23.333333333333332" y2="5" style="visibility: inherit;" fill="rgb(0, 0, 0)" stroke="rgb(204, 204, 204)" stroke-width="1px"></line><line x1="46.666666666666664" y1="0" x2="46.666666666666664" y2="5" style="visibility: inherit;" fill="rgb(0, 0, 0)" stroke="rgb(204, 204, 204)" stroke-width="1px"></line><line x1="70" y1="0" x2="70" y2="5" style="visibility: inherit;" fill="rgb(0, 0, 0)" stroke="rgb(204, 204, 204)" stroke-width="1px"></line><line x1="93.33333333333333" y1="0" x2="93.33333333333333" y2="5" style="visibility: inherit;" fill="rgb(0, 0, 0)" stroke="rgb(204, 204, 204)" stroke-width="1px"></line><line x1="116.66666666666667" y1="0" x2="116.66666666666667" y2="5" style="visibility: inherit;" fill="rgb(0, 0, 0)" stroke="rgb(204, 204, 204)" stroke-width="1px"></line><line x1="140" y1="0" x2="140" y2="5" style="visibility: inherit;" fill="rgb(0, 0, 0)" stroke="rgb(204, 204, 204)" stroke-width="1px"></line><line x1="163.33333333333334" y1="0" x2="163.33333333333334" y2="5" style="visibility: inherit;" fill="rgb(0, 0, 0)" stroke="rgb(204, 204, 204)" stroke-width="1px"></line><line x1="186.66666666666666" y1="0" x2="186.66666666666666" y2="5" style="visibility: inherit;" fill="rgb(0, 0, 0)" stroke="rgb(204, 204, 204)" stroke-width="1px"></line><line x1="210" y1="0" x2="210" y2="5" style="visibility: inherit;" fill="rgb(0, 0, 0)" stroke="rgb(204, 204, 204)" stroke-width="1px"></line><line x1="233.33333333333334" y1="0" x2="233.33333333333334" y2="5" style="visibility: inherit;" fill="rgb(0, 0, 0)" stroke="rgb(204, 204, 204)" stroke-width="1px"></line><line x1="256.66666666666663" y1="0" x2="256.66666666666663" y2="5" style="visibility: inherit;" fill="rgb(0, 0, 0)" stroke="rgb(204, 204, 204)" stroke-width="1px"></line><line x1="280" y1="0" x2="280" y2="5" style="visibility: inherit;" fill="rgb(0, 0, 0)" stroke="rgb(204, 204, 204)" stroke-width="1px"></line></g><g transform="translate(0, 8)"><text x="0" y="0" dx="0em" dy="0.95em" style="text-anchor: middle; visibility: hidden; font-family: &quot;Helvetica Neue&quot;, sans-serif; font-size: 12px; font-weight: 200;" fill="rgb(50, 49, 63)" stroke="none" stroke-width="1px">-10</text><text x="23.333333333333332" y="0" dx="0em" dy="0.95em" style="text-anchor: middle; visibility: inherit; font-family: &quot;Helvetica Neue&quot;, sans-serif; font-size: 12px; font-weight: 200;" fill="rgb(50, 49, 63)" stroke="none" stroke-width="1px">0</text><text x="46.666666666666664" y="0" dx="0em" dy="0.95em" style="text-anchor: middle; visibility: inherit; font-family: &quot;Helvetica Neue&quot;, sans-serif; font-size: 12px; font-weight: 200;" fill="rgb(50, 49, 63)" stroke="none" stroke-width="1px">10</text><text x="70" y="0" dx="0em" dy="0.95em" style="text-anchor: middle; visibility: inherit; font-family: &quot;Helvetica Neue&quot;, sans-serif; font-size: 12px; font-weight: 200;" fill="rgb(50, 49, 63)" stroke="none" stroke-width="1px">20</text><text x="93.33333333333333" y="0" dx="0em" dy="0.95em" style="text-anchor: middle; visibility: inherit; font-family: &quot;Helvetica Neue&quot;, sans-serif; font-size: 12px; font-weight: 200;" fill="rgb(50, 49, 63)" stroke="none" stroke-width="1px">30</text><text x="116.66666666666667" y="0" dx="0em" dy="0.95em" style="text-anchor: middle; visibility: inherit; font-family: &quot;Helvetica Neue&quot;, sans-serif; font-size: 12px; font-weight: 200;" fill="rgb(50, 49, 63)" stroke="none" stroke-width="1px">40</text><text x="140" y="0" dx="0em" dy="0.95em" style="text-anchor: middle; visibility: inherit; font-family: &quot;Helvetica Neue&quot;, sans-serif; font-size: 12px; font-weight: 200;" fill="rgb(50, 49, 63)" stroke="none" stroke-width="1px">50</text><text x="163.33333333333334" y="0" dx="0em" dy="0.95em" style="text-anchor: middle; visibility: inherit; font-family: &quot;Helvetica Neue&quot;, sans-serif; font-size: 12px; font-weight: 200;" fill="rgb(50, 49, 63)" stroke="none" stroke-width="1px">60</text><text x="186.66666666666666" y="0" dx="0em" dy="0.95em" style="text-anchor: middle; visibility: inherit; font-family: &quot;Helvetica Neue&quot;, sans-serif; font-size: 12px; font-weight: 200;" fill="rgb(50, 49, 63)" stroke="none" stroke-width="1px">70</text><text x="210" y="0" dx="0em" dy="0.95em" style="text-anchor: middle; visibility: inherit; font-family: &quot;Helvetica Neue&quot;, sans-serif; font-size: 12px; font-weight: 200;" fill="rgb(50, 49, 63)" stroke="none" stroke-width="1px">80</text><text x="233.33333333333334" y="0" dx="0em" dy="0.95em" style="text-anchor: middle; visibility: inherit; font-family: &quot;Helvetica Neue&quot;, sans-serif; font-size: 12px; font-weight: 200;" fill="rgb(50, 49, 63)" stroke="none" stroke-width="1px">90</text><text x="256.66666666666663" y="0" dx="0em" dy="0.95em" style="text-anchor: middle; visibility: inherit; font-family: &quot;Helvetica Neue&quot;, sans-serif; font-size: 12px; font-weight: 200;" fill="rgb(50, 49, 63)" stroke="none" stroke-width="1px">100</text><text x="280" y="0" dx="0em" dy="0.95em" style="text-anchor: middle; visibility: hidden; font-family: &quot;Helvetica Neue&quot;, sans-serif; font-size: 12px; font-weight: 200;" fill="rgb(50, 49, 63)" stroke="none" stroke-width="1px">110</text></g><line x1="0" y1="0" x2="280" y2="0" fill="rgb(0, 0, 0)" stroke="rgb(204, 204, 204)" stroke-width="1px"></line></g></g></g></g></svg>